<?xml version="1.0" standalone="no"?>
<!DOCTYPE svg PUBLIC "-//W3C//DTD SVG 1.1//EN" "http://www.w3.org/Graphics/SVG/1.1/DTD/svg11.dtd" >
<svg xmlns="http://www.w3.org/2000/svg" xmlns:xlink="http://www.w3.org/1999/xlink" version="1.1">
<metadata></metadata>
<defs>
<font id="sofia_promedium" horiz-adv-x="1181" >
<font-face units-per-em="2048" ascent="1638" descent="-410" />
<missing-glyph horiz-adv-x="509" />
<glyph unicode="&#xfb01;" horiz-adv-x="1206" d="M49 788v168h184v88q0 203 92 317t281 114h80v-191h-43q-213 0 -209 -217v-111h623v-956h-201v788h-422v-788h-201v788h-184zM819 1305q0 55 40.5 92t96.5 37q58 0 98 -37t40 -92t-40 -92t-98 -37q-56 0 -96.5 37t-40.5 92z" />
<glyph unicode="&#xfb02;" horiz-adv-x="1208" d="M49 788v168h184v88q0 203 92 317t281 114h453v-1475h-201v1284h-215q-213 0 -209 -217v-111h219v-168h-219v-788h-201v788h-184z" />
<glyph unicode="&#xfb03;" horiz-adv-x="1918" d="M49 788v168h184v88q0 203 92 317t281 114h107v-191h-70q-213 0 -209 -217v-111h510v88q0 202 93 316.5t282 114.5h65v-191h-32q-209 0 -205 -213v-115h622v-956h-200v788h-422v-788h-203v788h-510v-788h-201v788h-184zM1532 1305q0 55 40 92t97 37t97 -37t40 -92t-40 -92 t-97 -37t-97 37t-40 92z" />
<glyph unicode="&#xfb04;" horiz-adv-x="1921" d="M49 788v168h184v88q0 203 92 317t281 114h107v-191h-70q-213 0 -209 -217v-111h510v88q0 202 93 316.5t282 114.5h453v-1475h-201v1284h-215q-213 0 -209 -217v-111h217v-168h-217v-788h-203v788h-510v-788h-201v788h-184z" />
<glyph horiz-adv-x="0" />
<glyph horiz-adv-x="682" />
<glyph unicode=" "  horiz-adv-x="509" />
<glyph unicode="&#x09;" horiz-adv-x="509" />
<glyph unicode="&#xa0;" horiz-adv-x="509" />
<glyph unicode="!" horiz-adv-x="548" d="M131 115q0 58 41.5 96.5t99.5 38.5q59 0 101.5 -38.5t42.5 -96.5t-42.5 -96.5t-101.5 -38.5q-58 0 -99.5 38.5t-41.5 96.5zM172 1411h205l-23 -987h-157z" />
<glyph unicode="&#x22;" horiz-adv-x="747" d="M133 1411h174l-16 -594h-139zM440 1411h174l-16 -594h-139z" />
<glyph unicode="#" horiz-adv-x="1349" d="M66 346l47 176h217l96 357h-211l45 176h217l101 356h178l-101 -356h234l100 356h178l-100 -356h219l-49 -176h-219l-100 -357h219l-50 -176h-219l-100 -346h-176l98 346h-233l-101 -346h-174l99 346h-215zM506 522h233l99 357h-232z" />
<glyph unicode="$" horiz-adv-x="1069" d="M90 430h209q0 -87 68.5 -150t181.5 -63q104 0 164.5 56t60.5 137q0 134 -194 186l-162 41q-79 20 -138.5 52t-93 65.5t-54.5 74.5t-27.5 74.5t-6.5 69.5q0 142 102 239.5t255 120.5v166h131v-164q161 -17 259 -121t97 -258h-209q2 88 -56.5 144.5t-152.5 56.5 q-93 0 -154 -52t-61 -130q0 -122 162 -160l160 -39q168 -42 261 -133t93 -225q0 -152 -111 -259.5t-288 -117.5v-174h-131v180q-164 26 -265.5 135.5t-99.5 247.5z" />
<glyph unicode="%" horiz-adv-x="1294" d="M70 1104q0 115 78.5 194.5t193.5 79.5q114 0 194 -80t80 -194q0 -115 -80 -194t-194 -79q-115 0 -193.5 78.5t-78.5 194.5zM205 1104q0 -60 38.5 -98.5t98.5 -38.5q58 0 97.5 39t39.5 98q0 57 -40 97t-97 40q-59 0 -98 -39.5t-39 -97.5zM250 0l651 1337h129l-649 -1337 h-131zM678 252q0 115 78.5 194.5t193.5 79.5q114 0 194.5 -80t80.5 -194q0 -115 -80 -193.5t-195 -78.5q-116 0 -194 78t-78 194zM815 252q0 -58 38.5 -96.5t96.5 -38.5t97.5 38.5t39.5 96.5q0 57 -40 98t-97 41q-58 0 -96.5 -40.5t-38.5 -98.5z" />
<glyph unicode="&#x26;" horiz-adv-x="1318" d="M98 422q0 116 61.5 208.5t162.5 149.5q-66 43 -108 120t-42 167q0 148 110.5 254t278.5 106q114 0 205 -50.5t147 -141.5l-163 -107q-61 103 -187 103q-86 0 -139 -50t-53 -128q0 -82 56.5 -142.5t172.5 -60.5h234v166h198v-168h176v-162h-176v-252q0 -57 7.5 -101 t25.5 -83.5t53 -60.5t86 -21h43v-186h-47q-104 2 -185.5 43.5t-105.5 109.5q-55 -73 -149.5 -114t-202.5 -41q-201 0 -330 128t-129 314zM297 434q0 -111 74.5 -184.5t191.5 -73.5q115 0 191.5 71t79.5 187v252h-224q-157 0 -235 -71t-78 -181z" />
<glyph unicode="'" horiz-adv-x="442" d="M133 1411h174l-16 -594h-139z" />
<glyph unicode="(" horiz-adv-x="724" d="M98 565q0 269 71 475.5t202 320.5t303 114v-164q-168 0 -278.5 -205.5t-110.5 -540.5q0 -221 51 -391t139.5 -260t198.5 -90v-162q-172 0 -303 112t-202 317t-71 474z" />
<glyph unicode=")" horiz-adv-x="724" d="M51 -176q110 0 198.5 90t139.5 260t51 391q0 335 -110.5 540.5t-278.5 205.5v164q172 0 303 -114t202 -320.5t71 -475.5t-71 -474t-202 -317t-303 -112v162z" />
<glyph unicode="*" horiz-adv-x="933" d="M80 1090l35 129l295 -89l-9 308h134l-11 -308l295 89l35 -129l-291 -68l185 -234l-107 -77l-172 252l-176 -252l-107 77l185 234z" />
<glyph unicode="+" horiz-adv-x="1009" d="M84 436v185h330v329h182v-329h330v-185h-330v-330h-182v330h-330z" />
<glyph unicode="," horiz-adv-x="495" d="M-6 -285q97 136 135.5 254t20.5 291h198q17 -177 -43.5 -333.5t-179.5 -256.5z" />
<glyph unicode="-" horiz-adv-x="983" d="M135 385v190h715v-190h-715z" />
<glyph unicode="." horiz-adv-x="509" d="M113 115q0 58 41.5 96.5t99.5 38.5q59 0 101 -38.5t42 -96.5t-42 -96.5t-101 -38.5q-58 0 -99.5 38.5t-41.5 96.5z" />
<glyph unicode="/" horiz-adv-x="985" d="M53 0l692 1411h189l-692 -1411h-189z" />
<glyph unicode="0" horiz-adv-x="1212" d="M119 666q0 100 9.5 184.5t30.5 164t58.5 140.5t90 107t128 70t170.5 24q113 0 198.5 -35.5t140 -96.5t88.5 -150.5t47.5 -188t13.5 -219.5q0 -119 -13.5 -216.5t-47.5 -187t-88.5 -150t-140.5 -96.5t-198 -36q-113 0 -199 36t-140 96.5t-88 150t-47 187t-13 216.5z M319 666q0 -108 13.5 -192.5t44.5 -155.5t89 -109.5t140 -38.5t139.5 38.5t88.5 109.5t44 155.5t13 192.5q0 109 -13 194t-44 156.5t-88.5 110t-139.5 38.5t-140 -38.5t-89 -110t-44.5 -156.5t-13.5 -194z" />
<glyph unicode="1" horiz-adv-x="737" d="M57 952v193l480 211h10v-1356h-201v1067z" />
<glyph unicode="2" horiz-adv-x="1067" d="M90 1001q20 162 133.5 258.5t290.5 96.5q193 0 309.5 -109.5t116.5 -288.5q0 -81 -42.5 -173.5t-111.5 -172.5l-352 -419h527v-193h-859v94l504 611q60 72 96.5 141t36.5 112q0 94 -62 150.5t-165 56.5q-102 0 -167.5 -54.5t-74.5 -145.5z" />
<glyph unicode="3" horiz-adv-x="1069" d="M59 254l160 96q46 -85 116.5 -132.5t151.5 -47.5q121 0 198 60.5t77 158.5q0 107 -76.5 173.5t-196.5 66.5h-137v166h117q105 0 168 54.5t61 141.5q0 79 -55 126.5t-145 47.5q-67 0 -131.5 -33t-102.5 -88l-131 117q56 88 157.5 141.5t217.5 53.5q176 0 285 -99.5 t108 -261.5q0 -92 -46 -165.5t-124 -110.5q106 -36 170 -123.5t64 -204.5q0 -184 -130.5 -296.5t-338.5 -112.5q-143 0 -258 71.5t-179 200.5z" />
<glyph unicode="4" horiz-adv-x="1179" d="M25 270v49l817 1018h57v-878h193v-189h-193v-270h-203v270h-671zM348 459h348v422z" />
<glyph unicode="5" horiz-adv-x="1144" d="M82 279l166 96q38 -91 121 -148t190 -57q127 0 209 73t82 191t-81 191t-202 73q-158 0 -319 -125l-123 97l117 669h723v-190h-557l-72 -367q121 90 280 90q193 0 315 -120t122 -314q0 -206 -137 -332t-347 -126q-164 0 -293 82.5t-194 216.5z" />
<glyph unicode="6" horiz-adv-x="1204" d="M113 631q0 105 17.5 204t59 195t103.5 167.5t158 115t215 43.5q302 0 417 -273l-178 -77q-72 159 -241 159q-97 0 -176 -61.5t-122 -167.5t-40 -231q50 72 131 115.5t182 43.5q132 0 238 -62t162.5 -162.5t56.5 -217.5q0 -87 -34.5 -167t-95.5 -141t-152 -97.5 t-198 -36.5q-246 0 -374.5 167t-128.5 484zM334 434q0 -110 77.5 -185.5t194.5 -78.5q123 0 203 73t80 183q0 105 -74.5 177t-187.5 77q-121 0 -204 -70t-89 -176z" />
<glyph unicode="7" horiz-adv-x="1048" d="M90 0l612 1149h-604v188h930v-16l-700 -1321h-238z" />
<glyph unicode="8" horiz-adv-x="1204" d="M96 397q0 128 69.5 230t184.5 143q-64 38 -101.5 102.5t-37.5 147.5q0 146 110.5 241t282.5 95q171 0 281 -95.5t110 -240.5q0 -83 -37.5 -147.5t-101.5 -102.5q115 -43 183.5 -143.5t68.5 -227.5q0 -186 -142 -302.5t-362 -116.5q-221 0 -364.5 116t-143.5 301zM307 416 q0 -107 85 -177.5t212 -70.5q129 0 211 70t82 176q0 112 -85.5 185t-207.5 73q-124 0 -210.5 -73.5t-86.5 -182.5zM420 1001q0 -70 53 -117.5t131 -47.5t131 47.5t53 117.5q0 71 -53.5 122t-130.5 51t-130.5 -51t-53.5 -122z" />
<glyph unicode="9" horiz-adv-x="1204" d="M109 913q0 87 34 167.5t95 141.5t152 97.5t198 36.5q160 0 276 -84.5t173 -230.5t57 -336q0 -87 -12.5 -170t-39 -166t-71 -152t-104 -123t-144 -84t-184.5 -30q-303 0 -418 272l178 78q72 -160 242 -160q96 0 175 60.5t122.5 164.5t40.5 226q-49 -68 -131 -109t-181 -41 q-133 0 -239 62t-162.5 162.5t-56.5 217.5zM317 909q0 -106 74 -177.5t187 -76.5q122 0 205 69t87 175q0 112 -77.5 187t-194.5 77q-122 0 -201.5 -72.5t-79.5 -181.5z" />
<glyph unicode=":" horiz-adv-x="550" d="M133 115q0 58 42 96.5t101 38.5q58 0 99 -38.5t41 -96.5t-41 -96.5t-99 -38.5q-59 0 -101 38.5t-42 96.5zM133 842q0 58 42 96.5t101 38.5q58 0 99 -38.5t41 -96.5t-41 -96.5t-99 -38.5q-59 0 -101 38.5t-42 96.5z" />
<glyph unicode=";" horiz-adv-x="557" d="M35 -285q97 136 135 254t20 291h199q17 -177 -43.5 -333.5t-179.5 -256.5zM137 842q0 58 41.5 96.5t100.5 38.5t100 -38.5t41 -96.5t-41 -96.5t-100 -38.5t-100.5 38.5t-41.5 96.5z" />
<glyph unicode="&#x3c;" horiz-adv-x="1230" d="M70 467v188l1036 396v-203l-774 -287l774 -289v-200z" />
<glyph unicode="=" horiz-adv-x="1226" d="M143 240v182h942v-182h-942zM143 637v182h942v-182h-942z" />
<glyph unicode="&#x3e;" horiz-adv-x="1228" d="M125 72v200l772 289l-772 287v203l1034 -396v-188z" />
<glyph unicode="?" horiz-adv-x="976" d="M74 999q0 128 60.5 227t156.5 150t209 51q173 0 289 -109.5t116 -289.5q0 -143 -83 -244.5t-210 -142.5q-75 -24 -109 -52.5t-34 -92.5l-2 -72h-186l-2 72q-6 128 45 196.5t159 108.5l68 26q69 24 112.5 76t43.5 123q0 100 -57.5 156.5t-149.5 56.5t-161.5 -65 t-72.5 -175h-192zM231 117q0 58 41.5 96.5t100.5 38.5t100 -38.5t41 -96.5t-41 -96.5t-100 -38.5t-100.5 38.5t-41.5 96.5z" />
<glyph unicode="@" horiz-adv-x="1996" d="M90 520q0 183 69 349t186.5 287t282 192t347.5 71q185 0 354 -65.5t294.5 -179t200 -275t74.5 -344.5q0 -76 -12.5 -153t-42 -156t-72.5 -139t-111 -98t-151 -38q-60 0 -110.5 15t-93.5 48t-67 92.5t-24 141.5v262q0 110 -76 185.5t-184 75.5t-184 -75.5t-76 -185.5 q0 -106 76.5 -182t183.5 -76q98 0 195 90v-176q-88 -65 -195 -65q-170 0 -290.5 120t-120.5 289q0 172 120.5 292t290.5 120q165 0 285.5 -114.5t126.5 -278.5v-295q0 -133 143 -133q68 0 117.5 43.5t73.5 113.5t34.5 138.5t10.5 138.5q0 152 -62.5 285.5t-167 226.5 t-245.5 147t-295 54q-152 0 -288.5 -59.5t-233.5 -160t-154 -238.5t-57 -290q0 -153 57 -290t154 -235.5t233 -156t289 -57.5h55v-154h-55q-183 0 -347.5 70t-282 189.5t-186.5 284.5t-69 349z" />
<glyph unicode="A" horiz-adv-x="1294" d="M2 0l535 1411h225l532 -1411h-221l-133 356h-586l-131 -356h-221zM422 541h450l-225 608z" />
<glyph unicode="B" horiz-adv-x="1294" d="M190 0v1411h537q179 0 284 -98.5t105 -263.5q0 -99 -42.5 -179.5t-137.5 -117.5q120 -25 188 -127.5t68 -225.5q0 -77 -28 -148t-80 -127.5t-133 -90t-179 -33.5h-582zM401 193h330q118 0 184 65t66 162q0 94 -62 161.5t-178 67.5h-340v-456zM401 829h326q85 0 131.5 54 t46.5 143q0 86 -47 139.5t-135 53.5h-322v-390z" />
<glyph unicode="C" horiz-adv-x="1419" d="M96 702q0 197 95.5 363t260.5 263t361 97q165 0 306.5 -67.5t236.5 -186.5l-156 -124q-68 86 -168.5 134t-216.5 48q-141 0 -258 -70.5t-183.5 -191.5t-66.5 -265q0 -143 66 -263.5t183 -191.5t259 -71q115 0 215.5 48.5t169.5 133.5l156 -125q-95 -119 -236.5 -186 t-306.5 -67q-196 0 -361 96.5t-260.5 263t-95.5 362.5z" />
<glyph unicode="D" horiz-adv-x="1480" d="M190 0v1411h549q148 0 269.5 -54.5t202 -150t124 -225t43.5 -279.5t-43.5 -278t-124 -222.5t-202 -148t-269.5 -53.5h-549zM401 193h338q137 0 235.5 68t145.5 181.5t47 259.5t-47 261.5t-145.5 185.5t-235.5 70h-338v-1026z" />
<glyph unicode="E" horiz-adv-x="1159" d="M190 0v1411h846v-192h-637v-428h555v-195h-555v-403h656v-193h-865z" />
<glyph unicode="F" horiz-adv-x="1087" d="M190 0v1411h834v-192h-623v-428h494v-193h-494v-598h-211z" />
<glyph unicode="G" horiz-adv-x="1544" d="M96 702q0 198 94.5 364.5t259 263.5t361.5 97q143 0 268 -51t219 -143l-147 -135q-68 63 -156 99t-184 36q-140 0 -256 -71.5t-182 -193.5t-66 -266q0 -143 66 -264t182 -192.5t256 -71.5q173 0 293 89t143 237q4 20 4 35h-405v180h637q0 -185 -47.5 -326t-136.5 -230 t-211.5 -134t-276.5 -45q-148 0 -280.5 57t-227.5 154t-151 230.5t-56 280.5z" />
<glyph unicode="H" horiz-adv-x="1452" d="M190 0v1411h211v-614h652v614h211v-1411h-211v606h-652v-606h-211z" />
<glyph unicode="I" horiz-adv-x="591" d="M190 0v1411h211v-1411h-211z" />
<glyph unicode="J" horiz-adv-x="608" d="M-186 -455l20 197q47 -16 143 -16q117 0 173.5 72.5t56.5 185.5v1427h211v-1427q0 -97 -24.5 -178t-75.5 -145.5t-138 -101t-203 -36.5q-66 0 -163 22z" />
<glyph unicode="K" horiz-adv-x="1189" d="M190 0v1411h209v-586l445 586h258l-541 -706l656 -705h-283l-535 580v-580h-209z" />
<glyph unicode="L" horiz-adv-x="1011" d="M190 0v1411h211v-1218h568v-193h-779z" />
<glyph unicode="M" horiz-adv-x="1912" d="M111 0l172 1411h188l485 -1016l486 1016h188l172 -1411h-209l-125 1024l-419 -868h-181l-424 868l-125 -1024h-208z" />
<glyph unicode="N" horiz-adv-x="1406" d="M190 0v1411h205l611 -1020v1020h211v-1411h-199l-617 1028v-1028h-211z" />
<glyph unicode="O" horiz-adv-x="1622" d="M96 702q0 198 94 364.5t258 263.5t361 97q198 0 363 -97t259.5 -263.5t94.5 -364.5q0 -147 -56 -280.5t-151 -230.5t-228.5 -154t-281.5 -57t-280.5 57t-227 154t-150 230.5t-55.5 280.5zM307 702q0 -143 65 -263.5t180.5 -191.5t256.5 -71q142 0 258.5 71t182 191.5 t65.5 263.5q0 144 -65.5 265t-182 192.5t-258.5 71.5q-141 0 -256.5 -71.5t-180.5 -192.5t-65 -265z" />
<glyph unicode="P" horiz-adv-x="1253" d="M190 0v1411h566q109 0 194 -38t135 -102t75.5 -141.5t25.5 -164.5t-25.5 -164.5t-75.5 -141t-135 -100.5t-194 -37h-355v-522h-211zM401 715h342q115 0 173.5 73t58.5 177t-56.5 179t-166.5 75h-351v-504z" />
<glyph unicode="Q" horiz-adv-x="1622" d="M96 702q0 198 94 364.5t258 263.5t361 97q198 0 363 -97t259.5 -263.5t94.5 -364.5q0 -189 -88 -350.5t-240 -259.5l143 -231l-157 -97l-156 248q-109 -32 -219 -32q-148 0 -280.5 57t-227 154t-150 230.5t-55.5 280.5zM307 702q0 -143 65 -263.5t180.5 -191.5t256.5 -71 q59 0 111 12l-146 234l158 98l160 -256q104 71 163.5 187t59.5 251q0 144 -65.5 265t-182 192.5t-258.5 71.5q-141 0 -256.5 -71.5t-180.5 -192.5t-65 -265z" />
<glyph unicode="R" horiz-adv-x="1273" d="M190 0v1411h539q111 0 197 -38t136.5 -102t75.5 -141.5t25 -164.5q0 -79 -20.5 -149.5t-62.5 -131t-113.5 -101.5t-165.5 -53l375 -530h-252l-361 526h-162v-526h-211zM401 711h277q140 0 207 68t67 186q0 112 -61.5 183t-163.5 71h-326v-508z" />
<glyph unicode="S" horiz-adv-x="1173" d="M102 410h209q3 -95 84.5 -166.5t208.5 -71.5q122 0 194 63.5t72 155.5q0 154 -227 215l-180 45q-86 22 -151.5 57t-102 72.5t-59.5 83t-30 82t-7 76.5q0 120 65.5 214t171.5 142.5t232 48.5q195 0 323.5 -113.5t128.5 -301.5h-209q0 99 -70.5 161t-179.5 62 q-104 0 -177.5 -57.5t-73.5 -151.5q0 -135 192 -184l178 -45q184 -46 285.5 -145.5t101.5 -250.5q0 -180 -133 -300.5t-344 -120.5q-110 0 -205 35.5t-159.5 94.5t-101 137t-36.5 163z" />
<glyph unicode="T" horiz-adv-x="1132" d="M41 1219v192h1051v-192h-420v-1219h-211v1219h-420z" />
<glyph unicode="U" horiz-adv-x="1388" d="M174 489v922h211v-919q0 -153 87.5 -231.5t221.5 -78.5t223 78.5t89 231.5v919h211v-922q0 -118 -42 -215.5t-114 -161t-166.5 -98t-200.5 -34.5q-142 0 -259 58.5t-189 176t-72 274.5z" />
<glyph unicode="V" horiz-adv-x="1148" d="M49 1411h217l307 -1061l308 1061h217l-424 -1411h-197z" />
<glyph unicode="W" horiz-adv-x="1849" d="M31 1411h225l340 -1067l248 875h162l247 -875l342 1067h226l-478 -1411h-178l-241 856l-238 -856h-178z" />
<glyph unicode="X" horiz-adv-x="1263" d="M14 0l492 758l-440 653h251l314 -483l315 483h252l-442 -653l493 -758h-250l-368 586l-367 -586h-250z" />
<glyph unicode="Y" horiz-adv-x="1302" d="M6 1411h250l393 -565l400 565h249l-542 -764v-647h-211v647z" />
<glyph unicode="Z" horiz-adv-x="1171" d="M82 0v176l727 1043h-698v192h966v-176l-733 -1042h733v-193h-995z" />
<glyph unicode="[" horiz-adv-x="659" d="M176 -338v1813h422v-170h-227v-1473h227v-170h-422z" />
<glyph unicode="\" horiz-adv-x="985" d="M51 1411h189l692 -1411h-189z" />
<glyph unicode="]" horiz-adv-x="659" d="M61 -168h230v1473h-230v170h422v-1813h-422v170z" />
<glyph unicode="^" horiz-adv-x="999" d="M80 616l323 795h193l324 -795h-203l-217 570l-217 -570h-203z" />
<glyph unicode="_" horiz-adv-x="1413" d="M121 -59h1171v-172h-1171v172z" />
<glyph unicode="`" horiz-adv-x="1056" d="M264 1454h234l196 -321h-182z" />
<glyph unicode="a" horiz-adv-x="1245" d="M90 479q0 112 37.5 206t102 157.5t150.5 99t183 35.5q106 0 196 -41.5t136 -120.5v141h201v-956h-201v143q-45 -78 -136.5 -120.5t-193.5 -42.5q-97 0 -184 36t-151.5 99.5t-102 158t-37.5 205.5zM291 481q0 -132 86.5 -221.5t210.5 -89.5q126 0 215.5 85.5t89.5 225.5 q0 92 -46 163.5t-114.5 106.5t-144.5 35q-125 0 -211 -86t-86 -219z" />
<glyph unicode="b" horiz-adv-x="1243" d="M150 0v1475h200v-660q46 79 136 120.5t196 41.5q97 0 183.5 -35.5t151.5 -99t102.5 -157.5t37.5 -206q0 -111 -38 -205.5t-102.5 -158t-151.5 -99.5t-183 -36q-102 0 -194.5 42.5t-137.5 120.5v-143h-200zM352 481q0 -140 90 -225.5t215 -85.5t211 89t86 222t-85.5 219 t-211.5 86q-76 0 -144.5 -35t-114.5 -106.5t-46 -163.5z" />
<glyph unicode="c" horiz-adv-x="1044" d="M88 479q0 147 71.5 262t188.5 175.5t256 60.5q115 0 212 -43.5t161 -120.5l-133 -125q-42 47 -103.5 73.5t-132.5 26.5q-135 0 -227 -87t-92 -222t92 -222t227 -87q71 0 132.5 26.5t103.5 73.5l133 -125q-64 -76 -161 -119.5t-212 -43.5q-103 0 -197 35.5t-164.5 99 t-112.5 157.5t-42 205z" />
<glyph unicode="d" horiz-adv-x="1245" d="M90 479q0 112 37.5 206t102 157.5t150.5 99t183 35.5q106 0 196 -41.5t136 -120.5v660h201v-1475h-201v143q-45 -78 -136.5 -120.5t-193.5 -42.5q-97 0 -184 36t-151.5 99.5t-102 158t-37.5 205.5zM291 481q0 -132 86.5 -221.5t210.5 -89.5q126 0 215.5 85.5t89.5 225.5 q0 92 -46 163.5t-114.5 106.5t-144.5 35q-125 0 -211 -86t-86 -219z" />
<glyph unicode="e" horiz-adv-x="1144" d="M88 481q0 148 67 262t179 174t248 60q208 0 343.5 -136t135.5 -358q0 -24 -4 -86h-762q20 -114 98.5 -172.5t198.5 -58.5q85 0 157 35t111 100l160 -80q-61 -117 -179 -179t-259 -62q-211 0 -352.5 139t-141.5 362zM297 559h563q-13 110 -88 171t-188 61 q-114 0 -190 -58.5t-97 -173.5z" />
<glyph unicode="f" horiz-adv-x="692" d="M49 788v168h184v88q0 203 92 317t281 114h107v-191h-70q-209 0 -209 -209v-8v-111h219v-168h-219v-788h-201v788h-184z" />
<glyph unicode="g" horiz-adv-x="1245" d="M90 479q0 112 37.5 206t102 157.5t150.5 99t183 35.5q104 0 194 -41.5t138 -118.5v139h201v-813q0 -620 -527 -620q-137 0 -254.5 69t-183.5 195l170 84q39 -75 113.5 -118.5t154.5 -43.5q158 0 242 99.5t84 318.5v12q-48 -75 -139.5 -117t-190.5 -42q-97 0 -184 36 t-151.5 99.5t-102 158t-37.5 205.5zM291 481q0 -132 86.5 -221.5t210.5 -89.5q126 0 215.5 85.5t89.5 225.5q0 92 -46 163.5t-114.5 106.5t-144.5 35q-125 0 -211 -86t-86 -219z" />
<glyph unicode="h" d="M150 0v1475h200v-664q26 55 82.5 94.5t115.5 55.5t114 16q182 0 282.5 -113t99.5 -317v-547h-200v532q0 114 -61 180t-156 66q-50 0 -96.5 -14.5t-88.5 -44.5t-67 -84t-25 -125v-510h-200z" />
<glyph unicode="i" horiz-adv-x="501" d="M113 1305q0 55 40.5 92t96.5 37q57 0 97 -37t40 -92t-40 -92t-97 -37q-56 0 -96.5 37t-40.5 92zM150 0v956h200v-956h-200z" />
<glyph unicode="j" horiz-adv-x="518" d="M-115 -276h111q170 0 170 219v10v1003h201v-1005q0 -416 -355 -416h-127v189zM129 1305q0 55 40.5 92t96.5 37q59 0 98 -37t39 -92t-39 -92t-98 -37q-56 0 -96.5 37t-40.5 92z" />
<glyph unicode="k" horiz-adv-x="1011" d="M150 0v1475h200v-844l314 325h272l-404 -413l498 -543h-262l-418 455v-455h-200z" />
<glyph unicode="l" horiz-adv-x="501" d="M150 0v1475h200v-1475h-200z" />
<glyph unicode="m" horiz-adv-x="1796" d="M150 0v956h200v-151q32 78 115.5 125t183.5 47q104 0 187.5 -51t124.5 -142q31 57 73.5 97.5t89 60t86.5 27.5t80 8q179 0 274 -112.5t95 -317.5v-547h-203v532q0 118 -56.5 184t-154.5 66h-3q-98 0 -162 -64q-64 -66 -74 -173v-545h-203v535q0 116 -55 181.5t-146 65.5 q-105 0 -178.5 -67t-73.5 -203v-512h-200z" />
<glyph unicode="n" d="M150 0v956h200v-147q38 81 131 124.5t181 43.5q182 0 282.5 -113t99.5 -317v-547h-200v532q0 114 -61 180t-156 66q-50 0 -96.5 -14.5t-88.5 -44.5t-67 -84t-25 -125v-510h-200z" />
<glyph unicode="o" d="M88 481q0 147 69 261.5t182.5 174.5t250.5 60t251 -60t183.5 -174.5t69.5 -261.5t-69.5 -263t-184 -177t-250.5 -61t-250 61t-183 177t-69 263zM289 481q0 -137 87.5 -224t213.5 -87t214.5 87.5t88.5 223.5q0 135 -88.5 221t-214.5 86t-213.5 -86t-87.5 -221z" />
<glyph unicode="p" horiz-adv-x="1245" d="M150 -465v1421h200v-143q45 78 137.5 121t194.5 43q96 0 183 -35.5t151.5 -99.5t102.5 -158.5t38 -206.5t-37.5 -206t-102.5 -157.5t-151.5 -98.5t-183.5 -35q-106 0 -196.5 41t-135.5 120v-606h-200zM352 475q0 -92 46 -163.5t114.5 -106.5t144.5 -35q126 0 211.5 86 t85.5 219q0 134 -86 223.5t-211 89.5t-215 -86.5t-90 -226.5z" />
<glyph unicode="q" horiz-adv-x="1245" d="M90 477q0 223 137.5 361.5t337.5 138.5q102 0 193.5 -43t136.5 -121v143h201v-1421h-201v606q-45 -79 -135.5 -120t-196.5 -41q-97 0 -183 35t-150.5 98.5t-102 157.5t-37.5 206zM291 475q0 -133 86 -219t211 -86q76 0 144.5 35t114.5 106.5t46 163.5q0 140 -89.5 226.5 t-215.5 86.5q-124 0 -210.5 -89.5t-86.5 -223.5z" />
<glyph unicode="r" horiz-adv-x="804" d="M150 0v956h202v-215q69 236 269 236q103 0 163 -35l-34 -190q-68 32 -142 32q-126 0 -191 -119.5t-65 -320.5v-344h-202z" />
<glyph unicode="s" horiz-adv-x="907" d="M80 291h186q0 -59 48.5 -100t127.5 -41q82 0 130.5 33.5t48.5 88.5q0 86 -123 113l-129 31q-133 35 -196.5 104.5t-63.5 175.5q0 118 96.5 199.5t243.5 81.5q64 0 122.5 -17t108 -50.5t79 -90.5t29.5 -129h-192q0 51 -43.5 84t-99.5 33q-62 0 -102 -33.5t-40 -83.5 q0 -41 32.5 -67.5t82.5 -38.5l145 -35q59 -15 104.5 -39.5t72.5 -52t44 -61.5t23 -64.5t6 -63.5q0 -131 -111 -209.5t-266 -78.5q-91 0 -172 35t-135.5 108t-56.5 168z" />
<glyph unicode="t" horiz-adv-x="675" d="M57 788v168h172v359h201v-359h205v-168h-205v-788h-201v788h-172z" />
<glyph unicode="u" d="M137 410v546h201v-532q0 -114 61 -180t156 -66q50 0 96.5 14.5t88 44t66.5 83.5t25 124v512h201v-956h-201v145q-38 -80 -130 -122.5t-179 -42.5q-182 0 -284 113.5t-101 316.5z" />
<glyph unicode="v" horiz-adv-x="1038" d="M25 956h215l278 -696l279 696h217l-400 -956h-190z" />
<glyph unicode="w" horiz-adv-x="1585" d="M23 956h217l229 -653l227 653h189l229 -653l227 653h218l-351 -956h-170l-247 686l-240 -686h-166z" />
<glyph unicode="x" horiz-adv-x="1019" d="M14 0l379 524l-313 432h244l186 -268l188 268h242l-313 -432l379 -524h-240l-256 358l-258 -358h-238z" />
<glyph unicode="y" horiz-adv-x="1032" d="M29 956h217l274 -665l275 665h217l-594 -1421h-213l205 506z" />
<glyph unicode="z" horiz-adv-x="1024" d="M82 0v164l551 602h-518v190h813v-163l-563 -605h563v-188h-846z" />
<glyph unicode="{" horiz-adv-x="784" d="M70 489v158q50 0 87.5 31.5t37.5 73.5v321q-1 180 116 291t289 111h133v-162h-80q-144 0 -208 -66.5t-64 -175.5v-301q0 -64 -34.5 -123t-96.5 -78q60 -16 95.5 -77t35.5 -125v-301q0 -109 64 -175.5t208 -66.5h80v-162h-133q-172 0 -289 110.5t-116 290.5v322 q0 42 -37.5 73t-87.5 31z" />
<glyph unicode="|" horiz-adv-x="483" d="M176 -246v1876h131v-1876h-131z" />
<glyph unicode="}" horiz-adv-x="784" d="M51 -176h80q144 0 208 66.5t64 175.5v301q0 64 35.5 125t96.5 77q-62 19 -97 78t-35 123v301q0 109 -64 175.5t-208 66.5h-80v162h133q172 0 289.5 -111t116.5 -291v-321q0 -42 37.5 -73.5t87.5 -31.5v-158q-50 0 -87.5 -31t-37.5 -73v-322q1 -180 -116.5 -290.5 t-289.5 -110.5h-133v162z" />
<glyph unicode="~" horiz-adv-x="1390" d="M137 571q57 69 141.5 116.5t176.5 47.5q41 0 82.5 -8.5t63 -16.5t63 -26.5t49.5 -21.5q12 -5 46.5 -21t56 -24.5t57.5 -16.5t71 -8q65 0 126.5 36.5t107.5 84.5l82 -109q-51 -69 -136.5 -117.5t-177.5 -48.5q-42 0 -83.5 8.5t-65 17.5t-62.5 26t-51 22t-46.5 21t-56 24.5 t-57.5 16.5t-71 8q-123 0 -238 -123z" />
<glyph unicode="&#xa1;" horiz-adv-x="516" d="M117 842q0 59 40.5 97t98.5 38q60 0 101.5 -38t41.5 -97q0 -58 -42 -96.5t-101 -38.5q-58 0 -98.5 38.5t-40.5 96.5zM156 -465l24 987h158l22 -987h-204z" />
<glyph unicode="&#xa2;" horiz-adv-x="1058" d="M90 479q0 197 122.5 330t307.5 162v219h131v-215q202 -15 330 -162l-133 -125q-42 47 -103.5 73.5t-132.5 26.5q-136 0 -227.5 -87t-91.5 -222t91.5 -222t227.5 -87q71 0 132.5 26.5t103.5 73.5l133 -125q-127 -146 -330 -161v-226h-131v230q-185 29 -307.5 162 t-122.5 329z" />
<glyph unicode="&#xa3;" horiz-adv-x="1284" d="M90 0v186h189v332h-152v125h152v260q0 110 34.5 197t93.5 140.5t134.5 81.5t160.5 28q176 0 295 -117.5t119 -317.5h-201q0 115 -60.5 183.5t-166.5 68.5q-87 0 -147 -70.5t-60 -193.5v-260h299v-125h-299v-332h457q59 0 59 68v106h203v-110q0 -108 -55.5 -179 t-153.5 -71h-901z" />
<glyph unicode="&#xa4;" horiz-adv-x="1208" d="M123 330l143 145q-63 101 -63 217q0 123 65 223l-145 146l117 117l145 -146q97 66 217 66q119 0 223 -66l144 146l116 -117l-145 -146q68 -106 68 -225q0 -114 -66 -215l143 -145l-116 -117l-144 145q-103 -65 -221 -65q-121 0 -221 65l-143 -145zM383 694 q0 -92 64.5 -156.5t156.5 -64.5t157.5 64.5t65.5 156.5t-65.5 158t-157.5 66t-156.5 -65.5t-64.5 -158.5z" />
<glyph unicode="&#xa5;" horiz-adv-x="1406" d="M57 1411h250l393 -563l400 563h252l-539 -760h361v-133h-365v-164h365v-133h-365v-221h-215v221h-363v133h363v164h-363v133h359z" />
<glyph unicode="&#xa6;" horiz-adv-x="491" d="M180 -246v793h131v-793h-131zM180 836v794h131v-794h-131z" />
<glyph unicode="&#xa7;" horiz-adv-x="1054" d="M125 664v340q0 180 118 291.5t289 111.5q134 0 243.5 -77t152.5 -212l-180 -51q-29 72 -87 112t-129 40q-92 0 -155.5 -59.5t-63.5 -155.5v-340q0 -97 64.5 -155t157.5 -58q54 0 110 20v-195q-55 -14 -113 -14q-111 0 -203 48.5t-148 141t-56 212.5zM127 27l180 53 q29 -73 86.5 -113.5t128.5 -40.5q92 0 155.5 59.5t63.5 155.5v340q0 97 -64 155t-157 58q-59 0 -108 -20v194q63 17 110 17q111 0 203.5 -49t148.5 -142t56 -213v-340q0 -120 -56 -213t-148.5 -141.5t-203.5 -48.5q-134 0 -243 77t-152 212z" />
<glyph unicode="&#xa8;" horiz-adv-x="1150" d="M246 1292q0 53 38 89t93 36q53 0 91 -36t38 -89t-38 -88t-91 -35q-55 0 -93 35t-38 88zM643 1292q0 53 38 89t93 36t93 -36t38 -89t-38 -88t-93 -35t-93 35t-38 88z" />
<glyph unicode="&#xa9;" horiz-adv-x="1624" d="M96 702q0 147 56 281t151.5 231.5t228 155t279.5 57.5t280 -57.5t228.5 -155t152 -231.5t56.5 -281q0 -196 -95.5 -362.5t-260.5 -263t-361 -96.5q-147 0 -279.5 57t-228 154t-151.5 230.5t-56 280.5zM221 702q0 -122 46 -232t124.5 -190t188 -127t231.5 -47t231.5 47 t188 127t124.5 190t46 232t-46 232.5t-124.5 190.5t-188.5 127.5t-231 47.5t-231 -47.5t-188.5 -127.5t-124.5 -190.5t-46 -232.5zM449 692q0 154 106.5 261.5t259.5 107.5q156 0 283 -139l-99 -97q-92 95 -184 95q-94 0 -158.5 -66.5t-64.5 -161.5t64.5 -162t158.5 -67 t189 98l98 -100q-61 -65 -135.5 -101t-151.5 -36q-153 0 -259.5 107.5t-106.5 260.5z" />
<glyph unicode="&#xaa;" horiz-adv-x="1103" d="M125 1085q0 177 111 288.5t268 111.5q81 0 154.5 -34t113.5 -97v112h174v-764h-174v115q-39 -63 -113.5 -97t-154.5 -34q-157 0 -268 111t-111 288zM164 424v143h760v-143h-760zM301 1087q0 -101 67.5 -170t163.5 -69q97 0 167.5 67.5t70.5 169.5t-71.5 168t-166.5 66 q-96 0 -163.5 -66.5t-67.5 -165.5z" />
<glyph unicode="&#xab;" horiz-adv-x="1005" d="M86 477l283 424h180l-283 -424l283 -424h-180zM451 477l282 424h180l-282 -424l282 -424h-180z" />
<glyph unicode="&#xac;" horiz-adv-x="1294" d="M139 551v188h1000v-501h-191v313h-809z" />
<glyph unicode="&#xad;" horiz-adv-x="983" d="M135 385v190h715v-190h-715z" />
<glyph unicode="&#xae;" horiz-adv-x="1624" d="M96 702q0 147 56 281t151.5 231.5t228 155t279.5 57.5t280 -57.5t228.5 -155t152 -231.5t56.5 -281q0 -196 -95.5 -362.5t-260.5 -263t-361 -96.5q-147 0 -279.5 57t-228 154t-151.5 230.5t-56 280.5zM221 702q0 -122 46 -232t124.5 -190t188 -127t231.5 -47t231.5 47 t188 127t124.5 190t46 232t-46 232.5t-124.5 190.5t-188.5 127.5t-231 47.5t-231 -47.5t-188.5 -127.5t-124.5 -190.5t-46 -232.5zM569 340v707h277q114 0 174.5 -64t60.5 -160q0 -97 -39.5 -151.5t-119.5 -73.5l182 -258h-156l-178 248h-61v-248h-140zM709 707h127 q53 0 80.5 32t27.5 74t-27.5 74.5t-78.5 32.5h-129v-213z" />
<glyph unicode="&#xaf;" horiz-adv-x="1015" d="M246 1202v166h524v-166h-524z" />
<glyph unicode="&#xb0;" horiz-adv-x="724" d="M92 1149q0 113 79 192.5t191 79.5q113 0 193 -80t80 -192t-80 -191t-193 -79q-112 0 -191 78.5t-79 191.5zM217 1149q0 -60 42.5 -102.5t102.5 -42.5t104 42.5t44 102.5t-44 103.5t-104 43.5t-102.5 -43.5t-42.5 -103.5z" />
<glyph unicode="&#xb1;" horiz-adv-x="1077" d="M123 0v174h829v-174h-829zM123 573v183h323v293h183v-293h323v-183h-323v-297h-183v297h-323z" />
<glyph unicode="&#xb2;" horiz-adv-x="659" d="M70 1593q20 106 85 167t175 61q109 0 175 -61.5t66 -162.5q0 -100 -75 -182l-185 -205h267v-143h-506l2 90l307 365q33 45 33 82q0 32 -27.5 53.5t-67.5 21.5q-87 0 -106 -108z" />
<glyph unicode="&#xb3;" horiz-adv-x="651" d="M53 1165l99 90q53 -59 133 -59q61 0 97 28t36 74q0 43 -33.5 71t-87.5 28h-70v110h33q60 0 93.5 29.5t31.5 71.5q-3 34 -32 54.5t-72 20.5q-39 0 -75.5 -17t-58.5 -44l-75 100q106 99 233 99q103 0 170.5 -56.5t67.5 -150.5q0 -44 -27.5 -82.5t-75.5 -63.5 q63 -24 100.5 -74t37.5 -116q0 -98 -79.5 -159.5t-203.5 -61.5q-163 0 -242 108z" />
<glyph unicode="&#xb4;" horiz-adv-x="1056" d="M264 1133l199 321h231l-248 -321h-182z" />
<glyph unicode="&#xb5;" horiz-adv-x="1189" d="M172 -324v1280h201v-546q0 -109 49 -169.5t135 -60.5q48 0 92.5 14.5t82.5 43.5t60.5 80.5t22.5 119.5v518h201v-956h-201v121q-37 -68 -114.5 -103.5t-155.5 -35.5q-120 0 -178 55v-361h-195z" />
<glyph unicode="&#xb6;" horiz-adv-x="1345" d="M72 967q0 185 129 314.5t315 129.5h156v-1524h-176v635q-176 11 -300 139.5t-124 305.5zM494 -227h204q49 0 73 31t24 77v1530h204q117 0 199 -82.5t82 -198.5v-174h-172v170q0 43 -26 75t-66 32h-45v-1339q0 -112 -64.5 -194.5t-173.5 -86.5h-239v160z" />
<glyph unicode="&#xb7;" horiz-adv-x="546" d="M133 514q0 58 40.5 96.5t98.5 38.5q59 0 101.5 -38.5t42.5 -96.5t-42.5 -96.5t-101.5 -38.5q-58 0 -98.5 38.5t-40.5 96.5z" />
<glyph unicode="&#xb8;" horiz-adv-x="1071" d="M328 -195h125q0 -45 25 -72.5t61 -27.5q35 0 55 22t20 58q0 22 -6 37l-90 244h121l84 -193q20 -42 20 -88q0 -91 -56.5 -148t-145.5 -57q-96 0 -154.5 61.5t-58.5 163.5z" />
<glyph unicode="&#xb9;" horiz-adv-x="501" d="M55 1548v142l318 131h16v-754h-153v551z" />
<glyph unicode="&#xba;" horiz-adv-x="1073" d="M129 1090q0 117 56.5 209t149 140t202.5 48q168 0 286.5 -110.5t118.5 -286.5q0 -178 -118.5 -290t-286.5 -112q-169 0 -288.5 112t-119.5 290zM158 424v143h760v-143h-760zM305 1090q0 -106 67 -173t165 -67q96 0 163.5 67t67.5 173q0 103 -67.5 168t-163.5 65 q-98 0 -165 -65t-67 -168z" />
<glyph unicode="&#xbb;" horiz-adv-x="1005" d="M92 53l283 424l-283 424h180l283 -424l-283 -424h-180zM457 53l282 424l-282 424h180l283 -424l-283 -424h-180z" />
<glyph unicode="&#xbc;" horiz-adv-x="1552" d="M55 1075v142l318 131h16v-752h-153v549zM145 -20l926 1392h143l-921 -1392h-148zM860 139v51l389 553h123v-473h121v-131h-121v-139h-158v139h-354zM1057 270h157v236z" />
<glyph unicode="&#xbd;" horiz-adv-x="1529" d="M55 1075v142l318 131h16v-752h-153v549zM145 -20l926 1392h143l-921 -1392h-148zM940 526q20 106 84.5 167t173.5 61q110 0 177 -62t67 -162q0 -99 -76 -182l-184 -207h266v-141h-506l2 90l305 365q35 41 35 82q0 32 -27 53.5t-67 21.5q-43 0 -70.5 -28.5t-36.5 -79.5z " />
<glyph unicode="&#xbe;" horiz-adv-x="1701" d="M53 692l99 90q53 -59 133 -59q61 0 97 28t36 74q0 44 -33.5 72.5t-87.5 28.5h-70v110h33q60 0 93.5 29.5t31.5 71.5q-3 32 -32 52.5t-72 20.5q-40 0 -76 -16.5t-58 -44.5l-75 100q102 99 233 99q102 0 170 -56t68 -149q0 -44 -27.5 -83.5t-75.5 -64.5q64 -24 101 -73 t37 -117q0 -96 -80 -157.5t-203 -61.5q-162 0 -242 106zM295 -20l926 1392h143l-922 -1392h-147zM1010 139v51l389 553h123v-473h120v-131h-120v-139h-158v139h-354zM1206 270h158v236z" />
<glyph unicode="&#xbf;" horiz-adv-x="956" d="M63 -80q0 143 83 244.5t210 142.5q73 24 107.5 54t34.5 94l2 80h186l2 -82q4 -128 -46.5 -196.5t-158.5 -109.5l-67 -24q-69 -26 -111.5 -78t-42.5 -121q0 -100 57.5 -156.5t149.5 -56.5t160.5 64t72.5 176h191q0 -129 -60 -228t-156 -149.5t-210 -50.5 q-173 0 -288.5 108.5t-115.5 288.5zM453 842q0 59 41 97t100 38q60 0 101.5 -38t41.5 -97q0 -58 -42 -96.5t-101 -38.5t-100 38.5t-41 96.5z" />
<glyph unicode="&#xc0;" horiz-adv-x="1294" d="M2 0l535 1411h225l532 -1411h-221l-133 356h-586l-131 -356h-221zM303 1874h234l196 -320h-182zM422 541h450l-225 608z" />
<glyph unicode="&#xc1;" horiz-adv-x="1294" d="M2 0l535 1411h225l532 -1411h-221l-133 356h-586l-131 -356h-221zM422 541h450l-225 608zM573 1554l199 320h232l-248 -320h-183z" />
<glyph unicode="&#xc2;" horiz-adv-x="1294" d="M2 0l535 1411h225l532 -1411h-221l-133 356h-586l-131 -356h-221zM319 1554l226 320h207l225 -320h-176l-154 179l-153 -179h-175zM422 541h450l-225 608z" />
<glyph unicode="&#xc3;" horiz-adv-x="1294" d="M2 0l535 1411h225l532 -1411h-221l-133 356h-586l-131 -356h-221zM375 1587q7 127 60 185.5t124 58.5q38 0 74 -21t63 -42t43 -21q21 0 39 19.5t19 64.5h129q-7 -126 -61.5 -182t-125.5 -56q-38 0 -72 21t-61 42t-47 21q-19 0 -36.5 -22t-18.5 -68h-129zM422 541h450 l-225 608z" />
<glyph unicode="&#xc4;" horiz-adv-x="1294" d="M2 0l535 1411h225l532 -1411h-221l-133 356h-586l-131 -356h-221zM319 1702q0 52 38.5 87.5t93.5 35.5q53 0 91 -35.5t38 -87.5q0 -53 -38 -89t-91 -36q-55 0 -93.5 36t-38.5 89zM422 541h450l-225 608zM717 1702q0 52 38.5 87.5t92.5 35.5t92.5 -35.5t38.5 -87.5 q0 -53 -38 -89t-93 -36t-93 36t-38 89z" />
<glyph unicode="&#xc5;" horiz-adv-x="1294" d="M2 0l535 1411h225l532 -1411h-221l-133 356h-586l-131 -356h-221zM422 541h450l-225 608zM426 1765q0 94 63.5 159t155.5 65q94 0 159.5 -65t65.5 -159q0 -92 -65.5 -155.5t-159.5 -63.5q-92 0 -155.5 63.5t-63.5 155.5zM537 1765q0 -44 32 -76t76 -32q47 0 81 32t34 76 q0 47 -34 80t-81 33q-44 0 -76 -33t-32 -80z" />
<glyph unicode="&#xc6;" horiz-adv-x="1875" d="M-41 0l815 1411h977v-192h-633v-428h553v-193h-553v-405h654v-193h-861v348h-512l-198 -348h-242zM514 545h397l-2 669h-12z" />
<glyph unicode="&#xc7;" horiz-adv-x="1419" d="M96 702q0 197 95.5 363t260.5 263t361 97q165 0 306.5 -67.5t236.5 -186.5l-156 -124q-68 86 -168.5 134t-216.5 48q-141 0 -258 -70.5t-183.5 -191.5t-66.5 -265q0 -143 66 -263.5t183 -191.5t259 -71q115 0 215.5 48.5t169.5 133.5l156 -125q-86 -108 -209.5 -173.5 t-269.5 -77.5l47 -109q20 -42 20 -88q0 -91 -57 -148t-146 -57q-96 0 -154.5 61.5t-58.5 163.5h125q0 -45 25 -72.5t61 -27.5q35 0 55.5 22t20.5 58q0 22 -6 37l-59 160q-136 12 -257.5 73.5t-208.5 156.5t-137.5 222.5t-50.5 267.5z" />
<glyph unicode="&#xc8;" horiz-adv-x="1159" d="M190 0v1411h846v-192h-637v-428h555v-195h-555v-403h656v-193h-865zM238 1874h233l197 -320h-183z" />
<glyph unicode="&#xc9;" horiz-adv-x="1159" d="M190 0v1411h846v-192h-637v-428h555v-195h-555v-403h656v-193h-865zM508 1554l199 320h231l-248 -320h-182z" />
<glyph unicode="&#xca;" horiz-adv-x="1159" d="M190 0v1411h846v-192h-637v-428h555v-195h-555v-403h656v-193h-865zM254 1554l225 320h207l225 -320h-176l-153 179l-154 -179h-174z" />
<glyph unicode="&#xcb;" horiz-adv-x="1159" d="M190 0v1411h846v-192h-637v-428h555v-195h-555v-403h656v-193h-865zM254 1702q0 52 38.5 87.5t92.5 35.5q53 0 91 -35.5t38 -87.5q0 -53 -38 -89t-91 -36q-55 0 -93 36t-38 89zM651 1702q0 52 38.5 87.5t92.5 35.5t92.5 -35.5t38.5 -87.5q0 -53 -38 -89t-93 -36t-93 36 t-38 89z" />
<glyph unicode="&#xcc;" horiz-adv-x="591" d="M-51 1874h233l197 -320h-182zM190 0v1411h211v-1411h-211z" />
<glyph unicode="&#xcd;" horiz-adv-x="591" d="M190 0v1411h211v-1411h-211zM219 1554l199 320h231l-248 -320h-182z" />
<glyph unicode="&#xce;" horiz-adv-x="591" d="M-35 1554l225 320h207l226 -320h-177l-153 179l-154 -179h-174zM190 0v1411h211v-1411h-211z" />
<glyph unicode="&#xcf;" horiz-adv-x="591" d="M-35 1702q0 52 38.5 87.5t92.5 35.5q53 0 91 -35.5t38 -87.5q0 -53 -38 -89t-91 -36q-55 0 -93 36t-38 89zM190 0v1411h211v-1411h-211zM362 1702q0 52 38.5 87.5t93.5 35.5q54 0 92.5 -35.5t38.5 -87.5q0 -53 -38 -89t-93 -36t-93.5 36t-38.5 89z" />
<glyph unicode="&#xd0;" horiz-adv-x="1490" d="M47 629v153h152v629h551q147 0 268 -54.5t201 -150t123.5 -225t43.5 -279.5q0 -201 -74.5 -359t-220 -250.5t-341.5 -92.5h-551v629h-152zM410 193h340q136 0 234 68t145 181.5t47 259.5t-47 261.5t-145 185.5t-234 70h-340v-437h323v-153h-323v-436z" />
<glyph unicode="&#xd1;" horiz-adv-x="1406" d="M190 0v1411h205l611 -1020v1020h211v-1411h-199l-617 1028v-1028h-211zM428 1587q7 127 60 185.5t124 58.5q38 0 74.5 -21t63.5 -42t43 -21q21 0 38.5 19.5t18.5 64.5h129q-7 -126 -61 -182t-125 -56q-38 0 -72 21t-61.5 42t-47.5 21q-19 0 -36.5 -22t-18.5 -68h-129z " />
<glyph unicode="&#xd2;" horiz-adv-x="1622" d="M96 702q0 198 94 364.5t258 263.5t361 97q198 0 363 -97t259.5 -263.5t94.5 -364.5q0 -147 -56 -280.5t-151 -230.5t-228.5 -154t-281.5 -57t-280.5 57t-227 154t-150 230.5t-55.5 280.5zM307 702q0 -143 65 -263.5t180.5 -191.5t256.5 -71q142 0 258.5 71t182 191.5 t65.5 263.5q0 144 -65.5 265t-182 192.5t-258.5 71.5q-141 0 -256.5 -71.5t-180.5 -192.5t-65 -265zM465 1874h233l197 -320h-182z" />
<glyph unicode="&#xd3;" horiz-adv-x="1622" d="M96 702q0 198 94 364.5t258 263.5t361 97q198 0 363 -97t259.5 -263.5t94.5 -364.5q0 -147 -56 -280.5t-151 -230.5t-228.5 -154t-281.5 -57t-280.5 57t-227 154t-150 230.5t-55.5 280.5zM307 702q0 -143 65 -263.5t180.5 -191.5t256.5 -71q142 0 258.5 71t182 191.5 t65.5 263.5q0 144 -65.5 265t-182 192.5t-258.5 71.5q-141 0 -256.5 -71.5t-180.5 -192.5t-65 -265zM735 1554l199 320h231l-247 -320h-183z" />
<glyph unicode="&#xd4;" horiz-adv-x="1622" d="M96 702q0 198 94 364.5t258 263.5t361 97q198 0 363 -97t259.5 -263.5t94.5 -364.5q0 -147 -56 -280.5t-151 -230.5t-228.5 -154t-281.5 -57t-280.5 57t-227 154t-150 230.5t-55.5 280.5zM307 702q0 -143 65 -263.5t180.5 -191.5t256.5 -71q142 0 258.5 71t182 191.5 t65.5 263.5q0 144 -65.5 265t-182 192.5t-258.5 71.5q-141 0 -256.5 -71.5t-180.5 -192.5t-65 -265zM481 1554l226 320h206l226 -320h-176l-154 179l-154 -179h-174z" />
<glyph unicode="&#xd5;" horiz-adv-x="1622" d="M96 702q0 198 94 364.5t258 263.5t361 97q198 0 363 -97t259.5 -263.5t94.5 -364.5q0 -147 -56 -280.5t-151 -230.5t-228.5 -154t-281.5 -57t-280.5 57t-227 154t-150 230.5t-55.5 280.5zM307 702q0 -143 65 -263.5t180.5 -191.5t256.5 -71q142 0 258.5 71t182 191.5 t65.5 263.5q0 144 -65.5 265t-182 192.5t-258.5 71.5q-141 0 -256.5 -71.5t-180.5 -192.5t-65 -265zM537 1587q7 127 60 185.5t124 58.5q38 0 74 -21t63 -42t43 -21q21 0 38.5 19.5t18.5 64.5h129q-7 -126 -61 -182t-125 -56q-38 0 -72 21t-61 42t-47 21q-19 0 -36.5 -22 t-18.5 -68h-129z" />
<glyph unicode="&#xd6;" horiz-adv-x="1622" d="M96 702q0 198 94 364.5t258 263.5t361 97q198 0 363 -97t259.5 -263.5t94.5 -364.5q0 -147 -56 -280.5t-151 -230.5t-228.5 -154t-281.5 -57t-280.5 57t-227 154t-150 230.5t-55.5 280.5zM307 702q0 -143 65 -263.5t180.5 -191.5t256.5 -71q142 0 258.5 71t182 191.5 t65.5 263.5q0 144 -65.5 265t-182 192.5t-258.5 71.5q-141 0 -256.5 -71.5t-180.5 -192.5t-65 -265zM481 1702q0 52 38.5 87.5t92.5 35.5q53 0 91 -35.5t38 -87.5q0 -53 -38 -89t-91 -36q-55 0 -93 36t-38 89zM879 1702q0 52 38.5 87.5t92.5 35.5t92.5 -35.5t38.5 -87.5 q0 -53 -38 -89t-93 -36t-93 36t-38 89z" />
<glyph unicode="&#xd7;" horiz-adv-x="985" d="M113 303l252 250l-252 252l129 127l252 -250l254 254l126 -131l-251 -252l251 -250l-126 -133l-254 254l-252 -250z" />
<glyph unicode="&#xd8;" horiz-adv-x="1632" d="M102 702q0 198 94 364.5t258 263.5t361 97q257 0 455 -161l164 168l96 -95l-164 -170q166 -200 166 -467q0 -147 -56 -280.5t-151 -230.5t-228.5 -154t-281.5 -57q-258 0 -450 159l-162 -166l-97 97l162 166q-166 203 -166 466zM313 702q0 -176 101 -317l714 735 q-133 111 -313 111q-141 0 -256.5 -71.5t-180.5 -192.5t-65 -265zM506 285q135 -109 309 -109q142 0 258.5 71t182 191.5t65.5 263.5q0 177 -100 320z" />
<glyph unicode="&#xd9;" horiz-adv-x="1388" d="M174 489v922h211v-919q0 -153 87.5 -231.5t221.5 -78.5t223 78.5t89 231.5v919h211v-922q0 -118 -42 -215.5t-114 -161t-166.5 -98t-200.5 -34.5q-142 0 -259 58.5t-189 176t-72 274.5zM348 1874h234l196 -320h-182z" />
<glyph unicode="&#xda;" horiz-adv-x="1388" d="M174 489v922h211v-919q0 -153 87.5 -231.5t221.5 -78.5t223 78.5t89 231.5v919h211v-922q0 -118 -42 -215.5t-114 -161t-166.5 -98t-200.5 -34.5q-142 0 -259 58.5t-189 176t-72 274.5zM618 1554l199 320h232l-248 -320h-183z" />
<glyph unicode="&#xdb;" horiz-adv-x="1388" d="M174 489v922h211v-919q0 -153 87.5 -231.5t221.5 -78.5t223 78.5t89 231.5v919h211v-922q0 -118 -42 -215.5t-114 -161t-166.5 -98t-200.5 -34.5q-142 0 -259 58.5t-189 176t-72 274.5zM365 1554l225 320h207l225 -320h-176l-154 179l-153 -179h-174z" />
<glyph unicode="&#xdc;" horiz-adv-x="1388" d="M174 489v922h211v-919q0 -153 87.5 -231.5t221.5 -78.5t223 78.5t89 231.5v919h211v-922q0 -118 -42 -215.5t-114 -161t-166.5 -98t-200.5 -34.5q-142 0 -259 58.5t-189 176t-72 274.5zM365 1702q0 52 38.5 87.5t92.5 35.5q53 0 91 -35.5t38 -87.5q0 -53 -38 -89t-91 -36 q-55 0 -93 36t-38 89zM762 1702q0 52 38.5 87.5t92.5 35.5t92.5 -35.5t38.5 -87.5q0 -53 -38 -89t-93 -36t-93 36t-38 89z" />
<glyph unicode="&#xdd;" horiz-adv-x="1302" d="M6 1411h250l393 -565l400 565h249l-542 -764v-647h-211v647zM573 1554l199 320h232l-248 -320h-183z" />
<glyph unicode="&#xde;" horiz-adv-x="1206" d="M190 0v1411h211v-262h281q188 0 313 -121t125 -317q0 -199 -125 -323t-313 -124h-281v-264h-211zM401 457h281q99 0 166 72t67 182q0 111 -71 178t-176 67h-267v-499z" />
<glyph unicode="&#xdf;" horiz-adv-x="1196" d="M150 0v1016q0 229 116 350t312 121q181 0 291 -96.5t110 -253.5q0 -92 -41.5 -170t-112.5 -121q128 -44 206.5 -152.5t78.5 -255.5q0 -203 -137 -330.5t-355 -127.5q-81 -4 -178 28l41 176q68 -20 142 -20q125 0 205.5 80t80.5 207q0 126 -86 205t-217 79h-76v170h56 q85 0 138.5 58.5t53.5 148.5q0 88 -53.5 136t-146.5 48q-105 0 -166.5 -68.5t-61.5 -211.5v-1016h-200z" />
<glyph unicode="&#xe0;" horiz-adv-x="1245" d="M90 479q0 112 37.5 206t102 157.5t150.5 99t183 35.5q106 0 196 -41.5t136 -120.5v141h201v-956h-201v143q-45 -78 -136.5 -120.5t-193.5 -42.5q-97 0 -184 36t-151.5 99.5t-102 158t-37.5 205.5zM274 1419h234l197 -319h-183zM291 481q0 -132 86.5 -221.5t210.5 -89.5 q126 0 215.5 85.5t89.5 225.5q0 92 -46 163.5t-114.5 106.5t-144.5 35q-125 0 -211 -86t-86 -219z" />
<glyph unicode="&#xe1;" horiz-adv-x="1245" d="M90 479q0 112 37.5 206t102 157.5t150.5 99t183 35.5q106 0 196 -41.5t136 -120.5v141h201v-956h-201v143q-45 -78 -136.5 -120.5t-193.5 -42.5q-97 0 -184 36t-151.5 99.5t-102 158t-37.5 205.5zM291 481q0 -132 86.5 -221.5t210.5 -89.5q126 0 215.5 85.5t89.5 225.5 q0 92 -46 163.5t-114.5 106.5t-144.5 35q-125 0 -211 -86t-86 -219zM545 1100l198 319h232l-248 -319h-182z" />
<glyph unicode="&#xe2;" horiz-adv-x="1245" d="M90 479q0 112 37.5 206t102 157.5t150.5 99t183 35.5q106 0 196 -41.5t136 -120.5v141h201v-956h-201v143q-45 -78 -136.5 -120.5t-193.5 -42.5q-97 0 -184 36t-151.5 99.5t-102 158t-37.5 205.5zM291 481q0 -132 86.5 -221.5t210.5 -89.5q126 0 215.5 85.5t89.5 225.5 q0 92 -46 163.5t-114.5 106.5t-144.5 35q-125 0 -211 -86t-86 -219zM291 1100l225 319h207l225 -319h-176l-154 178l-153 -178h-174z" />
<glyph unicode="&#xe3;" horiz-adv-x="1245" d="M90 479q0 112 37.5 206t102 157.5t150.5 99t183 35.5q106 0 196 -41.5t136 -120.5v141h201v-956h-201v143q-45 -78 -136.5 -120.5t-193.5 -42.5q-97 0 -184 36t-151.5 99.5t-102 158t-37.5 205.5zM291 481q0 -132 86.5 -221.5t210.5 -89.5q126 0 215.5 85.5t89.5 225.5 q0 92 -46 163.5t-114.5 106.5t-144.5 35q-125 0 -211 -86t-86 -219zM346 1133q7 127 60 185t124 58q38 0 74.5 -21t63.5 -42t43 -21q21 0 38.5 19.5t18.5 64.5h129q-7 -126 -61 -181.5t-125 -55.5q-38 0 -72 21t-61.5 42t-47.5 21q-19 0 -36.5 -22t-18.5 -68h-129z" />
<glyph unicode="&#xe4;" horiz-adv-x="1245" d="M90 479q0 112 37.5 206t102 157.5t150.5 99t183 35.5q106 0 196 -41.5t136 -120.5v141h201v-956h-201v143q-45 -78 -136.5 -120.5t-193.5 -42.5q-97 0 -184 36t-151.5 99.5t-102 158t-37.5 205.5zM291 481q0 -132 86.5 -221.5t210.5 -89.5q126 0 215.5 85.5t89.5 225.5 q0 92 -46 163.5t-114.5 106.5t-144.5 35q-125 0 -211 -86t-86 -219zM291 1247q0 52 38.5 87.5t92.5 35.5q53 0 91 -35.5t38 -87.5q0 -53 -38 -89t-91 -36q-55 0 -93 36t-38 89zM688 1247q0 52 38.5 87.5t92.5 35.5t92.5 -35.5t38.5 -87.5q0 -53 -38 -89t-93 -36t-93 36 t-38 89z" />
<glyph unicode="&#xe5;" horiz-adv-x="1245" d="M90 479q0 112 37.5 206t102 157.5t150.5 99t183 35.5q106 0 196 -41.5t136 -120.5v141h201v-956h-201v143q-45 -78 -136.5 -120.5t-193.5 -42.5q-97 0 -184 36t-151.5 99.5t-102 158t-37.5 205.5zM291 481q0 -132 86.5 -221.5t210.5 -89.5q126 0 215.5 85.5t89.5 225.5 q0 92 -46 163.5t-114.5 106.5t-144.5 35q-125 0 -211 -86t-86 -219zM397 1311q0 94 63.5 158.5t155.5 64.5q94 0 160 -65t66 -158q0 -92 -66 -155.5t-160 -63.5q-92 0 -155.5 63.5t-63.5 155.5zM508 1311q0 -44 32 -76.5t76 -32.5q47 0 81 32.5t34 76.5q0 47 -33.5 79.5 t-81.5 32.5q-45 0 -76.5 -32.5t-31.5 -79.5z" />
<glyph unicode="&#xe6;" horiz-adv-x="1820" d="M76 274q0 134 100.5 219t282.5 85q181 0 305 -70v63q0 103 -63 162.5t-177 59.5q-74 0 -150 -29.5t-126 -85.5l-123 117q51 71 129 114t143 55.5t133 12.5q255 0 363 -150q144 150 364 150q208 0 344 -136t136 -358q0 -24 -4 -86h-760q22 -106 103 -168.5t192 -62.5 q85 0 157 35t111 100l160 -80q-61 -117 -179.5 -179t-259.5 -62q-126 0 -231.5 52.5t-169.5 147.5q-88 -98 -196 -149t-224 -51q-160 0 -260 79.5t-100 214.5zM268 281q0 -55 46 -91t126 -36q84 0 185.5 49.5t150.5 124.5l-10 28q-63 36 -142 53t-143 17q-115 0 -164 -45 t-49 -100zM975 559h561q-15 111 -89.5 171.5t-186.5 60.5q-123 0 -194 -61.5t-91 -170.5z" />
<glyph unicode="&#xe7;" horiz-adv-x="1044" d="M88 479q0 147 71.5 262t188.5 175.5t256 60.5q115 0 212 -43.5t161 -120.5l-133 -125q-42 47 -103.5 73.5t-132.5 26.5q-135 0 -227 -87t-92 -222t92 -222t227 -87q71 0 132.5 26.5t103.5 73.5l133 -125q-103 -125 -277 -155l52 -117q20 -42 20 -88q0 -91 -57 -148 t-146 -57q-96 0 -154.5 61.5t-58.5 163.5h125q0 -45 25 -72.5t61 -27.5q35 0 55.5 22t20.5 58q0 22 -6 37l-59 160q-99 4 -188 41.5t-156 101t-106.5 155.5t-39.5 199z" />
<glyph unicode="&#xe8;" horiz-adv-x="1144" d="M88 481q0 148 67 262t179 174t248 60q208 0 343.5 -136t135.5 -358q0 -24 -4 -86h-762q20 -114 98.5 -172.5t198.5 -58.5q85 0 157 35t111 100l160 -80q-61 -117 -179 -179t-259 -62q-211 0 -352.5 139t-141.5 362zM223 1419h234l196 -319h-182zM297 559h563 q-13 110 -88 171t-188 61q-114 0 -190 -58.5t-97 -173.5z" />
<glyph unicode="&#xe9;" horiz-adv-x="1144" d="M88 481q0 148 67 262t179 174t248 60q208 0 343.5 -136t135.5 -358q0 -24 -4 -86h-762q20 -114 98.5 -172.5t198.5 -58.5q85 0 157 35t111 100l160 -80q-61 -117 -179 -179t-259 -62q-211 0 -352.5 139t-141.5 362zM297 559h563q-13 110 -88 171t-188 61 q-114 0 -190 -58.5t-97 -173.5zM494 1100l198 319h232l-248 -319h-182z" />
<glyph unicode="&#xea;" horiz-adv-x="1144" d="M88 481q0 148 67 262t179 174t248 60q208 0 343.5 -136t135.5 -358q0 -24 -4 -86h-762q20 -114 98.5 -172.5t198.5 -58.5q85 0 157 35t111 100l160 -80q-61 -117 -179 -179t-259 -62q-211 0 -352.5 139t-141.5 362zM240 1100l225 319h207l225 -319h-176l-154 178 l-153 -178h-174zM297 559h563q-13 110 -88 171t-188 61q-114 0 -190 -58.5t-97 -173.5z" />
<glyph unicode="&#xeb;" horiz-adv-x="1144" d="M88 481q0 148 67 262t179 174t248 60q208 0 343.5 -136t135.5 -358q0 -24 -4 -86h-762q20 -114 98.5 -172.5t198.5 -58.5q85 0 157 35t111 100l160 -80q-61 -117 -179 -179t-259 -62q-211 0 -352.5 139t-141.5 362zM240 1247q0 52 38.5 87.5t92.5 35.5q53 0 91 -35.5 t38 -87.5q0 -53 -38 -89t-91 -36q-55 0 -93 36t-38 89zM297 559h563q-13 110 -88 171t-188 61q-114 0 -190 -58.5t-97 -173.5zM637 1247q0 52 38.5 87.5t92.5 35.5t92.5 -35.5t38.5 -87.5q0 -53 -38 -89t-93 -36t-93 36t-38 89z" />
<glyph unicode="&#xec;" horiz-adv-x="501" d="M-96 1454h233l197 -321h-182zM150 0v956h200v-956h-200z" />
<glyph unicode="&#xed;" horiz-adv-x="501" d="M145 1133l199 321h231l-247 -321h-183zM150 0v956h200v-956h-200z" />
<glyph unicode="&#xee;" horiz-adv-x="501" d="M-78 1133l225 321h207l226 -321h-177l-153 180l-154 -180h-174zM150 0v956h200v-956h-200z" />
<glyph unicode="&#xef;" horiz-adv-x="501" d="M-78 1292q0 53 38 89t93 36q53 0 91 -36t38 -89t-38 -88t-91 -35q-55 0 -93 35t-38 88zM150 0v956h200v-956h-200zM319 1292q0 53 38.5 89t93.5 36t93 -36t38 -89t-38 -88t-93 -35t-93.5 35t-38.5 88z" />
<glyph unicode="&#xf0;" horiz-adv-x="1179" d="M88 481q0 109 40 202t108 155.5t159 97.5t193 35q35 0 53 -2l-147 196l-244 -98l-41 98l219 88l-164 222h228l108 -150l188 76l43 -98l-165 -68l319 -438q107 -133 107 -316q0 -147 -69.5 -263t-184 -177t-250.5 -61t-249.5 61t-182 177t-68.5 263zM289 481 q0 -135 87.5 -223t211.5 -88q126 0 213.5 88t87.5 223q0 134 -87.5 218.5t-213.5 84.5q-125 0 -212 -85t-87 -218z" />
<glyph unicode="&#xf1;" d="M150 0v956h200v-147q38 81 131 124.5t181 43.5q182 0 282.5 -113t99.5 -317v-547h-200v532q0 114 -61 180t-156 66q-50 0 -96.5 -14.5t-88.5 -44.5t-67 -84t-25 -125v-510h-200zM317 1133q7 127 60.5 185t124.5 58q38 0 74 -21t63 -42t43 -21q21 0 38.5 19.5t18.5 64.5 h129q-7 -126 -61 -181.5t-125 -55.5q-38 0 -72 21t-61 42t-47 21q-19 0 -37 -22t-19 -68h-129z" />
<glyph unicode="&#xf2;" d="M88 481q0 147 69 261.5t182.5 174.5t250.5 60t251 -60t183.5 -174.5t69.5 -261.5t-69.5 -263t-184 -177t-250.5 -61t-250 61t-183 177t-69 263zM246 1419h233l197 -319h-182zM289 481q0 -137 87.5 -224t213.5 -87t214.5 87.5t88.5 223.5q0 135 -88.5 221t-214.5 86 t-213.5 -86t-87.5 -221z" />
<glyph unicode="&#xf3;" d="M88 481q0 147 69 261.5t182.5 174.5t250.5 60t251 -60t183.5 -174.5t69.5 -261.5t-69.5 -263t-184 -177t-250.5 -61t-250 61t-183 177t-69 263zM289 481q0 -137 87.5 -224t213.5 -87t214.5 87.5t88.5 223.5q0 135 -88.5 221t-214.5 86t-213.5 -86t-87.5 -221zM516 1100 l199 319h231l-248 -319h-182z" />
<glyph unicode="&#xf4;" d="M88 481q0 147 69 261.5t182.5 174.5t250.5 60t251 -60t183.5 -174.5t69.5 -261.5t-69.5 -263t-184 -177t-250.5 -61t-250 61t-183 177t-69 263zM262 1100l225 319h207l226 -319h-177l-153 178l-154 -178h-174zM289 481q0 -137 87.5 -224t213.5 -87t214.5 87.5t88.5 223.5 q0 135 -88.5 221t-214.5 86t-213.5 -86t-87.5 -221z" />
<glyph unicode="&#xf5;" d="M88 481q0 147 69 261.5t182.5 174.5t250.5 60t251 -60t183.5 -174.5t69.5 -261.5t-69.5 -263t-184 -177t-250.5 -61t-250 61t-183 177t-69 263zM289 481q0 -137 87.5 -224t213.5 -87t214.5 87.5t88.5 223.5q0 135 -88.5 221t-214.5 86t-213.5 -86t-87.5 -221zM317 1133 q7 127 60.5 185t124.5 58q38 0 74 -21t63 -42t43 -21q21 0 38.5 19.5t18.5 64.5h129q-7 -126 -61 -181.5t-125 -55.5q-38 0 -72 21t-61 42t-47 21q-19 0 -37 -22t-19 -68h-129z" />
<glyph unicode="&#xf6;" d="M88 481q0 147 69 261.5t182.5 174.5t250.5 60t251 -60t183.5 -174.5t69.5 -261.5t-69.5 -263t-184 -177t-250.5 -61t-250 61t-183 177t-69 263zM262 1247q0 52 38.5 87.5t92.5 35.5q53 0 91 -35.5t38 -87.5q0 -53 -38 -89t-91 -36q-55 0 -93 36t-38 89zM289 481 q0 -137 87.5 -224t213.5 -87t214.5 87.5t88.5 223.5q0 135 -88.5 221t-214.5 86t-213.5 -86t-87.5 -221zM659 1247q0 52 38.5 87.5t93.5 35.5q54 0 92.5 -35.5t38.5 -87.5q0 -53 -38 -89t-93 -36t-93.5 36t-38.5 89z" />
<glyph unicode="&#xf7;" horiz-adv-x="1077" d="M104 438v176h869v-176h-869zM399 180q0 57 40.5 95t97.5 38q59 0 100 -37.5t41 -95.5q0 -57 -41 -95t-100 -38q-56 0 -97 38.5t-41 94.5zM399 877q0 57 40.5 95t97.5 38q59 0 100 -37.5t41 -95.5q0 -57 -41 -95.5t-100 -38.5q-56 0 -97 39t-41 95z" />
<glyph unicode="&#xf8;" horiz-adv-x="1187" d="M84 45l115 117q-109 135 -109 319q0 147 69.5 261.5t183.5 174.5t251 60q174 0 307 -94l100 102l97 -92l-101 -105q101 -128 101 -307q0 -147 -69.5 -263t-184 -177t-250.5 -61q-164 0 -297 90l-117 -119zM293 481q0 -95 47 -174l422 432q-77 49 -168 49 q-126 0 -213.5 -86t-87.5 -221zM436 213q72 -43 158 -43q126 0 213.5 87t87.5 224q0 91 -41 162z" />
<glyph unicode="&#xf9;" d="M137 410v546h201v-532q0 -114 61 -180t156 -66q50 0 96.5 14.5t88 44t66.5 83.5t25 124v512h201v-956h-201v145q-38 -80 -130 -122.5t-179 -42.5q-182 0 -284 113.5t-101 316.5zM246 1419h233l197 -319h-182z" />
<glyph unicode="&#xfa;" d="M137 410v546h201v-532q0 -114 61 -180t156 -66q50 0 96.5 14.5t88 44t66.5 83.5t25 124v512h201v-956h-201v145q-38 -80 -130 -122.5t-179 -42.5q-182 0 -284 113.5t-101 316.5zM516 1100l199 319h231l-248 -319h-182z" />
<glyph unicode="&#xfb;" d="M137 410v546h201v-532q0 -114 61 -180t156 -66q50 0 96.5 14.5t88 44t66.5 83.5t25 124v512h201v-956h-201v145q-38 -80 -130 -122.5t-179 -42.5q-182 0 -284 113.5t-101 316.5zM262 1100l225 319h207l226 -319h-177l-153 178l-154 -178h-174z" />
<glyph unicode="&#xfc;" d="M137 410v546h201v-532q0 -114 61 -180t156 -66q50 0 96.5 14.5t88 44t66.5 83.5t25 124v512h201v-956h-201v145q-38 -80 -130 -122.5t-179 -42.5q-182 0 -284 113.5t-101 316.5zM262 1247q0 52 38.5 87.5t92.5 35.5q53 0 91 -35.5t38 -87.5q0 -53 -38 -89t-91 -36 q-55 0 -93 36t-38 89zM659 1247q0 52 38.5 87.5t93.5 35.5q54 0 92.5 -35.5t38.5 -87.5q0 -53 -38 -89t-93 -36t-93.5 36t-38.5 89z" />
<glyph unicode="&#xfd;" horiz-adv-x="1032" d="M29 956h217l274 -665l275 665h217l-594 -1421h-213l205 506zM444 1100l199 319h231l-247 -319h-183z" />
<glyph unicode="&#xfe;" horiz-adv-x="1243" d="M150 -465v1940h200v-660q46 79 136 120.5t196 41.5q97 0 183.5 -35.5t151.5 -99t102.5 -157.5t37.5 -206q0 -111 -38 -205.5t-102.5 -158t-151.5 -99.5t-183 -36q-102 0 -194.5 42.5t-137.5 120.5v-608h-200zM352 481q0 -140 90 -225.5t215 -85.5t211 89t86 222 t-85.5 219t-211.5 86q-76 0 -144.5 -35t-114.5 -106.5t-46 -163.5z" />
<glyph unicode="&#xff;" horiz-adv-x="1032" d="M29 956h217l274 -665l275 665h217l-594 -1421h-213l205 506zM190 1247q0 52 38.5 87.5t93.5 35.5q53 0 91 -35.5t38 -87.5q0 -53 -38 -89t-91 -36q-55 0 -93.5 36t-38.5 89zM588 1247q0 52 38.5 87.5t92.5 35.5t92.5 -35.5t38.5 -87.5q0 -53 -38 -89t-93 -36t-93 36 t-38 89z" />
<glyph unicode="&#x152;" horiz-adv-x="2287" d="M96 702q0 198 94 364.5t258 263.5t361 97q150 0 281.5 -57.5t228.5 -161.5v203h846v-192h-637v-428h557v-195h-557v-403h657v-193h-866v199q-95 -104 -227 -161.5t-283 -57.5q-148 0 -280.5 57t-227 154t-150 230.5t-55.5 280.5zM307 702q0 -143 65 -263.5t180.5 -191.5 t256.5 -71q142 0 258.5 71t182 191.5t65.5 263.5q0 144 -65.5 265t-182 192.5t-258.5 71.5q-141 0 -256.5 -71.5t-180.5 -192.5t-65 -265z" />
<glyph unicode="&#x153;" horiz-adv-x="1949" d="M88 481q0 147 69 261.5t182.5 174.5t250.5 60q122 0 226.5 -48.5t174.5 -137.5q69 89 171.5 137.5t223.5 48.5q208 0 344 -136t136 -358q0 -24 -4 -86h-760q18 -113 96 -172t197 -59q87 0 159 35t111 100l160 -80q-61 -117 -179.5 -179t-259.5 -62q-122 0 -224.5 50 t-170.5 140q-71 -91 -175.5 -140.5t-225.5 -49.5q-136 0 -250 61t-183 177t-69 263zM289 481q0 -137 87.5 -224t213.5 -87t214.5 87.5t88.5 223.5q0 135 -88.5 221t-214.5 86t-213.5 -86t-87.5 -221zM1102 559h563q-15 110 -90 171t-186 61q-113 0 -189.5 -58.5 t-97.5 -173.5z" />
<glyph unicode="&#x178;" horiz-adv-x="1302" d="M6 1411h250l393 -565l400 565h249l-542 -764v-647h-211v647zM319 1702q0 52 38.5 87.5t93.5 35.5q53 0 91 -35.5t38 -87.5q0 -53 -38 -89t-91 -36q-55 0 -93.5 36t-38.5 89zM717 1702q0 52 38.5 87.5t92.5 35.5t92.5 -35.5t38.5 -87.5q0 -53 -38 -89t-93 -36t-93 36 t-38 89z" />
<glyph unicode="&#x2c6;" horiz-adv-x="1087" d="M215 1133l225 321h207l225 -321h-176l-153 180l-154 -180h-174z" />
<glyph unicode="&#x2dc;" horiz-adv-x="878" d="M164 1165q7 127 60 184.5t124 57.5q38 0 74 -21t63 -42t43 -21q21 0 39 19.5t19 64.5h129q-7 -125 -61.5 -180.5t-125.5 -55.5q-38 0 -72 21t-61 42t-47 21q-19 0 -36.5 -22t-18.5 -68h-129z" />
<glyph unicode="&#x2000;" horiz-adv-x="994" />
<glyph unicode="&#x2001;" horiz-adv-x="1989" />
<glyph unicode="&#x2002;" horiz-adv-x="994" />
<glyph unicode="&#x2003;" horiz-adv-x="1989" />
<glyph unicode="&#x2004;" horiz-adv-x="663" />
<glyph unicode="&#x2005;" horiz-adv-x="497" />
<glyph unicode="&#x2006;" horiz-adv-x="331" />
<glyph unicode="&#x2007;" horiz-adv-x="331" />
<glyph unicode="&#x2008;" horiz-adv-x="248" />
<glyph unicode="&#x2009;" horiz-adv-x="397" />
<glyph unicode="&#x200a;" horiz-adv-x="110" />
<glyph unicode="&#x2010;" horiz-adv-x="983" d="M135 385v190h715v-190h-715z" />
<glyph unicode="&#x2011;" horiz-adv-x="983" d="M135 385v190h715v-190h-715z" />
<glyph unicode="&#x2012;" horiz-adv-x="983" d="M135 385v190h715v-190h-715z" />
<glyph unicode="&#x2013;" horiz-adv-x="1226" d="M139 393v174h948v-174h-948z" />
<glyph unicode="&#x2014;" horiz-adv-x="1650" d="M139 393v174h1372v-174h-1372z" />
<glyph unicode="&#x2018;" horiz-adv-x="499" d="M115 885q-17 178 43.5 334t179.5 256l113 -45q-98 -137 -136.5 -255t-19.5 -290h-180z" />
<glyph unicode="&#x2019;" horiz-adv-x="495" d="M72 924q98 139 136 255.5t19 288.5h181q17 -177 -44 -333t-180 -254z" />
<glyph unicode="&#x201a;" horiz-adv-x="477" d="M-4 -254q97 136 135.5 253.5t20.5 289.5h180q17 -177 -43.5 -332.5t-179.5 -255.5z" />
<glyph unicode="&#x201c;" horiz-adv-x="808" d="M115 885q-17 178 43.5 334t179.5 256l113 -45q-98 -137 -136.5 -255t-19.5 -290h-180zM424 885q-17 179 44 334.5t181 255.5l111 -45q-97 -136 -135.5 -254t-20.5 -291h-180z" />
<glyph unicode="&#x201d;" horiz-adv-x="806" d="M72 924q98 139 136 255.5t19 288.5h181q17 -177 -44 -333t-180 -254zM383 924q65 93 99 162t51.5 166.5t5.5 215.5h180q15 -179 -45.5 -334.5t-179.5 -252.5z" />
<glyph unicode="&#x201e;" horiz-adv-x="786" d="M-4 -254q97 136 135.5 253.5t20.5 289.5h180q17 -177 -43.5 -332.5t-179.5 -255.5zM305 -254q98 137 136.5 254t19.5 289h182q15 -178 -45.5 -333t-179.5 -255z" />
<glyph unicode="&#x2022;" horiz-adv-x="919" d="M150 489q0 126 91 210.5t220 84.5q128 0 218.5 -84.5t90.5 -210.5q0 -127 -90.5 -211.5t-218.5 -84.5q-129 0 -220 84.5t-91 211.5z" />
<glyph unicode="&#x2026;" horiz-adv-x="1482" d="M113 117q0 57 41.5 95t99.5 38q60 0 101.5 -37.5t41.5 -95.5q0 -59 -42 -98t-101 -39q-58 0 -99.5 39t-41.5 98zM600 117q0 58 40.5 95.5t98.5 37.5q60 0 102 -38t42 -95q0 -59 -42 -98t-102 -39q-58 0 -98.5 39t-40.5 98zM1085 117q0 58 41.5 95.5t100.5 37.5 q60 0 101.5 -37.5t41.5 -95.5q0 -59 -42 -98t-101 -39t-100.5 39t-41.5 98z" />
<glyph unicode="&#x202f;" horiz-adv-x="397" />
<glyph unicode="&#x2039;" horiz-adv-x="641" d="M86 477l283 424h180l-283 -424l283 -424h-180z" />
<glyph unicode="&#x203a;" horiz-adv-x="641" d="M92 53l283 424l-283 424h180l283 -424l-283 -424h-180z" />
<glyph unicode="&#x205f;" horiz-adv-x="497" />
<glyph unicode="&#x20ac;" horiz-adv-x="1570" d="M78 500v114h962v-114h-532q49 -143 166.5 -234.5t271.5 -91.5q106 0 206.5 47.5t178.5 130.5l144 -131q-103 -112 -240.5 -175.5t-288.5 -63.5q-241 0 -418 144.5t-237 373.5h-213zM78 719v115h213q61 229 237.5 372.5t417.5 143.5q151 0 287.5 -62.5t239.5 -173.5 l-144 -133q-77 81 -177.5 128.5t-205.5 47.5q-154 0 -271.5 -90.5t-166.5 -232.5h532v-115h-962z" />
<glyph unicode="&#x2122;" horiz-adv-x="1935" d="M72 1253v158h639v-158h-232v-688h-180v688h-227zM778 565l107 846h149l256 -547l254 547h154l104 -846h-186l-57 508l-197 -411h-139l-199 407l-59 -504h-187z" />
<glyph unicode="&#x25fc;" horiz-adv-x="952" d="M0 0v952h952v-952h-952z" />
</font>
</defs>
</svg>
