<?xml version="1.0" encoding="UTF-8" standalone="no"?>
<svg
   xmlns:dc="http://purl.org/dc/elements/1.1/"
   xmlns:cc="http://creativecommons.org/ns#"
   xmlns:rdf="http://www.w3.org/1999/02/22-rdf-syntax-ns#"
   xmlns:svg="http://www.w3.org/2000/svg"
   xmlns="http://www.w3.org/2000/svg"
   viewBox="0 0 2083.2932 540"
   height="540"
   width="2083.2932"
   xml:space="preserve"
   id="svg2"
   version="1.1"><metadata
     id="metadata8"><rdf:RDF><cc:Work
         rdf:about=""><dc:format>image/svg+xml</dc:format><dc:type
           rdf:resource="http://purl.org/dc/dcmitype/StillImage" /></cc:Work></rdf:RDF></metadata><defs
     id="defs6" /><g
     transform="matrix(1.3333333,0,0,-1.3333333,0,540)"
     id="g10"><g
       transform="scale(0.1)"
       id="g12"><path
         id="path14"
         style="fill:#252323;fill-opacity:1;fill-rule:nonzero;stroke:none"
         d="m 1374.45,3362.81 c 0,379.55 -307.68,687.23 -687.227,687.23 C 307.68,4050.04 0,3742.36 0,3362.81 c 0,-379.54 307.68,-687.22 687.223,-687.22 379.547,0 687.227,307.68 687.227,687.22" /><path
         id="path16"
         style="fill:#ffffff;fill-opacity:1;fill-rule:nonzero;stroke:none"
         d="m 391.848,3140.53 h 590.754 v 444.58 H 391.848 Z m 618.472,-27.72 H 364.133 v 500 h 646.187 v -500" /><path
         id="path18"
         style="fill:#ffffff;fill-opacity:1;fill-rule:nonzero;stroke:none"
         d="M 996.461,3506.39 H 377.988 v 27.71 h 618.473 v -27.71" /><path
         id="path20"
         style="fill:#ffffff;fill-opacity:1;fill-rule:nonzero;stroke:none"
         d="m 601.242,3351.05 -65.457,65.45 65.457,65.47 19.594,-19.59 -45.859,-45.88 45.859,-45.86 -19.594,-19.59" /><path
         id="path22"
         style="fill:#ffffff;fill-opacity:1;fill-rule:nonzero;stroke:none"
         d="m 889.066,3307.07 v 27.72 c 15.77,0 28.594,12.83 28.594,28.59 v 10.67 c 0,15.77 -12.824,28.59 -28.594,28.59 H 560.434 v 27.72 h 328.632 c 31.051,0 56.313,-25.26 56.313,-56.31 v -10.67 c 0,-31.05 -25.262,-56.31 -56.313,-56.31" /><path
         id="path24"
         style="fill:#ffffff;fill-opacity:1;fill-rule:nonzero;stroke:none"
         d="m 773.211,3164.94 -19.598,19.6 45.86,45.87 -45.86,45.86 19.598,19.6 65.453,-65.46 -65.453,-65.47" /><path
         id="path26"
         style="fill:#ffffff;fill-opacity:1;fill-rule:nonzero;stroke:none"
         d="M 814.016,3216.55 H 485.379 c -31.047,0 -56.305,25.27 -56.305,56.31 v 10.68 c 0,31.04 25.258,56.3 56.305,56.3 v -27.71 c -15.766,0 -28.59,-12.83 -28.59,-28.59 v -10.68 c 0,-15.76 12.824,-28.59 28.59,-28.59 h 328.637 v -27.72" /><path
         id="path28"
         style="fill:#ffffff;fill-opacity:1;fill-rule:nonzero;stroke:none"
         d="m 434.215,3559.6 c 0,6.21 -5.035,11.25 -11.246,11.25 -6.211,0 -11.246,-5.04 -11.246,-11.25 0,-6.21 5.035,-11.24 11.246,-11.24 6.211,0 11.246,5.03 11.246,11.24" /><path
         id="path30"
         style="fill:#252323;fill-opacity:1;fill-rule:nonzero;stroke:none"
         d="m 3749.49,3362.81 c 0,379.55 -307.68,687.23 -687.22,687.23 -379.54,0 -687.23,-307.68 -687.23,-687.23 0,-379.54 307.69,-687.22 687.23,-687.22 379.54,0 687.22,307.68 687.22,687.22" /><path
         id="path32"
         style="fill:#ffffff;fill-opacity:1;fill-rule:nonzero;stroke:none"
         d="m 2851.25,3334.49 182.7,-182.7 242.3,242.31 8.41,171.92 c 0.28,5.51 -1.53,10.51 -5.11,14.08 -3.57,3.56 -8.72,5.61 -14.08,5.11 l -171.92,-8.41 z m 182.7,-221.69 -221.68,221.69 269.31,269.31 182.54,8.95 c 13.33,0.73 25.79,-4.04 34.93,-13.16 9.14,-9.14 13.81,-21.54 13.16,-34.92 l -8.95,-182.55 -269.31,-269.32" /><path
         id="path34"
         style="fill:#ffffff;fill-opacity:1;fill-rule:nonzero;stroke:none"
         d="m 3201.78,3520.23 c -4.78,0 -9.28,-1.85 -12.66,-5.25 -3.39,-3.38 -5.25,-7.87 -5.25,-12.67 0,-4.77 1.86,-9.27 5.25,-12.65 6.98,-6.98 18.34,-6.96 25.32,0 6.98,6.99 6.98,18.34 0,25.32 -3.38,3.4 -7.88,5.25 -12.66,5.25 z m 0,-63.37 c -11.65,0 -23.29,4.45 -32.16,13.3 -8.58,8.6 -13.32,20.02 -13.32,32.15 0,12.16 4.74,23.58 13.32,32.16 17.19,17.18 47.14,17.17 64.32,0 17.73,-17.72 17.73,-46.57 0,-64.31 v 0 c -8.87,-8.85 -20.51,-13.3 -32.16,-13.3" /><path
         id="path36"
         style="fill:#252323;fill-opacity:1;fill-rule:nonzero;stroke:none"
         d="m 6124.54,3362.81 c 0,379.55 -307.68,687.23 -687.23,687.23 -379.55,0 -687.23,-307.68 -687.23,-687.23 0,-379.54 307.68,-687.22 687.23,-687.22 379.55,0 687.23,307.68 687.23,687.22" /><path
         id="path38"
         style="fill:#ffffff;fill-opacity:1;fill-rule:nonzero;stroke:none"
         d="m 5437.31,3584.25 c -67.8,0 -122.96,-55.17 -122.96,-122.97 0,-67.8 55.16,-122.96 122.96,-122.96 67.8,0 122.96,55.16 122.96,122.96 0,67.8 -55.16,122.97 -122.96,122.97 z m 0,-274.5 c -83.56,0 -151.53,67.98 -151.53,151.53 0,83.55 67.97,151.53 151.53,151.53 83.56,0 151.53,-67.98 151.53,-151.53 0,-83.55 -67.97,-151.53 -151.53,-151.53" /><path
         id="path40"
         style="fill:#ffffff;fill-opacity:1;fill-rule:nonzero;stroke:none"
         d="m 5662.82,3112.81 h -28.57 c 0,108.6 -88.35,196.94 -196.94,196.94 -108.59,0 -196.94,-88.34 -196.94,-196.94 h -28.57 c 0,124.35 101.16,225.51 225.51,225.51 124.35,0 225.51,-101.16 225.51,-225.51" /><path
         id="path42"
         style="fill:#252323;fill-opacity:1;fill-rule:nonzero;stroke:none"
         d="m 8499.58,3362.81 c 0,379.55 -307.68,687.23 -687.23,687.23 -379.54,0 -687.22,-307.68 -687.22,-687.23 0,-379.54 307.68,-687.22 687.22,-687.22 379.55,0 687.23,307.68 687.23,687.22" /><path
         id="path44"
         style="fill:#ffffff;fill-opacity:1;fill-rule:nonzero;stroke:none"
         d="m 7651.43,3140.59 h 321.85 v 315.58 h -321.85 z m 349.63,-27.78 h -377.41 v 371.14 h 377.41 v -371.14" /><path
         id="path46"
         style="fill:#ffffff;fill-opacity:1;fill-rule:nonzero;stroke:none"
         d="m 7926.3,3421.84 h -27.78 v 77.03 c 0,47.52 -38.66,86.17 -86.17,86.17 -47.51,0 -86.16,-38.65 -86.16,-86.17 v -77.03 h -27.78 v 77.03 c 0,62.83 51.11,113.94 113.94,113.94 62.84,0 113.95,-51.11 113.95,-113.94 v -77.03" /><path
         id="path48"
         style="fill:#252323;fill-opacity:1;fill-rule:nonzero;stroke:none"
         d="m 10874.6,3362.81 c 0,379.55 -307.7,687.23 -687.2,687.23 -379.55,0 -687.23,-307.68 -687.23,-687.23 0,-379.54 307.68,-687.22 687.23,-687.22 379.5,0 687.2,307.68 687.2,687.22" /><path
         id="path50"
         style="fill:#ffffff;fill-opacity:1;fill-rule:nonzero;stroke:none"
         d="m 9960.23,3094.43 h -28.66 v 97.13 h 28.66 v -97.13" /><path
         id="path52"
         style="fill:#ffffff;fill-opacity:1;fill-rule:nonzero;stroke:none"
         d="m 10045.4,3094.43 h -28.6 v 159.45 h 28.6 v -159.45" /><path
         id="path54"
         style="fill:#ffffff;fill-opacity:1;fill-rule:nonzero;stroke:none"
         d="m 10130.6,3094.43 h -28.7 v 221.67 h 28.7 v -221.67" /><path
         id="path56"
         style="fill:#ffffff;fill-opacity:1;fill-rule:nonzero;stroke:none"
         d="m 10215.8,3094.43 h -28.7 v 159.45 h 28.7 v -159.45" /><path
         id="path58"
         style="fill:#ffffff;fill-opacity:1;fill-rule:nonzero;stroke:none"
         d="m 10301,3094.43 h -28.7 v 255.87 h 28.7 v -255.87" /><path
         id="path60"
         style="fill:#ffffff;fill-opacity:1;fill-rule:nonzero;stroke:none"
         d="m 10386.1,3094.43 h -28.6 v 343.97 h 28.6 v -343.97" /><path
         id="path62"
         style="fill:#ffffff;fill-opacity:1;fill-rule:nonzero;stroke:none"
         d="m 9950.03,3243.77 -20.33,20.21 186.8,187.82 81.6,-85.97 222.5,224.37 20.3,-20.19 -243.3,-245.36 -81.6,86 -165.97,-166.88" /><path
         id="path64"
         style="fill:#ffffff;fill-opacity:1;fill-rule:nonzero;stroke:none"
         d="m 10445.1,3495.44 h -28.7 v 70.33 h -70.3 v 28.66 h 99 v -98.99" /><path
         id="path66"
         style="fill:#252323;fill-opacity:1;fill-rule:nonzero;stroke:none"
         d="m 1374.45,797.18 c 0,379.54 -307.68,687.22 -687.227,687.22 C 307.68,1484.4 0,1176.72 0,797.18 0,417.641 307.68,109.949 687.223,109.949 c 379.547,0 687.227,307.692 687.227,687.231" /><path
         id="path68"
         style="fill:#ffffff;fill-opacity:1;fill-rule:nonzero;stroke:none"
         d="m 585.434,838.648 101.789,-58.777 101.793,58.777 V 956.191 L 687.223,1014.95 585.434,956.191 Z m 101.789,-91 -129.703,74.891 V 972.301 L 687.223,1047.18 816.93,972.301 V 822.539 L 687.223,747.648" /><path
         id="path70"
         style="fill:#ffffff;fill-opacity:1;fill-rule:nonzero;stroke:none"
         d="M 469.684,638.16 571.477,579.398 673.266,638.16 V 755.699 L 571.477,814.48 469.684,755.699 Z M 571.477,547.18 441.77,622.051 v 149.758 l 129.707,74.89 129.707,-74.89 V 622.051 L 571.477,547.18" /><path
         id="path72"
         style="fill:#ffffff;fill-opacity:1;fill-rule:nonzero;stroke:none"
         d="M 701.184,638.16 802.973,579.398 904.766,638.16 V 755.699 L 802.973,814.48 701.184,755.699 Z m 101.789,-90.98 -129.707,74.871 v 149.758 l 129.707,74.89 129.707,-74.89 V 622.051 L 802.973,547.18" /><path
         id="path74"
         style="fill:#ffffff;fill-opacity:1;fill-rule:nonzero;stroke:none"
         d="m 701.184,763.762 h -27.918 v 133.66 h 27.918 v -133.66" /><path
         id="path76"
         style="fill:#ffffff;fill-opacity:1;fill-rule:nonzero;stroke:none"
         d="m 694.203,885.332 -13.957,24.18 115.75,66.828 13.957,-24.18 -115.75,-66.828" /><path
         id="path78"
         style="fill:#ffffff;fill-opacity:1;fill-rule:nonzero;stroke:none"
         d="m 680.246,885.332 -115.75,66.828 13.957,24.18 115.75,-66.828 -13.957,-24.18" /><path
         id="path80"
         style="fill:#ffffff;fill-opacity:1;fill-rule:nonzero;stroke:none"
         d="M 585.434,563.289 H 557.52 V 696.93 h 27.914 V 563.289" /><path
         id="path82"
         style="fill:#ffffff;fill-opacity:1;fill-rule:nonzero;stroke:none"
         d="m 578.453,684.84 -13.957,24.18 115.75,66.832 13.957,-24.18 -115.75,-66.832" /><path
         id="path84"
         style="fill:#ffffff;fill-opacity:1;fill-rule:nonzero;stroke:none"
         d="m 564.496,684.84 -115.746,66.832 13.957,24.18 115.746,-66.832 -13.957,-24.18" /><path
         id="path86"
         style="fill:#ffffff;fill-opacity:1;fill-rule:nonzero;stroke:none"
         d="M 816.93,563.289 H 789.016 V 696.93 H 816.93 V 563.289" /><path
         id="path88"
         style="fill:#ffffff;fill-opacity:1;fill-rule:nonzero;stroke:none"
         d="m 809.953,684.84 -13.957,24.18 115.746,66.832 13.957,-24.18 -115.746,-66.832" /><path
         id="path90"
         style="fill:#ffffff;fill-opacity:1;fill-rule:nonzero;stroke:none"
         d="m 795.996,684.84 -115.75,66.832 13.957,24.18 115.75,-66.832 -13.957,-24.18" /><path
         id="path92"
         style="fill:#252323;fill-opacity:1;fill-rule:nonzero;stroke:none"
         d="m 3748.36,687.23 c 0,379.54 -307.69,687.21 -687.23,687.21 -379.54,0 -687.22,-307.67 -687.22,-687.21 C 2373.91,307.672 2681.59,0 3061.13,0 c 379.54,0 687.23,307.672 687.23,687.23" /><path
         id="path94"
         style="fill:#ffffff;fill-opacity:1;fill-rule:nonzero;stroke:none"
         d="m 3272.39,561.32 h -17.98 v 27.93 h 17.98 c 13.83,0 25.52,11.672 25.52,25.488 v 269.063 c 0,14.051 -11.45,25.5 -25.52,25.5 h -422.53 c -14.06,0 -25.5,-11.449 -25.5,-25.5 V 614.738 c 0,-14.058 11.44,-25.488 25.5,-25.488 h 221.42 v -27.93 h -221.42 c -29.46,0 -53.43,23.969 -53.43,53.418 v 269.063 c 0,29.449 23.97,53.429 53.43,53.429 h 422.53 c 29.47,0 53.44,-23.98 53.44,-53.429 V 614.738 c 0,-29.449 -23.97,-53.418 -53.44,-53.418" /><path
         id="path96"
         style="fill:#ffffff;fill-opacity:1;fill-rule:nonzero;stroke:none"
         d="m 2910.73,621.879 h -44.63 v 27.93 h 44.63 v -27.93" /><path
         id="path98"
         style="fill:#ffffff;fill-opacity:1;fill-rule:nonzero;stroke:none"
         d="m 3020.51,621.879 h -55.49 v 27.93 h 55.49 v -27.93" /><path
         id="path100"
         style="fill:#ffffff;fill-opacity:1;fill-rule:nonzero;stroke:none"
         d="m 2824.36,790.191 h 473.55 V 826.5 h -473.55 z m 501.47,-27.929 h -529.4 v 92.16 h 529.4 v -92.16" /><path
         id="path102"
         style="fill:#ffffff;fill-opacity:1;fill-rule:nonzero;stroke:none"
         d="M 3091.03,608.98 V 496.73 c 0,-17.421 14.17,-31.589 31.58,-31.589 h 84.87 c 17.41,0 31.58,14.168 31.58,31.589 v 112.551 z m 116.45,-171.75 h -84.87 c -32.81,0 -59.51,26.68 -59.51,59.5 v 112.551 c 0,15.239 12.4,27.629 27.63,27.629 h 148.63 c 15.23,0 27.63,-12.39 27.63,-27.629 V 496.73 c 0,-32.82 -26.7,-59.5 -59.51,-59.5" /><path
         id="path104"
         style="fill:#ffffff;fill-opacity:1;fill-rule:nonzero;stroke:none"
         d="m 3237.53,625.199 h -27.92 v 41.821 c 0,19.402 -15.79,35.199 -35.2,35.199 h -18.74 c -19.4,0 -35.2,-15.797 -35.2,-35.199 v -41.821 h -27.92 v 41.821 c 0,34.789 28.32,63.121 63.12,63.121 h 18.74 c 34.8,0 63.12,-28.332 63.12,-63.121 z m -72.49,-68.16 c -0.83,0 -1.5,-0.668 -1.5,-1.5 0,-1.66 3,-1.66 3,0 0,0.852 -0.66,1.5 -1.5,1.5 z M 3179,507.512 h -27.93 v 25.609 c -7.47,4.66 -12.46,12.961 -12.46,22.418 0,14.582 11.86,26.422 26.43,26.422 14.57,0 26.43,-11.84 26.43,-26.422 0,-9.457 -4.99,-17.769 -12.47,-22.437 v -25.59" /><path
         id="path106"
         style="fill:#252323;fill-opacity:1;fill-rule:nonzero;stroke:none"
         d="m 6122.27,687.23 c 0,379.54 -307.68,687.21 -687.23,687.21 -379.54,0 -687.23,-307.67 -687.23,-687.21 C 4747.81,307.672 5055.5,0 5435.04,0 c 379.55,0 687.23,307.672 687.23,687.23" /><path
         id="path108"
         style="fill:#ffffff;fill-opacity:1;fill-rule:nonzero;stroke:none"
         d="m 5638.03,711.691 c -1.49,11.969 -4.12,23.918 -7.8,35.5 -3.62,11.309 -8.31,22.411 -13.92,32.93 -5.54,10.399 -12.08,20.399 -19.41,29.688 -7.32,9.273 -15.5,17.921 -24.33,25.75 -8.86,7.871 -18.48,14.972 -28.58,21.101 -10.3,6.25 -21.17,11.559 -32.3,15.801 -11.41,4.34 -23.32,7.648 -35.41,9.809 l 5,27.789 c 13.8,-2.477 27.41,-6.258 40.44,-11.219 12.73,-4.84 25.15,-10.899 36.91,-18.059 11.55,-7 22.55,-15.121 32.67,-24.101 10.07,-8.918 19.4,-18.801 27.76,-29.379 8.38,-10.621 15.82,-22.02 22.16,-33.903 6.41,-12.007 11.75,-24.679 15.89,-37.628 4.22,-13.239 7.23,-26.891 8.93,-40.622 l -28.01,-3.457" /><path
         id="path110"
         style="fill:#ffffff;fill-opacity:1;fill-rule:nonzero;stroke:none"
         d="m 5388.93,464.398 c -13.8,2.481 -27.41,6.25 -40.45,11.211 -12.81,4.891 -25.22,10.961 -36.91,18.063 -11.54,7.019 -22.53,15.129 -32.67,24.117 -10.06,8.91 -19.41,18.801 -27.75,29.391 -8.36,10.57 -15.82,21.968 -22.17,33.871 -6.4,12.019 -11.75,24.691 -15.88,37.66 -4.22,13.199 -7.22,26.859 -8.93,40.598 l 28.01,3.472 c 1.49,-12 4.12,-23.949 7.81,-35.5 3.61,-11.34 8.29,-22.429 13.9,-32.941 5.56,-10.442 12.09,-20.418 19.41,-29.668 7.32,-9.293 15.5,-17.942 24.31,-25.75 8.89,-7.891 18.52,-15 28.63,-21.133 10.22,-6.207 21.08,-11.519 32.29,-15.789 11.39,-4.352 23.3,-7.66 35.39,-9.809 l -4.99,-27.793" /><path
         id="path112"
         style="fill:#ffffff;fill-opacity:1;fill-rule:nonzero;stroke:none"
         d="m 5361.49,437.23 -16.02,23.231 34.45,23.73 -23.71,34.43 23.24,16.02 39.73,-57.7 -57.69,-39.711" /><path
         id="path114"
         style="fill:#ffffff;fill-opacity:1;fill-rule:nonzero;stroke:none"
         d="m 5490.91,839.801 -39.73,57.719 57.69,39.71 16,-23.25 -34.44,-23.718 23.73,-34.442 -23.25,-16.019" /><path
         id="path116"
         style="fill:#ffffff;fill-opacity:1;fill-rule:nonzero;stroke:none"
         d="m 5332.49,896.801 c -58.42,0 -105.95,-47.52 -105.95,-105.93 0,-58.43 47.53,-105.949 105.95,-105.949 58.4,0 105.93,47.519 105.93,105.949 0,58.41 -47.53,105.93 -105.93,105.93 z m 0,-240.11 c -73.98,0 -134.17,60.188 -134.17,134.18 0,73.961 60.19,134.16 134.17,134.16 73.97,0 134.15,-60.199 134.15,-134.16 0,-73.992 -60.18,-134.18 -134.15,-134.18" /><path
         id="path118"
         style="fill:#ffffff;fill-opacity:1;fill-rule:nonzero;stroke:none"
         d="m 5359.45,796.941 h -92.55 v 28.219 h 92.55 v -28.219" /><path
         id="path120"
         style="fill:#ffffff;fill-opacity:1;fill-rule:nonzero;stroke:none"
         d="m 5352.86,756.121 h -92.54 v 28.219 h 92.54 v -28.219" /><path
         id="path122"
         style="fill:#ffffff;fill-opacity:1;fill-rule:nonzero;stroke:none"
         d="m 5343.46,712.289 c -9.37,0 -18.43,2.231 -26.94,6.641 -8.01,4.148 -15.12,10.011 -21.16,17.429 -5.88,7.211 -10.48,15.551 -13.67,24.801 -3.26,9.449 -4.91,19.43 -4.91,29.711 0,10.25 1.65,20.238 4.9,29.668 3.18,9.231 7.77,17.57 13.66,24.813 6.09,7.437 13.2,13.296 21.15,17.429 17.07,8.821 36.89,8.821 53.92,0 7.98,-4.133 15.09,-9.992 21.15,-17.41 l -21.86,-17.859 c -3.62,4.418 -7.75,7.859 -12.28,10.207 -8.89,4.613 -19,4.613 -27.93,0 -4.52,-2.348 -8.66,-5.789 -12.27,-10.207 -3.78,-4.633 -6.76,-10.071 -8.86,-16.16 -2.22,-6.473 -3.35,-13.36 -3.35,-20.481 0,-7.133 1.13,-14.031 3.36,-20.5 2.11,-6.101 5.1,-11.551 8.87,-16.191 3.59,-4.399 7.71,-7.828 12.27,-10.192 8.89,-4.609 19,-4.609 27.93,0 4.52,2.364 8.65,5.793 12.25,10.203 l 21.87,-17.832 c -6.03,-7.418 -13.15,-13.281 -21.13,-17.429 -8.53,-4.41 -17.6,-6.641 -26.97,-6.641" /><path
         id="path124"
         style="fill:#ffffff;fill-opacity:1;fill-rule:nonzero;stroke:none"
         d="m 5551.84,639.699 h -28.23 v 25.75 h 28.23 v -25.75" /><path
         id="path126"
         style="fill:#ffffff;fill-opacity:1;fill-rule:nonzero;stroke:none"
         d="m 5551.84,501.699 h -28.23 v 25.731 h 28.23 v -25.731" /><path
         id="path128"
         style="fill:#ffffff;fill-opacity:1;fill-rule:nonzero;stroke:none"
         d="m 5537.73,689.371 c -58.34,0 -105.8,-47.473 -105.8,-105.812 0,-58.34 47.46,-105.789 105.8,-105.789 58.34,0 105.81,47.449 105.81,105.789 0,58.339 -47.47,105.812 -105.81,105.812 z m 0,-239.832 c -73.91,0 -134.02,60.121 -134.02,134.02 0,73.902 60.11,134.043 134.02,134.043 73.91,0 134.03,-60.141 134.03,-134.043 0,-73.899 -60.12,-134.02 -134.03,-134.02" /><path
         id="path130"
         style="fill:#ffffff;fill-opacity:1;fill-rule:nonzero;stroke:none"
         d="m 5542.82,517.391 c -3.29,0 -6.67,0.199 -10.12,0.578 -11.53,1.32 -22.39,4.941 -33.9,8.773 l -2.17,0.707 8.9,26.801 2.2,-0.738 c 10.49,-3.492 19.55,-6.512 28.13,-7.481 16.58,-2.011 26.08,2.821 29.21,7.41 1.46,2.137 1.62,4.239 0.49,6.36 -2.37,4.469 -10.91,9.648 -27.2,9.648 -0.2,0.012 -0.39,0 -0.57,0 -25.32,0 -44.59,8.949 -52.89,24.571 -5.98,11.281 -5.18,24.46 2.16,35.25 10.38,15.25 31.45,22.679 56.27,19.902 11.6,-1.301 22.56,-4.953 34.17,-8.82 l 1.99,-0.661 -8.91,-26.8 -2.01,0.668 c -10.59,3.543 -19.74,6.582 -28.38,7.543 -16.84,1.898 -26.56,-2.973 -29.79,-7.711 -2.15,-3.161 -0.96,-5.391 -0.56,-6.141 2.35,-4.418 11.08,-9.578 27.94,-9.578 0.19,0.019 0.37,0.019 0.58,0 24.82,0 43.81,-8.973 52.12,-24.621 6.06,-11.41 5.28,-24.672 -2.08,-35.492 -8.8,-12.938 -25.43,-20.168 -45.58,-20.168" /><path
         id="path132"
         style="fill:#252323;fill-opacity:1;fill-rule:nonzero;stroke:none"
         d="m 8496.17,687.23 c 0,379.54 -307.68,687.21 -687.22,687.21 -379.55,0 -687.23,-307.67 -687.23,-687.21 C 7121.72,307.672 7429.4,0 7808.95,0 c 379.54,0 687.22,307.672 687.22,687.23" /><path
         id="path134"
         style="fill:#ffffff;fill-opacity:1;fill-rule:nonzero;stroke:none"
         d="m 7617.65,909.602 c -2.44,0 -4.13,-1.172 -4.96,-1.93 -0.92,-0.832 -2.46,-2.641 -2.46,-5.543 v -171.5 c 0,-156.09 111.67,-224.168 195.65,-261.797 l 3.07,-1.371 3.05,1.379 c 83.99,37.621 195.66,105.699 195.66,261.789 v 171.5 c 0,2.902 -1.53,4.711 -2.45,5.543 -0.92,0.848 -2.94,2.289 -5.78,1.867 -36.06,-3.738 -108.77,-10.039 -190.48,-10.039 -81.72,0 -154.42,6.301 -190.49,10.039 v 0 c -0.28,0.051 -0.55,0.063 -0.81,0.063 z m 191.3,-472.372 -14.34,6.399 c -91,40.781 -211.98,114.883 -211.98,287 v 171.5 c 0,9.922 4.22,19.41 11.56,26.043 7.36,6.617 17.2,9.906 27.1,8.84 l 0.01,-0.02 c 35.54,-3.691 107.17,-9.883 187.65,-9.883 80.47,0 152.1,6.192 187.64,9.883 9.9,1.156 19.76,-2.203 27.11,-8.82 7.35,-6.633 11.56,-16.121 11.56,-26.043 v -171.5 c 0,-172.117 -120.97,-246.219 -211.98,-286.981 l -14.33,-6.418" /><path
         id="path136"
         style="fill:#ffffff;fill-opacity:1;fill-rule:nonzero;stroke:none"
         d="m 7768.02,610.441 -86.4,93.559 20.28,18.738 65.36,-70.789 148.4,172.871 20.94,-17.98 -168.58,-196.399" /><path
         id="path138"
         style="fill:#252323;fill-opacity:1;fill-rule:nonzero;stroke:none"
         d="m 10870.1,687.23 c 0,379.54 -307.7,687.21 -687.2,687.21 -379.59,0 -687.27,-307.67 -687.27,-687.21 C 9495.63,307.672 9803.31,0 10182.9,0 c 379.5,0 687.2,307.672 687.2,687.23" /><path
         id="path140"
         style="fill:#ffffff;fill-opacity:1;fill-rule:nonzero;stroke:none"
         d="m 10147.3,532.391 c -18.5,0 -33.6,-15.082 -33.6,-33.602 0,-18.527 15.1,-33.609 33.6,-33.609 18.6,0 33.6,15.082 33.6,33.609 0,18.52 -15,33.602 -33.6,33.602 z m 0,-95.161 c -33.9,0 -61.5,27.61 -61.5,61.559 0,33.941 27.6,61.57 61.5,61.57 34,0 61.6,-27.629 61.6,-61.57 0,-33.949 -27.6,-61.559 -61.6,-61.559" /><path
         id="path142"
         style="fill:#ffffff;fill-opacity:1;fill-rule:nonzero;stroke:none"
         d="m 10330.4,532.391 c -18.5,0 -33.6,-15.082 -33.6,-33.602 0,-18.527 15.1,-33.609 33.6,-33.609 18.6,0 33.6,15.082 33.6,33.609 0,18.52 -15,33.602 -33.6,33.602 z m 0,-95.161 c -33.9,0 -61.5,27.61 -61.5,61.559 0,33.941 27.6,61.57 61.5,61.57 34,0 61.6,-27.629 61.6,-61.57 0,-33.949 -27.6,-61.559 -61.6,-61.559" /><path
         id="path144"
         style="fill:#ffffff;fill-opacity:1;fill-rule:nonzero;stroke:none"
         d="M 10400.4,616.34 H 10090 l -89.7,292.922 h -86.32 V 937.23 H 10021 l 89.7,-292.921 h 289.7 V 616.34" /><path
         id="path146"
         style="fill:#ffffff;fill-opacity:1;fill-rule:nonzero;stroke:none"
         d="m 10431.9,693.309 h -348.5 v 27.972 h 348.5 v -27.972" /><path
         id="path148"
         style="fill:#ffffff;fill-opacity:1;fill-rule:nonzero;stroke:none"
         d="m 10451.7,770.422 h -391.4 v 27.957 h 391.4 v -27.957" /><path
         id="path150"
         style="fill:#252323;fill-opacity:1;fill-rule:nonzero;stroke:none"
         d="m 13249.7,3339.84 c 0,379.55 -307.7,687.23 -687.3,687.23 -379.5,0 -687.2,-307.68 -687.2,-687.23 0,-379.54 307.7,-687.22 687.2,-687.22 379.6,0 687.3,307.68 687.3,687.22" /><path
         id="path152"
         style="fill:#ffffff;fill-opacity:1;fill-rule:nonzero;stroke:none"
         d="m 12378.5,3086.35 h 367.8 v 454.76 h -367.8 z m 400.1,-32.22 h -432.3 v 519.19 h 432.3 v -519.19" /><path
         id="path154"
         style="fill:#ffffff;fill-opacity:1;fill-rule:nonzero;stroke:none"
         d="m 12562.4,3480.23 c -8.9,0 -16.1,7.21 -16.1,16.12 v 104.34 c 0,8.91 7.2,16.11 16.1,16.11 8.9,0 16.1,-7.2 16.1,-16.11 v -104.34 c 0,-8.91 -7.2,-16.12 -16.1,-16.12" /><path
         id="path156"
         style="fill:#ffffff;fill-opacity:1;fill-rule:nonzero;stroke:none"
         d="m 12666.8,3480.23 c -8.9,0 -16.1,7.21 -16.1,16.12 v 104.34 c 0,8.91 7.2,16.11 16.1,16.11 8.9,0 16.1,-7.2 16.1,-16.11 v -104.34 c 0,-8.91 -7.2,-16.12 -16.1,-16.12" /><path
         id="path158"
         style="fill:#ffffff;fill-opacity:1;fill-rule:nonzero;stroke:none"
         d="m 12458.1,3480.23 c -8.9,0 -16.1,7.21 -16.1,16.12 v 104.34 c 0,8.91 7.2,16.11 16.1,16.11 8.9,0 16.1,-7.2 16.1,-16.11 v -104.34 c 0,-8.91 -7.2,-16.12 -16.1,-16.12" /><path
         id="path160"
         style="fill:#ffffff;fill-opacity:1;fill-rule:nonzero;stroke:none"
         d="m 12636.3,3370.94 h -197 v 32.2 h 197 v -32.2" /><path
         id="path162"
         style="fill:#ffffff;fill-opacity:1;fill-rule:nonzero;stroke:none"
         d="m 12685.6,3272.4 h -246.3 v 32.22 h 246.3 v -32.22" /><path
         id="path164"
         style="fill:#ffffff;fill-opacity:1;fill-rule:nonzero;stroke:none"
         d="m 12685.6,3173.87 h -246.3 v 32.2 h 246.3 v -32.2" /><path
         id="path166"
         style="fill:#252323;fill-opacity:1;fill-rule:nonzero;stroke:none"
         d="m 13244,721.281 c 0,379.539 -307.7,687.219 -687.2,687.219 -379.6,0 -687.3,-307.68 -687.3,-687.219 0,-379.551 307.7,-687.2302 687.3,-687.2302 379.5,0 687.2,307.6792 687.2,687.2302" /><path
         id="path168"
         style="fill:#ffffff;fill-opacity:1;fill-rule:nonzero;stroke:none"
         d="m 12460.1,550.379 h 193.3 v 35.031 l 7.7,4.711 c 61.8,37.711 98.7,103.699 98.7,176.5 0,59.141 -25.1,115.5 -68.9,154.629 -43.4,38.82 -99.3,56.672 -157.4,50.102 -91.3,-10.243 -166.1,-84.641 -178,-176.903 -10.6,-81.769 27.4,-161.969 96.9,-204.328 l 7.7,-4.711 z m 225.5,-32.207 h -257.7 v 49.359 c -75.4,50.098 -116.2,139.75 -104.4,231.039 13.8,106.789 100.6,192.91 206.4,204.81 67.3,7.6 132.2,-13.099 182.5,-58.11 50.6,-45.239 79.6,-110.36 79.6,-178.649 0,-81.062 -39.6,-154.801 -106.4,-199.09 v -49.359" /><path
         id="path170"
         style="fill:#ffffff;fill-opacity:1;fill-rule:nonzero;stroke:none"
         d="m 12685.6,437.641 h -257.7 v 32.211 h 257.7 v -32.211" /><path
         id="path172"
         style="fill:#ffffff;fill-opacity:1;fill-rule:nonzero;stroke:none"
         d="m 12580.9,526.219 h -32.2 V 715.34 h 32.2 V 526.219" /><path
         id="path174"
         style="fill:#ffffff;fill-opacity:1;fill-rule:nonzero;stroke:none"
         d="m 12564.8,678.59 -101.9,81.57 20.2,25.141 81.7,-65.43 81.5,65.32 20.1,-25.132 -101.6,-81.469" /><path
         id="path176"
         style="fill:#252323;fill-opacity:1;fill-rule:nonzero;stroke:none"
         d="m 15624.7,3338.32 c 0,379.54 -307.7,687.23 -687.2,687.23 -379.6,0 -687.2,-307.69 -687.2,-687.23 0,-379.54 307.6,-687.23 687.2,-687.23 379.5,0 687.2,307.69 687.2,687.23" /><path
         id="path178"
         style="fill:#ffffff;fill-opacity:1;fill-rule:nonzero;stroke:none"
         d="m 14668.6,3137.19 h 537.8 l -268.9,499.57 z m 593.9,-32.21 h -650 l 325,595.7 325,-595.7" /><path
         id="path180"
         style="fill:#ffffff;fill-opacity:1;fill-rule:nonzero;stroke:none"
         d="m 14953.6,3270.08 h -32.2 v 206.37 h 32.2 v -206.37" /><path
         id="path182"
         style="fill:#ffffff;fill-opacity:1;fill-rule:nonzero;stroke:none"
         d="m 14953.6,3187.53 h -32.2 v 50.33 h 32.2 v -50.33" /><path
         id="path184"
         style="fill:#252323;fill-opacity:1;fill-rule:nonzero;stroke:none"
         d="m 15617.9,721.281 c 0,379.539 -307.7,687.219 -687.2,687.219 -379.6,0 -687.3,-307.68 -687.3,-687.219 0,-379.551 307.7,-687.2302 687.3,-687.2302 379.5,0 687.2,307.6792 687.2,687.2302" /><path
         id="path186"
         style="fill:#ffffff;fill-opacity:1;fill-rule:nonzero;stroke:none"
         d="m 15122.9,439.941 h -432.2 v 519.188 h 432.2 V 817.59 h -32.2 v 109.332 h -367.8 V 472.16 h 367.8 v 28.641 h 32.2 v -60.86" /><path
         id="path188"
         style="fill:#ffffff;fill-opacity:1;fill-rule:nonzero;stroke:none"
         d="m 14906.8,866.039 c -8.9,0 -16.1,7.211 -16.1,16.121 V 986.5 c 0,8.91 7.2,16.11 16.1,16.11 8.9,0 16.1,-7.2 16.1,-16.11 V 882.16 c 0,-8.91 -7.2,-16.121 -16.1,-16.121" /><path
         id="path190"
         style="fill:#ffffff;fill-opacity:1;fill-rule:nonzero;stroke:none"
         d="m 15011.1,866.039 c -8.9,0 -16.1,7.211 -16.1,16.121 V 986.5 c 0,8.91 7.2,16.11 16.1,16.11 8.9,0 16.1,-7.2 16.1,-16.11 V 882.16 c 0,-8.91 -7.2,-16.121 -16.1,-16.121" /><path
         id="path192"
         style="fill:#ffffff;fill-opacity:1;fill-rule:nonzero;stroke:none"
         d="m 14802.4,866.039 c -8.9,0 -16.1,7.211 -16.1,16.121 V 986.5 c 0,8.91 7.2,16.11 16.1,16.11 8.9,0 16.1,-7.2 16.1,-16.11 V 882.16 c 0,-8.91 -7.2,-16.121 -16.1,-16.121" /><path
         id="path194"
         style="fill:#ffffff;fill-opacity:1;fill-rule:nonzero;stroke:none"
         d="m 14948.5,756.75 h -164.9 v 32.199 h 164.9 V 756.75" /><path
         id="path196"
         style="fill:#ffffff;fill-opacity:1;fill-rule:nonzero;stroke:none"
         d="m 14878.3,658.211 h -94.7 v 32.219 h 94.7 v -32.219" /><path
         id="path198"
         style="fill:#ffffff;fill-opacity:1;fill-rule:nonzero;stroke:none"
         d="m 14911.2,559.68 h -127.6 v 32.199 h 127.6 V 559.68" /><path
         id="path200"
         style="fill:#ffffff;fill-opacity:1;fill-rule:nonzero;stroke:none"
         d="m 15048.8,749.48 c -49.5,0 -89.7,-40.218 -89.7,-89.648 0,-49.41 40.2,-89.641 89.7,-89.641 49.4,0 89.6,40.231 89.6,89.641 0,49.43 -40.2,89.648 -89.6,89.648 z m 0,-211.5 c -67.2,0 -121.9,54.661 -121.9,121.852 0,67.199 54.7,121.859 121.9,121.859 67.2,0 121.8,-54.66 121.8,-121.859 0,-67.191 -54.6,-121.852 -121.8,-121.852" /><path
         id="path202"
         style="fill:#ffffff;fill-opacity:1;fill-rule:nonzero;stroke:none"
         d="m 15227.5,454.672 -114.5,114.519 22.8,22.77 114.5,-114.52 -22.8,-22.769" /></g></g></svg>