<?xml version="1.0" encoding="UTF-8" standalone="no"?>
<!-- Generator: Adobe Illustrator 20.1.0, SVG Export Plug-In . SVG Version: 6.00 Build 0)  -->

<svg
   xmlns:dc="http://purl.org/dc/elements/1.1/"
   xmlns:cc="http://creativecommons.org/ns#"
   xmlns:rdf="http://www.w3.org/1999/02/22-rdf-syntax-ns#"
   xmlns:svg="http://www.w3.org/2000/svg"
   xmlns="http://www.w3.org/2000/svg"
   xmlns:sodipodi="http://sodipodi.sourceforge.net/DTD/sodipodi-0.dtd"
   xmlns:inkscape="http://www.inkscape.org/namespaces/inkscape"
   version="1.1"
   id="Layer_1"
   x="0px"
   y="0px"
   width="724.80469"
   height="181.89999"
   viewBox="0 0 724.80469 181.89999"
   enable-background="new 0 0 526.5 95.4"
   xml:space="preserve"
   sodipodi:docname="logo-glyph-black.svg"
   inkscape:version="0.92.1 r15371"><metadata
     id="metadata3705"><rdf:RDF><cc:Work
         rdf:about=""><dc:format>image/svg+xml</dc:format><dc:type
           rdf:resource="http://purl.org/dc/dcmitype/StillImage" /><dc:title></dc:title></cc:Work></rdf:RDF></metadata><defs
     id="defs3703"><linearGradient
       id="SVGID_1_"
       gradientUnits="userSpaceOnUse"
       x1="67.5"
       y1="18.4751"
       x2="67.5"
       y2="156.39391"><stop
         offset="0"
         style="stop-color:#FF1F3D"
         id="stop3707" /><stop
         offset="1"
         style="stop-color:#FC593A"
         id="stop3709" /></linearGradient></defs><sodipodi:namedview
     pagecolor="#ffffff"
     bordercolor="#666666"
     borderopacity="1"
     objecttolerance="10"
     gridtolerance="10"
     guidetolerance="10"
     inkscape:pageopacity="0"
     inkscape:pageshadow="2"
     inkscape:window-width="1920"
     inkscape:window-height="1017"
     id="namedview3701"
     showgrid="false"
     inkscape:zoom="1.6761633"
     inkscape:cx="271.98512"
     inkscape:cy="91.546599"
     inkscape:window-x="-8"
     inkscape:window-y="-8"
     inkscape:window-maximized="1"
     inkscape:current-layer="Layer_1"
     fit-margin-top="0"
     fit-margin-left="0"
     fit-margin-right="0"
     fit-margin-bottom="0" /><path
     d="M 198.30468,51.753399 V 135.1534 h 13.4 V 45.553399 Z"
     id="path3680"
     inkscape:connector-curvature="0"
     style="fill:#282828" /><path
     d="M 459.60468,51.753399 V 135.1534 h 13.4 V 45.553399 Z"
     id="path3682"
     inkscape:connector-curvature="0"
     style="fill:#282828" /><path
     d="m 284.40468,75.153399 c -7.2,-7.2 -15.6,-10.7 -25.5,-10.7 -9.9,0 -18.4,3.6 -25.4,10.7 -7.2,7.1 -10.7,15.6 -10.7,25.500001 0,9.9 3.5,18.3 10.7,25.4 7,7.1 15.5,10.7 25.4,10.7 9.9,0 18.4,-3.6 25.5,-10.7 7.2,-7.1 10.7,-15.5 10.7,-25.4 0,-9.900001 -3.6,-18.400001 -10.7,-25.500001 z m -9.5,41.500001 c -4.4,4.4 -9.8,6.6 -16,6.6 -6.3,0 -11.7,-2.2 -16.1,-6.6 -4.4,-4.4 -6.6,-9.8 -6.6,-16.1 0,-6.300001 2.2,-11.700001 6.6,-16.000001 4.4,-4.4 9.7,-6.6 16.1,-6.6 6.3,0 11.6,2.2 16,6.6 4.4,4.4 6.6,9.7 6.6,16.000001 0,6.4 -2.2,11.7 -6.6,16.1 z"
     id="path3684"
     inkscape:connector-curvature="0"
     style="fill:#282828" /><path
     d="m 357.00468,114.6534 c -5.1,6.1 -11.2,9.2 -18.2,9.2 -6.3,0 -11.7,-2.2 -16,-6.6 -4.4,-4.4 -6.6,-9.8 -6.6,-16.1 0,-6.300001 2.2,-11.700001 6.6,-16.000001 4.4,-4.3 9.8,-6.6 16,-6.6 6.4,0 12,2.5 16.8,7.5 l 7.3,-3.3 5.4,-2.5 c -3.6,-4.8 -8,-8.5 -13.2,-11.2 -5.2,-2.7 -10.6,-4 -16.2,-4 -9.9,0 -18.3,3.6 -25.4,10.7 -7.1,7.1 -10.7,15.6 -10.7,25.500001 0,9.9 3.6,18.3 10.7,25.4 7.1,7.1 15.5,10.7 25.4,10.7 5.6,0 11,-1.3 16.1,-3.8 5.1,-2.5 9.3,-6 12.7,-10.5 l -0.4,-1.7 z"
     id="path3686"
     inkscape:connector-curvature="0"
     style="fill:#282828" /><path
     d="m 434.90468,73.553399 v 2.9 c -0.6,-0.7 -1.3,-1.4 -1.9,-2.1 -6.3,-6.3 -13.9,-9.4 -22.9,-9.4 -3.4,0 -6.7,0.5 -9.8,1.4 -1.2,0.3 -2.4,0.8 -3.6,1.3 -1.5,0.7 -3,1.5 -4.4,2.4 v 0 c -2.4,1.6 -4.5,3.5 -6.5,5.9 -6.5,7 -9.7,15.4 -9.7,25.300001 0,9.8 3.2,18.2 9.6,25.1 6.5,7.3 14.6,11 24.4,11 10,0 18.3,-3.8 24.8,-11.5 v 9.3 h 13.5 V 67.253399 Z m -6.6,43.800001 c -4.4,4.4 -9.7,6.6 -16,6.6 -6.3,0 -11.7,-2.2 -16.1,-6.6 -4.4,-4.4 -6.6,-9.8 -6.6,-16.1 0,-6.300001 2.2,-11.700001 6.6,-16.000001 4.4,-4.4 9.7,-6.6 16.1,-6.6 3,0 5.8,0.5 8.4,1.5 2.8,1.1 5.4,2.8 7.7,5.1 4.4,4.4 6.6,9.7 6.6,16.000001 0,6.3 -2.3,11.6 -6.7,16.1 z"
     id="path3688"
     inkscape:connector-curvature="0"
     style="fill:#282828" /><path
     d="M 484.00468,73.553399 V 135.2534 h 13.4 V 67.353399 Z"
     id="path3690"
     inkscape:connector-curvature="0"
     style="fill:#282828" /><path
     d="m 553.70468,98.253399 h 0.1 c -0.6,-0.4 -7.6,-1.9 -20.8,-4.4 -6.6,-1.4 -10,-3.9 -10,-7.5 0,-2.6 1.6,-4.7 4.7,-6.1 2.6,-1.2 5.6,-1.8 9.2,-1.8 1.9,0 3.6,0.2 5.1,0.5 1.5,0.3 2.9,0.7 4.2,1.3 3.1,1.4 4.6,3.9 4.6,7.5 h 13.6 c 0,-7.6 -3.1,-13.5 -9.3,-17.6 -5.2,-3.5 -11.3,-5.2 -18.2,-5.2 -6.9,0 -12.9,1.7 -18.2,5.2 -6.1,4 -9.2,9.4 -9.2,16.2 0,8.7 3.9,14.600001 11.8,17.800001 0.7,0.3 2.7,0.7 6.1,1.4 3.4,0.7 8.3,1.7 14.6,2.9 6.6,1.4 10,3.9 10,7.3 0,5.3 -5,8 -15.1,8 -2,0 -3.8,-0.1 -5.4,-0.4 -1.6,-0.3 -3.1,-0.7 -4.4,-1.2 -3.5,-1.3 -5.2,-3.9 -5.2,-7.7 h -13.4 c 0,7.8 3.3,13.7 9.8,17.8 5.5,3.3 11.7,5 18.7,5 6.9,0 13.1,-1.7 18.8,-5 6.5,-4.1 9.7,-9.5 9.7,-16.4 0,-8.6 -3.9,-14.4 -11.8,-17.600001 z"
     id="path3692"
     inkscape:connector-curvature="0"
     style="fill:#282828" /><path
     d="m 634.50468,75.753399 c -7.1,-7.1 -15.6,-10.7 -25.5,-10.7 -9.9,0 -18.3,3.6 -25.4,10.7 -7.1,7.1 -10.7,15.6 -10.7,25.500001 0,9.9 3.6,18.3 10.7,25.4 7.1,7.1 15.5,10.7 25.4,10.7 5.7,0 11.1,-1.4 16.3,-4.1 5.2,-2.7 9.6,-6.4 13.2,-11.3 l -11.4,-7.3 c -5,6.1 -11,9.2 -18.2,9.2 -5.1,0 -9.8,-1.7 -14,-5 -3.7,-2.9 -6.1,-6.6 -7.5,-11 h 57.1 c 0.2,-1.4 0.3,-2.7 0.5,-3.7 0.1,-1.1 0.2,-2.1 0.2,-3 0,-9.800001 -3.6,-18.300001 -10.7,-25.400001 z m -47.1,18.6 c 1.3,-4.3 3.8,-8 7.5,-11 4.2,-3.2 8.9,-4.9 14,-4.9 5.4,0 10.1,1.6 14.1,4.9 3.6,2.8 6.1,6.4 7.6,11 z"
     id="path3694"
     inkscape:connector-curvature="0"
     style="fill:#282828" /><polygon
     points="299.2,11.5 299.2,2 285.7,8.2 285.7,17.7 "
     id="polygon3696"
     style="fill:#282828"
     transform="translate(198.30468,42.653399)" /><path
     d="m 711.40468,51.753399 v 24.4 c -6.6,-7.6 -14.7,-11.3 -24.5,-11.3 -1.5,0 -3,0.1 -4.5,0.3 0,0 0,0 0,0 -3.1,0.4 -6,1.2 -8.8,2.4 -3,1.3 -5.7,3.1 -8.1,5.4 -0.9,0.8 -1.8,1.8 -2.6,2.8 -6.4,6.9 -9.6,15.2 -9.6,25.000001 0,9.7 3.2,18 9.5,24.9 6.4,7.2 14.4,10.9 24.1,10.9 9.9,0 18.1,-3.8 24.5,-11.3 v 9.2 h 13.4 V 45.553399 Z m -6.5,64.800001 c -4.4,4.4 -9.7,6.5 -15.9,6.5 -6.3,0 -11.6,-2.2 -15.9,-6.5 -4.4,-4.4 -6.5,-9.7 -6.5,-15.9 0,-6.200001 2.2,-11.500001 6.5,-15.900001 4.4,-4.4 9.6,-6.5 15.9,-6.5 6.2,0 11.5,2.2 15.9,6.5 4.4,4.4 6.5,9.6 6.5,15.900001 0,6.3 -2.2,11.6 -6.5,15.9 z"
     id="path3698"
     inkscape:connector-curvature="0"
     style="fill:#282828" /><path
     inkscape:connector-curvature="0"
     style="fill:url(#SVGID_1_)"
     d="M 67.5,0 C 30.2,0 0,30.200001 0,67.5 c 0,42.3 67.5,114.4 67.5,114.4 0,0 67.50001,-72.1 67.50001,-114.4 C 135.00001,30.200001 104.8,0 67.5,0 Z M 103.9,94 67.5,115 31.1,94 V 52 L 67.5,31.000001 100.6,50 67.5,69 55.6,62.1 48.7,66.1 67.5,77 103.9,56 Z"
     id="path3712" /></svg>