<?xml version="1.0" encoding="UTF-8" standalone="no"?>
<svg
   xmlns:dc="http://purl.org/dc/elements/1.1/"
   xmlns:cc="http://creativecommons.org/ns#"
   xmlns:rdf="http://www.w3.org/1999/02/22-rdf-syntax-ns#"
   xmlns:svg="http://www.w3.org/2000/svg"
   xmlns="http://www.w3.org/2000/svg"
   viewBox="0 0 702.02667 123.61333"
   height="123.61333"
   width="702.02667"
   xml:space="preserve"
   id="svg2"
   version="1.1"><metadata
     id="metadata8"><rdf:RDF><cc:Work
         rdf:about=""><dc:format>image/svg+xml</dc:format><dc:type
           rdf:resource="http://purl.org/dc/dcmitype/StillImage" /></cc:Work></rdf:RDF></metadata><defs
     id="defs6" /><g
     transform="matrix(1.3333333,0,0,-1.3333333,0,123.61333)"
     id="g10"><g
       transform="scale(0.1)"
       id="g12"><path
         id="path14"
         style="fill:#252323;fill-opacity:1;fill-rule:nonzero;stroke:none"
         d="M 0,855.711 V 21.25 H 134.363 V 917.672 L 0,855.711" /><path
         id="path16"
         style="fill:#252323;fill-opacity:1;fill-rule:nonzero;stroke:none"
         d="M 2612.97,855.711 V 21.25 h 134.36 v 896.422 l -134.36,-61.961" /><path
         id="path18"
         style="fill:#252323;fill-opacity:1;fill-rule:nonzero;stroke:none"
         d="M 766.375,206.77 C 722.242,163 668.758,141.027 605.898,141.027 c -63.222,0 -116.71,21.973 -160.664,65.743 -44.125,44.125 -66.105,97.621 -66.105,160.66 0,63.215 21.98,116.711 66.105,160.476 43.954,43.949 97.442,66.106 160.664,66.106 62.86,0 116.344,-22.157 160.477,-66.106 43.945,-43.765 65.93,-97.261 65.93,-160.476 0,-63.039 -21.985,-116.535 -65.93,-160.66 z m 94.563,415.699 c -71.504,71.504 -156.34,107.16 -255.04,107.16 -98.878,0 -183.539,-35.656 -253.964,-107.16 C 280.43,551.324 244.773,466.129 244.773,367.43 244.773,268.727 280.43,184.074 351.934,113.469 422.359,42.3242 507.02,6.48047 605.898,6.48047 c 98.7,0 183.536,35.84373 255.04,106.98853 71.503,70.605 106.98,155.258 106.98,253.961 0,98.699 -35.477,183.894 -106.98,255.039" /><path
         id="path20"
         style="fill:#252323;fill-opacity:1;fill-rule:nonzero;stroke:none"
         d="M 1586.73,226.578 C 1535.4,165.16 1474.7,134.543 1405,134.543 c -62.86,0 -116.54,21.973 -160.49,65.922 -43.95,44.125 -65.92,97.617 -65.92,160.66 0,63.035 21.97,116.531 65.92,160.48 43.95,43.95 97.63,66.102 160.49,66.102 64.12,0 120.13,-25.215 167.68,-75.289 l 72.77,33.5 54.03,24.859 c -36.39,47.907 -80.33,85.192 -132.02,112.028 -51.88,26.84 -106.08,40.343 -162.46,40.343 -98.71,0 -183.36,-35.664 -253.97,-106.984 -71.14,-71.324 -106.98,-156.34 -106.98,-255.039 0,-98.883 35.84,-183.355 106.98,-253.961 C 1221.64,35.8359 1306.29,0 1405,0 c 56.38,0 109.86,12.7891 160.65,38.1797 50.62,25.2187 92.94,60.3398 126.98,105.1913 l -3.77,17.289 -102.13,65.918" /><path
         id="path22"
         style="fill:#252323;fill-opacity:1;fill-rule:nonzero;stroke:none"
         d="m 2300.12,200.465 c -44.14,-43.949 -97.45,-65.922 -160.48,-65.922 -63.23,0 -116.54,21.973 -160.67,65.922 -43.94,44.125 -65.74,97.617 -65.74,160.66 0,63.035 21.8,116.531 65.74,160.48 44.13,43.95 97.44,66.102 160.67,66.102 30.07,0 57.99,-5.227 83.92,-15.312 28.11,-10.985 53.67,-27.915 76.56,-50.79 43.94,-43.949 66.09,-97.445 66.09,-160.48 0,-63.043 -22.15,-116.535 -66.09,-160.66 z m 66.09,437.672 v -29.364 c -6.11,7.207 -12.78,14.055 -19.27,20.54 -63.04,62.679 -139.04,93.835 -228.55,93.835 -34.41,0 -66.83,-4.5 -97.63,-13.683 -12.25,-3.422 -24.32,-7.926 -36.2,-12.969 -15.31,-6.668 -30.08,-14.769 -43.95,-23.957 l -0.18,-0.18 c -23.6,-15.847 -45.03,-35.484 -64.66,-58.718 -64.84,-69.7 -97.27,-153.817 -97.27,-252.516 0,-97.805 32.06,-181.914 96.01,-251.441 C 1939.17,36.5586 2020.57,0 2118.39,0 c 100.49,0 182.99,38.3594 247.82,114.551 V 21.25 h 135.45 v 679.387 l -135.45,-62.5" /><path
         id="path24"
         style="fill:#252323;fill-opacity:1;fill-rule:nonzero;stroke:none"
         d="M 2857.38,638.316 V 21.25 h 134.37 v 679.023 l -134.37,-61.957" /><path
         id="path26"
         style="fill:#252323;fill-opacity:1;fill-rule:nonzero;stroke:none"
         d="m 3554.24,390.848 h 1.08 c -6.48,4.32 -75.83,18.722 -207.67,43.761 -66.46,14.047 -99.6,38.907 -99.6,74.571 0,26.468 15.84,46.828 47.18,60.875 25.76,11.703 56.38,17.652 92.23,17.652 19.09,0 36.01,-1.621 50.97,-4.504 14.95,-2.879 29.18,-7.383 42.32,-13.148 30.63,-14.047 46.11,-38.719 46.11,-74.571 h 135.63 c 0,76.371 -31.16,134.914 -93.3,175.61 -52.41,34.765 -112.93,52.054 -181.73,52.054 -68.99,0 -129.5,-17.289 -181.74,-52.054 -61.42,-39.981 -92.04,-93.836 -92.04,-161.914 0,-87.176 39.27,-146.434 118.15,-177.953 6.67,-2.52 27.03,-7.383 60.88,-14.231 34.05,-7.203 82.68,-16.933 145.72,-29.359 66.28,-14.227 99.6,-38.727 99.6,-73.485 0,-53.132 -50.26,-79.609 -150.57,-79.609 -20,0 -38.01,1.437 -54.03,4.324 -16.4,2.883 -30.99,6.844 -44.31,11.887 -34.95,13.324 -52.42,38.898 -52.42,77.09 h -134.37 c 0,-77.992 32.97,-137.2502 98.34,-177.9495 C 3255.43,16.75 3317.75,0 3387.46,0 c 68.8,0 131.47,16.75 187.85,49.8945 64.84,40.6993 97.08,95.4535 97.08,164.2575 0,86.453 -39.44,145.168 -118.15,176.696" /><path
         id="path28"
         style="fill:#252323;fill-opacity:1;fill-rule:nonzero;stroke:none"
         d="m 3891.34,429.566 c 13.33,43.227 38.18,79.614 74.74,109.512 42.33,32.418 89.16,48.629 140.49,48.629 54.03,0 101.05,-16.211 140.85,-48.629 35.66,-27.558 61.05,-63.945 75.83,-109.512 z m 470.45,186.598 c -71.32,71.32 -156.34,106.984 -255.22,106.984 -98.7,0 -183.17,-35.664 -253.78,-106.984 -71.32,-71.324 -107.17,-156.34 -107.17,-255.039 0,-98.883 35.85,-183.355 107.17,-253.961 C 3923.4,35.8359 4007.87,0 4106.57,0 c 56.55,0 110.77,13.5078 162.64,40.6992 51.7,26.6602 96,64.4848 132.39,112.5738 l -113.12,73.305 c -49.89,-61.418 -110.41,-92.035 -181.91,-92.035 -51.33,0 -98.16,16.57 -140.49,49.711 -36.56,29.176 -61.41,65.742 -74.74,109.508 h 571.31 c 1.8,14.226 3.06,26.66 4.51,37.465 1.08,10.8 1.62,20.711 1.62,29.898 0,98.699 -35.67,183.715 -106.99,255.039" /><path
         id="path30"
         style="fill:#252323;fill-opacity:1;fill-rule:nonzero;stroke:none"
         d="m 2857.3,865.07 v -94.562 l 134.39,61.992 v 94.563 L 2857.3,865.07" /><path
         id="path32"
         style="fill:#252323;fill-opacity:1;fill-rule:nonzero;stroke:none"
         d="m 5065.62,207.605 c -43.68,-43.511 -96.65,-65.265 -158.87,-65.265 -62.6,0 -115.56,21.754 -159.07,65.265 -43.69,43.684 -65.26,96.649 -65.26,159.055 0,62.414 21.57,115.383 65.26,158.887 43.51,43.512 96.47,65.445 159.07,65.445 62.22,0 115.19,-21.933 158.87,-65.445 43.52,-43.504 65.27,-96.473 65.27,-158.887 0,-62.406 -21.75,-115.371 -65.27,-159.055 z m 65.27,648.368 V 611.852 c -65.79,75.609 -147.47,113.238 -245.19,113.238 -15.15,0 -30.14,-0.895 -44.58,-2.86 -0.17,0 -0.17,0 -0.36,0 -30.66,-3.562 -60.09,-11.589 -87.55,-23.535 -29.78,-12.84 -56.88,-31.027 -81.49,-54.386 -9.27,-8.379 -18.01,-17.653 -26.39,-27.641 -64.02,-69.008 -96.12,-152.285 -96.12,-250.008 0,-96.824 31.75,-180.097 95.05,-248.93 C 4708.27,45.332 4788.7,9.13672 4885.7,9.13672 c 99.33,0 181.17,37.97658 245.19,113.41028 V 30.1758 h 134.27 V 917.672 l -134.27,-61.699" /></g></g></svg>