<?xml version="1.0" encoding="UTF-8" standalone="no"?>
<svg
   xmlns:dc="http://purl.org/dc/elements/1.1/"
   xmlns:cc="http://creativecommons.org/ns#"
   xmlns:rdf="http://www.w3.org/1999/02/22-rdf-syntax-ns#"
   xmlns:svg="http://www.w3.org/2000/svg"
   xmlns="http://www.w3.org/2000/svg"
   viewBox="0 0 1952.6133 432.51999"
   height="432.51999"
   width="1952.6133"
   xml:space="preserve"
   id="svg2"
   version="1.1"><metadata
     id="metadata8"><rdf:RDF><cc:Work
         rdf:about=""><dc:format>image/svg+xml</dc:format><dc:type
           rdf:resource="http://purl.org/dc/dcmitype/StillImage" /></cc:Work></rdf:RDF></metadata><defs
     id="defs6" /><g
     transform="matrix(1.3333333,0,0,-1.3333333,0,432.52)"
     id="g10"><g
       transform="scale(0.1)"
       id="g12"><path
         id="path14"
         style="fill:#ee2341;fill-opacity:1;fill-rule:nonzero;stroke:none"
         d="M 27.7148,2730.62 H 618.473 v 444.57 H 27.7148 Z M 646.188,2702.9 H 0 v 500 h 646.188 v -500" /><path
         id="path16"
         style="fill:#ee2341;fill-opacity:1;fill-rule:nonzero;stroke:none"
         d="M 632.328,3096.47 H 13.8594 v 27.71 H 632.328 v -27.71" /><path
         id="path18"
         style="fill:#ee2341;fill-opacity:1;fill-rule:nonzero;stroke:none"
         d="m 237.109,2941.14 -65.453,65.45 65.453,65.47 19.594,-19.6 -45.855,-45.87 45.855,-45.86 -19.594,-19.59" /><path
         id="path20"
         style="fill:#ee2341;fill-opacity:1;fill-rule:nonzero;stroke:none"
         d="m 524.938,2897.15 v 27.72 c 15.765,0 28.593,12.83 28.593,28.59 v 10.68 c 0,15.77 -12.828,28.6 -28.593,28.6 H 196.305 v 27.71 h 328.633 c 31.05,0 56.308,-25.27 56.308,-56.31 v -10.68 c 0,-31.03 -25.258,-56.31 -56.308,-56.31" /><path
         id="path22"
         style="fill:#ee2341;fill-opacity:1;fill-rule:nonzero;stroke:none"
         d="m 409.078,2755.03 -19.594,19.59 45.86,45.88 -45.86,45.86 19.594,19.59 65.453,-65.45 -65.453,-65.47" /><path
         id="path24"
         style="fill:#ee2341;fill-opacity:1;fill-rule:nonzero;stroke:none"
         d="M 449.883,2806.64 H 121.246 c -31.0507,0 -56.3046,25.27 -56.3046,56.3 v 10.69 c 0,31.04 25.2539,56.3 56.3046,56.3 v -27.71 c -15.762,0 -28.5937,-12.83 -28.5937,-28.59 v -10.69 c 0,-15.76 12.8317,-28.59 28.5937,-28.59 h 328.637 v -27.71" /><path
         id="path26"
         style="fill:#ee2341;fill-opacity:1;fill-rule:nonzero;stroke:none"
         d="m 70.0859,3149.69 c 0,6.21 -5.0351,11.24 -11.2461,11.24 -6.2109,0 -11.246,-5.03 -11.246,-11.24 0,-6.21 5.0351,-11.25 11.246,-11.25 6.211,0 11.2461,5.04 11.2461,11.25" /><path
         id="path28"
         style="fill:#ee2341;fill-opacity:1;fill-rule:nonzero;stroke:none"
         d="m 2487.12,2924.57 182.7,-182.69 242.3,242.3 8.41,171.92 c 0.28,5.53 -1.53,10.51 -5.11,14.08 -3.57,3.57 -8.72,5.61 -14.08,5.12 l -171.92,-8.41 z m 182.7,-221.68 -221.68,221.68 269.31,269.32 182.54,8.95 c 13.33,0.73 25.79,-4.04 34.93,-13.17 9.14,-9.14 13.81,-21.53 13.16,-34.91 l -8.95,-182.56 -269.31,-269.31" /><path
         id="path30"
         style="fill:#ee2341;fill-opacity:1;fill-rule:nonzero;stroke:none"
         d="m 2837.64,3110.32 c -4.77,0 -9.27,-1.86 -12.65,-5.25 -3.39,-3.38 -5.25,-7.88 -5.25,-12.66 0,-4.79 1.86,-9.28 5.25,-12.66 6.98,-6.97 18.34,-6.96 25.32,0 6.98,6.98 6.98,18.33 0,25.32 -3.38,3.39 -7.88,5.25 -12.67,5.25 z m 0.01,-63.36 c -11.65,0 -23.29,4.44 -32.16,13.3 -8.58,8.58 -13.32,20 -13.32,32.15 0,12.14 4.74,23.56 13.32,32.15 17.19,17.18 47.14,17.16 64.32,0 17.73,-17.73 17.73,-46.58 0,-64.3 v 0 c -8.87,-8.86 -20.51,-13.3 -32.16,-13.3" /><path
         id="path32"
         style="fill:#ee2341;fill-opacity:1;fill-rule:nonzero;stroke:none"
         d="m 5073.18,3174.33 c -67.8,0 -122.96,-55.16 -122.96,-122.96 0,-67.8 55.16,-122.97 122.96,-122.97 67.8,0 122.96,55.17 122.96,122.97 0,67.8 -55.16,122.96 -122.96,122.96 z m 0,-274.49 c -83.56,0 -151.53,67.98 -151.53,151.53 0,83.54 67.97,151.53 151.53,151.53 83.56,0 151.53,-67.99 151.53,-151.53 0,-83.55 -67.97,-151.53 -151.53,-151.53" /><path
         id="path34"
         style="fill:#ee2341;fill-opacity:1;fill-rule:nonzero;stroke:none"
         d="m 5298.69,2702.9 h -28.57 c 0,108.6 -88.35,196.94 -196.94,196.94 -108.59,0 -196.94,-88.34 -196.94,-196.94 h -28.57 c 0,124.35 101.16,225.5 225.51,225.5 124.35,0 225.51,-101.15 225.51,-225.5" /><path
         id="path36"
         style="fill:#ee2341;fill-opacity:1;fill-rule:nonzero;stroke:none"
         d="m 7287.3,2730.68 h 321.85 v 315.58 H 7287.3 Z m 349.63,-27.78 h -377.41 v 371.14 h 377.41 V 2702.9" /><path
         id="path38"
         style="fill:#ee2341;fill-opacity:1;fill-rule:nonzero;stroke:none"
         d="m 7562.17,3011.93 h -27.78 v 77.03 c 0,47.51 -38.66,86.16 -86.17,86.16 -47.51,0 -86.17,-38.65 -86.17,-86.16 v -77.03 h -27.77 v 77.03 c 0,62.82 51.11,113.94 113.94,113.94 62.84,0 113.95,-51.12 113.95,-113.94 v -77.03" /><path
         id="path40"
         style="fill:#ee2341;fill-opacity:1;fill-rule:nonzero;stroke:none"
         d="m 9596.1,2684.52 h -28.66 v 97.13 h 28.66 v -97.13" /><path
         id="path42"
         style="fill:#ee2341;fill-opacity:1;fill-rule:nonzero;stroke:none"
         d="m 9681.29,2684.52 h -28.67 v 159.44 h 28.67 v -159.44" /><path
         id="path44"
         style="fill:#ee2341;fill-opacity:1;fill-rule:nonzero;stroke:none"
         d="m 9766.47,2684.52 h -28.66 v 221.66 h 28.66 v -221.66" /><path
         id="path46"
         style="fill:#ee2341;fill-opacity:1;fill-rule:nonzero;stroke:none"
         d="m 9851.65,2684.52 h -28.67 v 159.44 h 28.67 v -159.44" /><path
         id="path48"
         style="fill:#ee2341;fill-opacity:1;fill-rule:nonzero;stroke:none"
         d="m 9936.83,2684.52 h -28.66 v 255.87 h 28.66 v -255.87" /><path
         id="path50"
         style="fill:#ee2341;fill-opacity:1;fill-rule:nonzero;stroke:none"
         d="m 10022,2684.52 h -28.65 v 343.96 h 28.65 v -343.96" /><path
         id="path52"
         style="fill:#ee2341;fill-opacity:1;fill-rule:nonzero;stroke:none"
         d="m 9585.89,2833.86 -20.32,20.21 186.81,187.82 81.56,-85.98 222.56,224.37 20.3,-20.18 -243.33,-245.36 -81.57,86.01 -166.01,-166.89" /><path
         id="path54"
         style="fill:#ee2341;fill-opacity:1;fill-rule:nonzero;stroke:none"
         d="m 10081,3085.53 h -28.7 v 70.33 h -70.34 v 28.66 h 99.04 v -98.99" /><path
         id="path56"
         style="fill:#ee2341;fill-opacity:1;fill-rule:nonzero;stroke:none"
         d="M 221.305,428.73 323.094,369.961 424.883,428.73 V 546.281 L 323.094,605.039 221.305,546.281 Z m 101.789,-90.988 -129.703,74.879 v 149.777 l 129.703,74.864 129.707,-74.864 V 412.621 L 323.094,337.742" /><path
         id="path58"
         style="fill:#ee2341;fill-opacity:1;fill-rule:nonzero;stroke:none"
         d="m 105.555,228.25 101.789,-58.762 101.793,58.762 v 117.539 l -101.793,58.77 -101.789,-58.77 z M 207.344,137.262 77.6367,212.129 V 361.91 L 207.344,436.789 337.051,361.91 V 212.129 L 207.344,137.262" /><path
         id="path60"
         style="fill:#ee2341;fill-opacity:1;fill-rule:nonzero;stroke:none"
         d="m 337.051,228.25 101.793,-58.762 101.793,58.762 v 117.539 l -101.793,58.77 -101.793,-58.77 z M 438.844,137.262 309.137,212.129 V 361.91 L 438.844,436.789 568.547,361.91 V 212.129 L 438.844,137.262" /><path
         id="path62"
         style="fill:#ee2341;fill-opacity:1;fill-rule:nonzero;stroke:none"
         d="M 337.051,353.852 H 309.137 V 487.5 h 27.914 V 353.852" /><path
         id="path64"
         style="fill:#ee2341;fill-opacity:1;fill-rule:nonzero;stroke:none"
         d="m 330.074,475.41 -13.961,24.18 115.746,66.84 13.961,-24.18 -115.746,-66.84" /><path
         id="path66"
         style="fill:#ee2341;fill-opacity:1;fill-rule:nonzero;stroke:none"
         d="m 316.113,475.41 -115.746,66.84 13.953,24.18 115.754,-66.84 -13.961,-24.18" /><path
         id="path68"
         style="fill:#ee2341;fill-opacity:1;fill-rule:nonzero;stroke:none"
         d="m 221.305,153.371 h -27.914 v 133.641 h 27.914 V 153.371" /><path
         id="path70"
         style="fill:#ee2341;fill-opacity:1;fill-rule:nonzero;stroke:none"
         d="m 214.32,274.922 -13.953,24.18 115.746,66.839 13.961,-24.179 -115.754,-66.84" /><path
         id="path72"
         style="fill:#ee2341;fill-opacity:1;fill-rule:nonzero;stroke:none"
         d="M 200.367,274.922 84.6211,341.762 98.5742,365.941 214.32,299.102 200.367,274.922" /><path
         id="path74"
         style="fill:#ee2341;fill-opacity:1;fill-rule:nonzero;stroke:none"
         d="m 452.801,153.371 h -27.918 v 133.641 h 27.918 V 153.371" /><path
         id="path76"
         style="fill:#ee2341;fill-opacity:1;fill-rule:nonzero;stroke:none"
         d="m 445.82,274.922 -13.961,24.18 115.754,66.839 13.953,-24.179 -115.746,-66.84" /><path
         id="path78"
         style="fill:#ee2341;fill-opacity:1;fill-rule:nonzero;stroke:none"
         d="m 431.859,274.922 -115.746,66.84 13.961,24.179 115.746,-66.839 -13.961,-24.18" /><path
         id="path80"
         style="fill:#ee2341;fill-opacity:1;fill-rule:nonzero;stroke:none"
         d="m 2908.26,151.398 h -17.98 v 27.934 h 17.98 c 13.83,0 25.52,11.668 25.52,25.5 v 269.047 c 0,14.062 -11.45,25.5 -25.52,25.5 h -422.53 c -14.06,0 -25.5,-11.438 -25.5,-25.5 V 204.832 c 0,-14.07 11.44,-25.5 25.5,-25.5 h 221.41 v -27.934 h -221.41 c -29.46,0 -53.43,23.973 -53.43,53.434 v 269.047 c 0,29.453 23.97,53.43 53.43,53.43 h 422.53 c 29.47,0 53.44,-23.977 53.44,-53.43 V 204.832 c 0,-29.461 -23.97,-53.434 -53.44,-53.434" /><path
         id="path82"
         style="fill:#ee2341;fill-opacity:1;fill-rule:nonzero;stroke:none"
         d="m 2546.6,211.98 h -44.63 v 27.918 h 44.63 V 211.98" /><path
         id="path84"
         style="fill:#ee2341;fill-opacity:1;fill-rule:nonzero;stroke:none"
         d="m 2656.38,211.98 h -55.49 v 27.918 h 55.49 V 211.98" /><path
         id="path86"
         style="fill:#ee2341;fill-opacity:1;fill-rule:nonzero;stroke:none"
         d="m 2460.23,380.281 h 473.55 v 36.301 h -473.55 z m 501.47,-27.929 h -529.4 v 92.16 h 529.4 v -92.16" /><path
         id="path88"
         style="fill:#ee2341;fill-opacity:1;fill-rule:nonzero;stroke:none"
         d="M 2726.9,199.082 V 86.8086 c 0,-17.4102 14.17,-31.5664 31.58,-31.5664 h 84.87 c 17.41,0 31.58,14.1562 31.58,31.5664 V 199.359 Z M 2843.35,27.3086 h -84.87 c -32.81,0 -59.51,26.7031 -59.51,59.5 V 199.359 c 0,15.243 12.4,27.641 27.63,27.641 h 148.63 c 15.23,0 27.63,-12.398 27.63,-27.641 V 86.8086 c 0,-32.7969 -26.7,-59.5 -59.51,-59.5" /><path
         id="path90"
         style="fill:#ee2341;fill-opacity:1;fill-rule:nonzero;stroke:none"
         d="m 2873.4,215.289 h -27.92 v 41.813 c 0,19.41 -15.79,35.199 -35.2,35.199 h -18.74 c -19.4,0 -35.2,-15.789 -35.2,-35.199 v -41.813 h -27.92 v 41.813 c 0,34.808 28.32,63.128 63.12,63.128 h 18.74 c 34.8,0 63.12,-28.32 63.12,-63.128 z m -72.49,-68.168 c -0.83,0 -1.5,-0.66 -1.5,-1.5 0,-1.66 3,-1.66 3,0 0,0.848 -0.66,1.5 -1.5,1.5 z m 13.96,-49.5194 h -27.93 v 25.6094 c -7.47,4.648 -12.46,12.961 -12.46,22.41 0,14.578 11.86,26.418 26.43,26.418 14.57,0 26.43,-11.84 26.43,-26.418 0,-9.449 -5,-17.769 -12.47,-22.422 V 97.6016" /><path
         id="path92"
         style="fill:#ee2341;fill-opacity:1;fill-rule:nonzero;stroke:none"
         d="m 5273.9,301.77 c -1.49,11.972 -4.12,23.929 -7.81,35.511 -3.61,11.309 -8.3,22.399 -13.91,32.918 -5.54,10.41 -12.08,20.403 -19.41,29.711 -7.32,9.25 -15.5,17.91 -24.33,25.738 -8.86,7.872 -18.48,14.973 -28.58,21.102 -10.3,6.238 -21.17,11.559 -32.3,15.789 -11.41,4.352 -23.32,7.652 -35.41,9.82 l 4.99,27.782 c 13.81,-2.481 27.42,-6.262 40.45,-11.219 12.73,-4.84 25.15,-10.902 36.91,-18.051 11.55,-7 22.55,-15.121 32.67,-24.109 10.07,-8.922 19.4,-18.801 27.76,-29.364 8.38,-10.628 15.82,-22.039 22.16,-33.906 6.41,-12.023 11.75,-24.691 15.89,-37.633 4.22,-13.238 7.23,-26.898 8.93,-40.609 l -28.01,-3.48" /><path
         id="path94"
         style="fill:#ee2341;fill-opacity:1;fill-rule:nonzero;stroke:none"
         d="m 5024.8,54.4883 c -13.8,2.4805 -27.41,6.2617 -40.45,11.2226 -12.81,4.8789 -25.22,10.9493 -36.91,18.0508 -11.54,7.0078 -22.53,15.1172 -32.67,24.1173 -10.06,8.902 -19.41,18.801 -27.75,29.383 -8.36,10.57 -15.82,21.968 -22.17,33.886 -6.4,12.012 -11.75,24.672 -15.88,37.641 -4.22,13.211 -7.22,26.871 -8.93,40.609 l 28,3.473 c 1.5,-12.012 4.12,-23.949 7.82,-35.5 3.61,-11.34 8.29,-22.43 13.9,-32.941 5.56,-10.43 12.09,-20.41 19.41,-29.68 7.32,-9.289 15.5,-17.941 24.31,-25.738 8.89,-7.883 18.52,-14.992 28.63,-21.133 10.22,-6.219 21.08,-11.5196 32.29,-15.797 11.39,-4.332 23.3,-7.6406 35.39,-9.8125 l -4.99,-27.7812" /><path
         id="path96"
         style="fill:#ee2341;fill-opacity:1;fill-rule:nonzero;stroke:none"
         d="m 4997.36,27.3086 -16.02,23.2305 34.45,23.7422 -23.72,34.4177 23.25,16.02 39.73,-57.6995 -57.69,-39.7109" /><path
         id="path98"
         style="fill:#ee2341;fill-opacity:1;fill-rule:nonzero;stroke:none"
         d="m 5126.78,429.898 -39.73,57.704 57.69,39.707 16,-23.239 -34.44,-23.718 23.73,-34.442 -23.25,-16.012" /><path
         id="path100"
         style="fill:#ee2341;fill-opacity:1;fill-rule:nonzero;stroke:none"
         d="m 4968.36,486.891 c -58.42,0 -105.95,-47.532 -105.95,-105.942 0,-58.418 47.53,-105.949 105.95,-105.949 58.4,0 105.93,47.531 105.93,105.949 0,58.41 -47.53,105.942 -105.93,105.942 z m 0,-240.11 c -73.98,0 -134.17,60.188 -134.17,134.168 0,73.973 60.19,134.16 134.17,134.16 73.97,0 134.15,-60.187 134.15,-134.16 0,-73.98 -60.18,-134.168 -134.15,-134.168" /><path
         id="path102"
         style="fill:#ee2341;fill-opacity:1;fill-rule:nonzero;stroke:none"
         d="m 4995.32,387.031 h -92.55 v 28.231 h 92.55 v -28.231" /><path
         id="path104"
         style="fill:#ee2341;fill-opacity:1;fill-rule:nonzero;stroke:none"
         d="m 4988.73,346.199 h -92.54 v 28.242 h 92.54 v -28.242" /><path
         id="path106"
         style="fill:#ee2341;fill-opacity:1;fill-rule:nonzero;stroke:none"
         d="m 4979.33,302.379 c -9.37,0 -18.43,2.23 -26.94,6.641 -8.01,4.152 -15.12,10.011 -21.17,17.421 -5.87,7.231 -10.47,15.559 -13.66,24.809 -3.26,9.461 -4.91,19.441 -4.91,29.699 0,10.25 1.65,20.242 4.9,29.68 3.18,9.23 7.77,17.57 13.66,24.801 6.09,7.441 13.2,13.3 21.15,17.429 17.07,8.832 36.89,8.832 53.92,0 7.98,-4.129 15.09,-9.988 21.15,-17.398 l -21.86,-17.859 c -3.62,4.418 -7.75,7.847 -12.28,10.218 -8.89,4.602 -19,4.602 -27.93,0 -4.52,-2.371 -8.66,-5.8 -12.27,-10.218 -3.78,-4.633 -6.76,-10.082 -8.86,-16.172 -2.22,-6.469 -3.35,-13.348 -3.35,-20.481 0,-7.129 1.13,-14.008 3.36,-20.5 2.11,-6.097 5.09,-11.539 8.87,-16.187 3.59,-4.391 7.71,-7.821 12.27,-10.18 8.89,-4.602 19,-4.602 27.93,0 4.52,2.359 8.65,5.789 12.25,10.199 l 21.87,-17.84 c -6.03,-7.41 -13.15,-13.269 -21.13,-17.421 -8.54,-4.411 -17.6,-6.641 -26.97,-6.641" /><path
         id="path108"
         style="fill:#ee2341;fill-opacity:1;fill-rule:nonzero;stroke:none"
         d="m 5187.71,229.789 h -28.23 v 25.742 h 28.23 v -25.742" /><path
         id="path110"
         style="fill:#ee2341;fill-opacity:1;fill-rule:nonzero;stroke:none"
         d="m 5187.71,91.7813 h -28.23 v 25.7307 h 28.23 V 91.7813" /><path
         id="path112"
         style="fill:#ee2341;fill-opacity:1;fill-rule:nonzero;stroke:none"
         d="m 5173.59,279.461 c -58.33,0 -105.79,-47.461 -105.79,-105.813 0,-58.339 47.46,-105.7964 105.79,-105.7964 58.34,0 105.82,47.4574 105.82,105.7964 0,58.352 -47.48,105.813 -105.82,105.813 z m 0,-239.8321 c -73.9,0 -134.01,60.1211 -134.01,134.0191 0,73.903 60.11,134.043 134.01,134.043 73.92,0 134.04,-60.14 134.04,-134.043 0,-73.898 -60.12,-134.0191 -134.04,-134.0191" /><path
         id="path114"
         style="fill:#ee2341;fill-opacity:1;fill-rule:nonzero;stroke:none"
         d="m 5178.69,107.48 c -3.29,0 -6.67,0.192 -10.12,0.579 -11.53,1.312 -22.39,4.929 -33.9,8.773 l -2.17,0.707 8.9,26.801 2.2,-0.731 c 10.49,-3.507 19.55,-6.527 28.13,-7.488 16.58,-2.019 26.08,2.809 29.21,7.399 1.46,2.152 1.62,4.25 0.49,6.371 -2.37,4.468 -10.91,9.64 -27.2,9.64 -0.2,0.02 -0.39,0 -0.57,0 -25.32,0 -44.59,8.949 -52.89,24.578 -5.98,11.27 -5.18,24.45 2.16,35.243 10.38,15.257 31.45,22.679 56.27,19.898 11.6,-1.289 22.56,-4.941 34.17,-8.82 l 1.99,-0.66 -8.91,-26.79 -2.01,0.68 c -10.59,3.52 -19.74,6.57 -28.38,7.531 -16.84,1.891 -26.56,-2.972 -29.79,-7.722 -2.15,-3.149 -0.96,-5.379 -0.56,-6.129 2.35,-4.43 11.08,-9.57 27.94,-9.57 0.19,0.011 0.37,0.011 0.57,0 24.83,0 43.82,-8.981 52.13,-24.629 6.06,-11.422 5.28,-24.68 -2.08,-35.5 -8.8,-12.942 -25.43,-20.161 -45.58,-20.161" /><path
         id="path116"
         style="fill:#ee2341;fill-opacity:1;fill-rule:nonzero;stroke:none"
         d="m 7253.52,499.68 c -2.44,0 -4.13,-1.168 -4.96,-1.918 -0.92,-0.821 -2.46,-2.641 -2.46,-5.543 V 320.73 c 0,-156.101 111.66,-224.1792 195.65,-261.8198 l 3.07,-1.3594 3.05,1.3711 c 83.99,37.6289 195.66,105.7071 195.66,261.8081 v 171.489 c 0,2.902 -1.53,4.722 -2.45,5.543 -0.92,0.847 -2.94,2.289 -5.78,1.867 -36.06,-3.75 -108.77,-10.039 -190.48,-10.039 -81.72,0 -154.42,6.289 -190.49,10.039 v 0 c -0.28,0.043 -0.55,0.051 -0.81,0.051 z m 191.3,-472.3714 -14.35,6.4102 C 7339.48,74.5 7218.5,148.609 7218.5,320.73 v 171.489 c 0,9.922 4.22,19.402 11.56,26.031 7.36,6.641 17.19,9.93 27.1,8.84 l 0.01,-0.008 c 35.54,-3.691 107.16,-9.891 187.65,-9.891 80.47,0 152.1,6.2 187.64,9.891 9.9,1.168 19.76,-2.191 27.11,-8.832 7.35,-6.629 11.56,-16.109 11.56,-26.031 V 320.73 c 0,-172.121 -120.97,-246.23 -211.98,-286.9995 l -14.33,-6.4219" /><path
         id="path118"
         style="fill:#ee2341;fill-opacity:1;fill-rule:nonzero;stroke:none"
         d="m 7403.89,200.531 -86.4,93.559 20.28,18.742 65.36,-70.801 148.4,172.879 20.94,-17.98 -168.58,-196.399" /><path
         id="path120"
         style="fill:#ee2341;fill-opacity:1;fill-rule:nonzero;stroke:none"
         d="m 9783.2,122.48 c -18.53,0 -33.61,-15.07 -33.61,-33.6011 0,-18.5391 15.08,-33.5976 33.61,-33.5976 18.53,0 33.61,15.0585 33.61,33.5976 0,18.5311 -15.08,33.6011 -33.61,33.6011 z m 0,-95.1714 c -33.95,0 -61.57,27.6211 -61.57,61.5703 0,33.9411 27.62,61.5621 61.57,61.5621 33.95,0 61.57,-27.621 61.57,-61.5621 0,-33.9492 -27.62,-61.5703 -61.57,-61.5703" /><path
         id="path122"
         style="fill:#ee2341;fill-opacity:1;fill-rule:nonzero;stroke:none"
         d="m 9966.3,122.48 c -18.54,0 -33.61,-15.07 -33.61,-33.6011 0,-18.5391 15.07,-33.5976 33.61,-33.5976 18.53,0 33.6,15.0585 33.6,33.5976 0,18.5311 -15.07,33.6011 -33.6,33.6011 z m 0,-95.1714 c -33.96,0 -61.57,27.6211 -61.57,61.5703 0,33.9411 27.61,61.5621 61.57,61.5621 33.9,0 61.6,-27.621 61.6,-61.5621 0,-33.9492 -27.7,-61.5703 -61.6,-61.5703" /><path
         id="path124"
         style="fill:#ee2341;fill-opacity:1;fill-rule:nonzero;stroke:none"
         d="m 10036.3,206.43 h -310.42 l -89.66,292.91 h -86.37 v 27.969 h 107.06 l 89.66,-292.918 h 289.73 V 206.43" /><path
         id="path126"
         style="fill:#ee2341;fill-opacity:1;fill-rule:nonzero;stroke:none"
         d="m 10067.8,283.398 h -348.55 v 27.961 h 348.55 v -27.961" /><path
         id="path128"
         style="fill:#ee2341;fill-opacity:1;fill-rule:nonzero;stroke:none"
         d="m 10087.6,360.5 h -391.45 v 27.969 h 391.45 V 360.5" /><path
         id="path130"
         style="fill:#ee2341;fill-opacity:1;fill-rule:nonzero;stroke:none"
         d="m 12014.4,2676.43 h 367.8 v 454.77 h -367.8 z m 400,-32.22 h -432.2 v 519.2 h 432.2 v -519.2" /><path
         id="path132"
         style="fill:#ee2341;fill-opacity:1;fill-rule:nonzero;stroke:none"
         d="m 12198.3,3070.32 c -8.9,0 -16.1,7.21 -16.1,16.11 v 104.34 c 0,8.91 7.2,16.12 16.1,16.12 8.9,0 16.1,-7.21 16.1,-16.12 v -104.34 c 0,-8.9 -7.2,-16.11 -16.1,-16.11" /><path
         id="path134"
         style="fill:#ee2341;fill-opacity:1;fill-rule:nonzero;stroke:none"
         d="m 12302.7,3070.32 c -8.9,0 -16.1,7.21 -16.1,16.11 v 104.34 c 0,8.91 7.2,16.12 16.1,16.12 8.9,0 16.1,-7.21 16.1,-16.12 v -104.34 c 0,-8.9 -7.2,-16.11 -16.1,-16.11" /><path
         id="path136"
         style="fill:#ee2341;fill-opacity:1;fill-rule:nonzero;stroke:none"
         d="m 12094,3070.32 c -8.9,0 -16.2,7.21 -16.2,16.11 v 104.34 c 0,8.91 7.3,16.12 16.2,16.12 8.8,0 16.1,-7.21 16.1,-16.12 v -104.34 c 0,-8.9 -7.3,-16.11 -16.1,-16.11" /><path
         id="path138"
         style="fill:#ee2341;fill-opacity:1;fill-rule:nonzero;stroke:none"
         d="m 12272.2,2961.02 h -197.1 v 32.21 h 197.1 v -32.21" /><path
         id="path140"
         style="fill:#ee2341;fill-opacity:1;fill-rule:nonzero;stroke:none"
         d="m 12321.5,2862.49 h -246.4 v 32.22 h 246.4 v -32.22" /><path
         id="path142"
         style="fill:#ee2341;fill-opacity:1;fill-rule:nonzero;stroke:none"
         d="m 12321.5,2763.95 h -246.4 v 32.21 h 246.4 v -32.21" /><path
         id="path144"
         style="fill:#ee2341;fill-opacity:1;fill-rule:nonzero;stroke:none"
         d="m 12096,140.469 h 193.3 V 175.5 l 7.7,4.699 c 61.8,37.723 98.7,103.711 98.7,176.5 0,59.141 -25.1,115.5 -68.8,154.641 -43.5,38.82 -99.3,56.672 -157.5,50.101 -91.2,-10.25 -166.1,-84.64 -178,-176.902 -10.6,-81.769 27.5,-161.98 96.9,-204.34 l 7.7,-4.699 z m 225.5,-32.219 h -257.7 v 49.371 c -75.4,50.098 -116.2,139.75 -104.4,231.051 13.8,106.777 100.6,192.898 206.4,204.789 67.3,7.598 132.2,-13.09 182.5,-58.109 50.6,-45.231 79.6,-110.352 79.6,-178.653 0,-81.051 -39.6,-154.789 -106.4,-199.078 V 108.25" /><path
         id="path146"
         style="fill:#ee2341;fill-opacity:1;fill-rule:nonzero;stroke:none"
         d="m 12321.5,27.7305 h -257.7 v 32.1992 h 257.7 V 27.7305" /><path
         id="path148"
         style="fill:#ee2341;fill-opacity:1;fill-rule:nonzero;stroke:none"
         d="m 12216.8,116.309 h -32.2 v 189.113 h 32.2 V 116.309" /><path
         id="path150"
         style="fill:#ee2341;fill-opacity:1;fill-rule:nonzero;stroke:none"
         d="m 12200.7,268.68 -101.8,81.582 20.1,25.117 81.7,-65.43 81.5,65.332 20.2,-25.14 -101.7,-81.461" /><path
         id="path152"
         style="fill:#ee2341;fill-opacity:1;fill-rule:nonzero;stroke:none"
         d="m 14050.7,2680.41 h 537.8 l -268.9,499.56 z m 593.9,-32.21 h -650 l 325,595.7 325,-595.7" /><path
         id="path154"
         style="fill:#ee2341;fill-opacity:1;fill-rule:nonzero;stroke:none"
         d="m 14335.7,2813.29 h -32.2 v 206.37 h 32.2 v -206.37" /><path
         id="path156"
         style="fill:#ee2341;fill-opacity:1;fill-rule:nonzero;stroke:none"
         d="m 14335.7,2730.75 h -32.2 v 50.33 h 32.2 v -50.33" /><path
         id="path158"
         style="fill:#ee2341;fill-opacity:1;fill-rule:nonzero;stroke:none"
         d="m 14472,0 h -432.2 V 519.191 H 14472 V 377.648 h -32.2 v 109.34 H 14072 V 32.2188 h 367.8 v 28.6406 h 32.2 V 0" /><path
         id="path160"
         style="fill:#ee2341;fill-opacity:1;fill-rule:nonzero;stroke:none"
         d="m 14255.9,426.109 c -8.9,0 -16.1,7.2 -16.1,16.11 V 546.57 c 0,8.899 7.2,16.102 16.1,16.102 8.9,0 16.1,-7.203 16.1,-16.102 V 442.219 c 0,-8.91 -7.2,-16.11 -16.1,-16.11" /><path
         id="path162"
         style="fill:#ee2341;fill-opacity:1;fill-rule:nonzero;stroke:none"
         d="m 14360.3,426.109 c -8.9,0 -16.2,7.2 -16.2,16.11 V 546.57 c 0,8.899 7.3,16.102 16.2,16.102 8.8,0 16.1,-7.203 16.1,-16.102 V 442.219 c 0,-8.91 -7.3,-16.11 -16.1,-16.11" /><path
         id="path164"
         style="fill:#ee2341;fill-opacity:1;fill-rule:nonzero;stroke:none"
         d="m 14151.5,426.109 c -8.9,0 -16.1,7.2 -16.1,16.11 V 546.57 c 0,8.899 7.2,16.102 16.1,16.102 8.9,0 16.1,-7.203 16.1,-16.102 V 442.219 c 0,-8.91 -7.2,-16.11 -16.1,-16.11" /><path
         id="path166"
         style="fill:#ee2341;fill-opacity:1;fill-rule:nonzero;stroke:none"
         d="m 14297.6,316.809 h -164.9 v 32.211 h 164.9 v -32.211" /><path
         id="path168"
         style="fill:#ee2341;fill-opacity:1;fill-rule:nonzero;stroke:none"
         d="m 14227.4,218.27 h -94.7 v 32.218 h 94.7 V 218.27" /><path
         id="path170"
         style="fill:#ee2341;fill-opacity:1;fill-rule:nonzero;stroke:none"
         d="m 14260.3,119.73 h -127.6 v 32.219 h 127.6 V 119.73" /><path
         id="path172"
         style="fill:#ee2341;fill-opacity:1;fill-rule:nonzero;stroke:none"
         d="m 14397.9,309.539 c -49.4,0 -89.7,-40.219 -89.7,-89.641 0,-49.418 40.3,-89.636 89.7,-89.636 49.4,0 89.6,40.218 89.6,89.636 0,49.422 -40.2,89.641 -89.6,89.641 z m 0,-211.4999 c -67.2,0 -121.9,54.6599 -121.9,121.8589 0,67.192 54.7,121.852 121.9,121.852 67.2,0 121.8,-54.66 121.8,-121.852 0,-67.199 -54.6,-121.8589 -121.8,-121.8589" /><path
         id="path174"
         style="fill:#ee2341;fill-opacity:1;fill-rule:nonzero;stroke:none"
         d="m 14576.6,14.7305 -114.5,114.5195 22.8,22.77 114.5,-114.52 -22.8,-22.7695" /></g></g></svg>