<?xml version="1.0" encoding="UTF-8" standalone="no"?>
<svg
   xmlns:dc="http://purl.org/dc/elements/1.1/"
   xmlns:cc="http://creativecommons.org/ns#"
   xmlns:rdf="http://www.w3.org/1999/02/22-rdf-syntax-ns#"
   xmlns:svg="http://www.w3.org/2000/svg"
   xmlns="http://www.w3.org/2000/svg"
   viewBox="0 0 702.02667 126.28"
   height="126.28"
   width="702.02667"
   xml:space="preserve"
   id="svg2"
   version="1.1"><metadata
     id="metadata8"><rdf:RDF><cc:Work
         rdf:about=""><dc:format>image/svg+xml</dc:format><dc:type
           rdf:resource="http://purl.org/dc/dcmitype/StillImage" /></cc:Work></rdf:RDF></metadata><defs
     id="defs6" /><g
     transform="matrix(1.3333333,0,0,-1.3333333,0,126.28)"
     id="g10"><g
       transform="scale(0.1)"
       id="g12"><path
         id="path14"
         style="fill:#ffffff;fill-opacity:1;fill-rule:nonzero;stroke:none"
         d="M 0,855.711 V 21.2539 H 134.363 V 917.676 L 0,855.711" /><path
         id="path16"
         style="fill:#ffffff;fill-opacity:1;fill-rule:nonzero;stroke:none"
         d="M 2612.97,855.711 V 21.2539 h 134.37 V 917.676 l -134.37,-61.965" /><path
         id="path18"
         style="fill:#ffffff;fill-opacity:1;fill-rule:nonzero;stroke:none"
         d="M 766.375,206.766 C 722.246,163 668.758,141.023 605.895,141.023 c -63.219,0 -116.707,21.977 -160.665,65.743 -44.125,44.132 -66.097,97.625 -66.097,160.66 0,63.222 21.972,116.715 66.097,160.48 43.958,43.953 97.446,66.106 160.665,66.106 62.863,0 116.351,-22.153 160.48,-66.106 43.949,-43.765 65.926,-97.258 65.926,-160.48 0,-63.035 -21.977,-116.528 -65.926,-160.66 z m 94.559,415.699 C 789.43,693.969 704.598,729.633 605.895,729.633 507.012,729.633 422.363,693.969 351.934,622.465 280.43,551.324 244.773,466.129 244.773,367.426 244.773,268.727 280.43,184.078 351.934,113.469 422.363,42.3242 507.012,6.48438 605.895,6.48438 c 98.703,0 183.535,35.83982 255.039,106.98462 71.504,70.609 106.988,155.258 106.988,253.957 0,98.703 -35.484,183.898 -106.988,255.039" /><path
         id="path20"
         style="fill:#ffffff;fill-opacity:1;fill-rule:nonzero;stroke:none"
         d="m 1586.73,226.578 c -51.33,-61.418 -112.03,-92.031 -181.74,-92.031 -62.85,0 -116.53,21.973 -160.48,65.918 -43.94,44.125 -65.92,97.617 -65.92,160.66 0,63.035 21.98,116.535 65.92,160.48 43.95,43.946 97.63,66.102 160.48,66.102 64.12,0 120.14,-25.219 167.69,-75.285 l 72.77,33.496 54.03,24.859 c -36.38,47.911 -80.33,85.192 -132.02,112.032 -51.88,26.836 -106.09,40.339 -162.47,40.339 -98.7,0 -183.35,-35.66 -253.95,-106.98 -71.15,-71.328 -106.99,-156.344 -106.99,-255.043 0,-98.883 35.84,-183.355 106.99,-253.957 C 1221.64,35.8398 1306.29,0 1404.99,0 c 56.38,0 109.87,12.7891 160.67,38.1836 50.61,25.2148 92.94,60.3359 126.97,105.1834 l -3.78,17.293 -102.12,65.918" /><path
         id="path22"
         style="fill:#ffffff;fill-opacity:1;fill-rule:nonzero;stroke:none"
         d="m 2300.11,200.465 c -44.12,-43.945 -97.44,-65.918 -160.47,-65.918 -63.23,0 -116.54,21.973 -160.67,65.918 -43.94,44.125 -65.74,97.617 -65.74,160.66 0,63.035 21.8,116.535 65.74,160.48 44.13,43.946 97.44,66.102 160.67,66.102 30.07,0 57.99,-5.227 83.93,-15.316 28.1,-10.981 53.67,-27.911 76.54,-50.786 43.95,-43.945 66.1,-97.445 66.1,-160.48 0,-63.043 -22.15,-116.535 -66.1,-160.66 z m 66.1,437.676 v -29.364 c -6.12,7.207 -12.79,14.051 -19.27,20.536 -63.04,62.679 -139.04,93.835 -228.56,93.835 -34.4,0 -66.82,-4.5 -97.62,-13.683 -12.25,-3.426 -24.31,-7.926 -36.2,-12.973 -15.31,-6.664 -30.08,-14.769 -43.95,-23.953 l -0.18,-0.18 c -23.6,-15.851 -45.03,-35.484 -64.66,-58.718 -64.84,-69.7 -97.26,-153.817 -97.26,-252.516 0,-97.801 32.06,-181.91 96,-251.437 C 1939.17,36.5586 2020.58,0 2118.38,0 c 100.5,0 182.99,38.3633 247.83,114.551 V 21.2539 h 135.45 V 700.637 l -135.45,-62.496" /><path
         id="path24"
         style="fill:#ffffff;fill-opacity:1;fill-rule:nonzero;stroke:none"
         d="M 2857.38,638.32 V 21.2539 h 134.36 V 700.277 L 2857.38,638.32" /><path
         id="path26"
         style="fill:#ffffff;fill-opacity:1;fill-rule:nonzero;stroke:none"
         d="m 3554.24,390.844 h 1.08 c -6.49,4.324 -75.83,18.726 -207.67,43.765 -66.46,14.047 -99.6,38.907 -99.6,74.571 0,26.468 15.85,46.828 47.19,60.875 25.75,11.707 56.37,17.652 92.22,17.652 19.09,0 36.02,-1.617 50.96,-4.504 14.96,-2.883 29.18,-7.383 42.33,-13.148 30.62,-14.047 46.11,-38.723 46.11,-74.567 h 135.63 c 0,76.371 -31.16,134.907 -93.3,175.606 -52.42,34.765 -112.93,52.054 -181.73,52.054 -68.99,0 -129.5,-17.289 -181.74,-52.054 -61.42,-39.977 -92.04,-93.836 -92.04,-161.914 0,-87.176 39.27,-146.438 118.16,-177.953 6.66,-2.52 27.01,-7.383 60.88,-14.231 34.03,-7.199 82.67,-16.93 145.7,-29.355 66.29,-14.235 99.61,-38.731 99.61,-73.493 0,-53.128 -50.26,-79.601 -150.57,-79.601 -20,0 -38.01,1.433 -54.04,4.32 -16.39,2.883 -30.98,6.84 -44.31,11.887 -34.94,13.328 -52.41,38.898 -52.41,77.09 h -134.36 c 0,-77.996 32.96,-137.2542 98.34,-177.9534 C 3255.43,16.75 3317.75,0 3387.46,0 c 68.8,0 131.47,16.75 187.85,49.8906 64.84,40.6992 97.08,95.4574 97.08,164.2574 0,86.457 -39.44,145.176 -118.15,176.696" /><path
         id="path28"
         style="fill:#ffffff;fill-opacity:1;fill-rule:nonzero;stroke:none"
         d="m 3891.33,429.566 c 13.33,43.231 38.19,79.614 74.76,109.512 42.32,32.422 89.15,48.629 140.48,48.629 54.03,0 101.04,-16.207 140.85,-48.629 35.66,-27.558 61.05,-63.941 75.82,-109.512 z m 470.46,186.602 c -71.32,71.32 -156.34,106.98 -255.22,106.98 -98.7,0 -183.17,-35.66 -253.78,-106.98 -71.32,-71.328 -107.17,-156.344 -107.17,-255.043 0,-98.883 35.85,-183.355 107.17,-253.957 C 3923.4,35.8398 4007.87,0 4106.57,0 c 56.56,0 110.77,13.5117 162.64,40.7031 51.69,26.6563 96,64.4809 132.39,112.5669 l -113.12,73.308 c -49.88,-61.418 -110.41,-92.031 -181.91,-92.031 -51.33,0 -98.16,16.566 -140.48,49.707 -36.57,29.18 -61.43,65.742 -74.76,109.508 h 571.32 c 1.8,14.226 3.06,26.66 4.5,37.465 1.09,10.804 1.63,20.714 1.63,29.898 0,98.699 -35.66,183.715 -106.99,255.043" /><path
         id="path30"
         style="fill:#ffffff;fill-opacity:1;fill-rule:nonzero;stroke:none"
         d="m 2867.31,885.082 v -94.559 l 134.39,61.997 v 94.554 l -134.39,-61.992" /><path
         id="path32"
         style="fill:#ffffff;fill-opacity:1;fill-rule:nonzero;stroke:none"
         d="m 5065.63,207.602 c -43.69,-43.504 -96.65,-65.262 -158.89,-65.262 -62.59,0 -115.55,21.758 -159.06,65.262 -43.68,43.687 -65.26,96.652 -65.26,159.062 0,62.414 21.58,115.379 65.26,158.883 43.51,43.512 96.47,65.445 159.06,65.445 62.24,0 115.2,-21.933 158.89,-65.445 43.51,-43.504 65.26,-96.469 65.26,-158.883 0,-62.41 -21.75,-115.375 -65.26,-159.062 z m 65.26,648.371 V 611.852 c -65.8,75.613 -147.47,113.238 -245.19,113.238 -15.16,0 -30.13,-0.895 -44.58,-2.86 -0.18,0 -0.18,0 -0.36,0 -30.67,-3.558 -60.08,-11.585 -87.55,-23.535 -29.78,-12.836 -56.89,-31.023 -81.49,-54.39 -9.28,-8.375 -18.01,-17.649 -26.39,-27.633 -64.02,-69.012 -96.12,-152.285 -96.12,-250.008 0,-96.824 31.75,-180.101 95.04,-248.934 C 4708.27,45.332 4788.7,9.13672 4885.7,9.13672 c 99.33,0 181.18,37.97658 245.19,113.40628 V 30.1758 h 134.28 V 917.672 l -134.28,-61.699" /></g></g></svg>