<?xml version="1.0" ?><!DOCTYPE svg  PUBLIC '-//W3C//DTD SVG 1.0//EN'  'http://www.w3.org/TR/2001/REC-SVG-20010904/DTD/svg10.dtd'><svg enable-background="new 0 0 595.28 595.28" height="595.28px" id="Layer_1" version="1.0" viewBox="0 0 595.28 595.28" width="595.28px" xml:space="preserve" xmlns="http://www.w3.org/2000/svg" xmlns:xlink="http://www.w3.org/1999/xlink"><path d="M297.64,297.64" fill="none" stroke="#666766" stroke-miterlimit="10" stroke-width="3"/><path d="M307.913,555.215c-0.008,0,0.005,0-0.003,0c-163.168,0-168.467-14.833-171.013-21.957  c-1.817-5.091-7.333-20.53,72.33-224.985c-5.394-44.496-32.954-151.152-33.237-152.252l-0.408-3.208V40.065h27.541v82.667  c17.365,4.184,71.508,15.14,94.547,40.138c23.039-24.998,75.183-35.954,92.548-40.138V40.065h29.545l-0.418,115.955  c-0.283,1.1-27.813,107.665-33.229,152.194c36.93,92.366,78.917,205.055,72.427,224.745  C455.616,541.824,451.174,555.215,307.913,555.215z M162.078,521.177c17.173,3.934,70.364,8.44,145.832,8.44  c73.271,0,112.918-4.273,125.767-7.832c-3.558-25.215-38.271-121.521-72.527-207.056l-1.174-2.932l0.325-3.15  c4.392-42.021,30.13-142.985,33.862-157.46v-6.433l-7.266,1.075c-0.55,0.083-56.544,8.958-78.288,44.795l-10.94,18.041  l-10.94-18.041c-21.865-36.029-77.726-44.712-78.285-44.795l-7.266-1.075v6.433c3.725,14.475,29.468,115.439,33.852,157.46  l0.325,3.082l-1.13,2.901C201.071,399.597,167.107,494.662,162.078,521.177z" fill="#666766"/></svg>