<?xml version="1.0" ?><!DOCTYPE svg  PUBLIC '-//W3C//DTD SVG 1.1//EN'  'http://www.w3.org/Graphics/SVG/1.1/DTD/svg11.dtd'><svg height="30px" style="enable-background:new 0 0 30 30;" version="1.1" viewBox="0 0 30 30" width="30px" xml:space="preserve" xmlns="http://www.w3.org/2000/svg" xmlns:xlink="http://www.w3.org/1999/xlink"><g id="women_x27_s_handbag"><g><path d="M25.821,25.496l-2.094-10.8l0,0l-0.954-4.921h-1.187C21.33,6.363,18.478,3.663,15,3.663    c-3.477,0-6.33,2.7-6.587,6.112H7.226l-0.928,4.792L4.179,25.496H25.821z M5.392,24.496l1.625-8.38    c1.85,2.527,4.806,4.053,7.984,4.053s6.135-1.525,7.984-4.052l1.624,8.379H5.392z M15,4.663c2.926,0,5.333,2.251,5.587,5.112    H9.413C9.667,6.915,12.074,4.663,15,4.663z M21.949,10.775l0.758,3.917c-1.585,2.762-4.519,4.477-7.707,4.477    s-6.121-1.715-7.708-4.478l0.759-3.916H21.949z" style="fill:#474747;"/><path d="M15,18.498c0.758,0,1.375-0.616,1.375-1.374c0-0.759-0.617-1.375-1.375-1.375    s-1.375,0.617-1.375,1.375C13.625,17.882,14.242,18.498,15,18.498z M15,16.748c0.207,0,0.375,0.169,0.375,0.376    c0,0.206-0.168,0.374-0.375,0.374s-0.375-0.168-0.375-0.374C14.625,16.917,14.793,16.748,15,16.748z" style="fill:#474747;"/></g></g><g id="Warstwa_1"/></svg>