<?xml version="1.0" ?><!DOCTYPE svg  PUBLIC '-//W3C//DTD SVG 1.1//EN'  'http://www.w3.org/Graphics/SVG/1.1/DTD/svg11.dtd'><svg height="30px" style="enable-background:new 0 0 30 30;" version="1.1" viewBox="0 0 30 30" width="30px" xml:space="preserve" xmlns="http://www.w3.org/2000/svg" xmlns:xlink="http://www.w3.org/1999/xlink"><g id="outlet"><g><path d="M11.944,25.155l-1.931-2.956l-3.409-0.923l0.176-3.526L4.565,15l2.215-2.75L6.604,8.723L10.014,7.8    l1.931-2.957l3.299,1.257l3.3-1.257l1.931,2.957l3.408,0.922l-0.176,3.526L25.922,15l-2.215,2.75l0.176,3.526l-3.408,0.923    l-1.931,2.956l-3.3-1.257L11.944,25.155z M15.244,22.828l2.904,1.106l1.698-2.601l2.998-0.812l-0.154-3.103L24.639,15    l-1.949-2.419l0.154-3.103l-2.998-0.812l-1.698-2.601l-2.904,1.106l-2.903-1.106l-1.698,2.601L7.644,9.478l0.155,3.103L5.85,15    l1.949,2.42l-0.155,3.103l2.999,0.812l1.698,2.601L15.244,22.828z" style="fill:#474747;"/></g><g><path d="M12.78,14.422c-1.183,0-2.145-0.962-2.145-2.145s0.962-2.145,2.145-2.145s2.145,0.962,2.145,2.145    S13.963,14.422,12.78,14.422z M12.78,11.133c-0.631,0-1.145,0.514-1.145,1.145s0.514,1.145,1.145,1.145    c0.631,0,1.145-0.514,1.145-1.145S13.411,11.133,12.78,11.133z" style="fill:#474747;"/></g><g><path d="M17.394,19.959c-1.183,0-2.145-0.962-2.145-2.145s0.962-2.145,2.145-2.145s2.145,0.962,2.145,2.145    S18.576,19.959,17.394,19.959z M17.394,16.67c-0.631,0-1.145,0.514-1.145,1.145s0.514,1.145,1.145,1.145s1.145-0.514,1.145-1.145    S18.024,16.67,17.394,16.67z" style="fill:#474747;"/></g><g><path d="M11.474,19.356c-0.128,0-0.256-0.049-0.354-0.146c-0.195-0.195-0.195-0.512,0-0.707l7.546-7.546    c0.195-0.195,0.512-0.195,0.707,0s0.195,0.512,0,0.707l-7.546,7.546C11.73,19.308,11.602,19.356,11.474,19.356z" style="fill:#474747;"/></g></g><g id="Warstwa_1"/></svg>