<?xml version="1.0" ?><svg id="Layer_1" style="enable-background:new 0 0 52 52;" version="1.1" viewBox="0 0 52 52" xml:space="preserve" xmlns="http://www.w3.org/2000/svg" xmlns:xlink="http://www.w3.org/1999/xlink"><style type="text/css">
	.st0{fill:none;stroke:#000000;stroke-width:2;stroke-linecap:round;stroke-linejoin:round;stroke-miterlimit:10;}
</style><g><g><path d="M37.5856934,50H14.4147949c-0.4057617,0-0.7714844-0.2456055-0.925293-0.6210938l-3.0932617-7.5541992    c-3.0932617-7.1777344-6.2446289-23.4755859-6.3769531-24.1660156c-0.0112305-0.0571289-0.0170898-0.1147461-0.0180664-0.1733398    C3.8981934,10.753418,9.8083496,8.0493164,15.373291,7.7636719c0.3076172-0.0175781,0.5830078,0.0195313,0.8256836,0.0512695    c0.6293945-0.1499023,1.7568359-2.6103516,2.3544922-5.0527344C18.6628418,2.3149414,19.0637207,2,19.5246582,2h12.9506836    c0.4604492,0,0.8613281,0.3149414,0.9711914,0.7617188c0.5996094,2.4428711,1.7270508,4.9033203,2.3203125,5.0629883    c0.2788086-0.0415039,0.5546875-0.0771484,0.8598633-0.0610352c5.5654297,0.2856445,11.4750977,2.9897461,11.3720703,9.7216797    c-0.0009766,0.0585938-0.0068359,0.1162109-0.0180664,0.1733398c-0.1323242,0.6904297-3.2836914,16.9882813-6.3837891,24.1826172    l-3.0859375,7.5375977C38.3571777,49.7543945,37.9914551,50,37.5856934,50z M15.0856934,48h21.8286133l2.8388672-6.9331055    c2.9077148-6.7490234,5.9902344-22.3813477,6.246582-23.6982422c0.0380859-6.6035156-7.2363281-7.4926758-9.4750977-7.6079102    c-0.1557617-0.0083008-0.3115234,0.0175781-0.4672852,0.0375977C33.7687988,10.0986328,32.3425293,6.3007813,31.7028809,4    H20.2971191c-0.6381836,2.300293-2.0366211,6.0874023-4.2788086,5.8081055    c-0.230957-0.0297852-0.3886719-0.0546875-0.5429688-0.0473633c-2.2382813,0.1152344-9.5131836,1.0043945-9.4750977,7.6079102    c0.2563477,1.3149414,3.3388672,16.949707,6.2397461,23.6816406L15.0856934,48z"/></g><g><path d="M26.0002441,25.6157227c-9.1904297,0-16.6669922-7.0170898-16.6669922-15.6425781c0-0.5522461,0.4477539-1,1-1    s1,0.4477539,1,1c0,7.5224609,6.5795898,13.6425781,14.6669922,13.6425781s14.6669922-6.1201172,14.6669922-13.6425781    c0-0.5522461,0.4477539-1,1-1s1,0.4477539,1,1C42.6672363,18.5986328,35.1906738,25.6157227,26.0002441,25.6157227z"/></g><g><path d="M26.0002441,35.7470703c-0.7158203,0-1.355957-0.40625-1.671875-1.0605469l-1.918457-3.980957    c-0.1323242-0.2744141-0.1323242-0.59375,0-0.8681641l2.6894531-5.5791016c0.3339844-0.6923828,1.4677734-0.6923828,1.8017578,0    l2.6894531,5.5791016c0.1323242,0.2744141,0.1323242,0.59375,0,0.8681641l-1.9189453,3.9804688    C27.3557129,35.3408203,26.7155762,35.7470703,26.0002441,35.7470703z M24.4211426,30.2714844l1.5791016,3.2763672    l1.5791016-3.2763672l-1.5791016-3.2763672L24.4211426,30.2714844z"/></g></g></svg>