<?xml version="1.0" ?><svg data-name="Layer 1" id="Layer_1" viewBox="0 0 100 100" xmlns="http://www.w3.org/2000/svg"><title/><path d="M73.7,32c-1.57,0-3.17,0-4.75.06a1.49,1.49,0,0,0-.39-.06H27.75c-6.09,0-12.38,0-16.27,4.24-2.92,3.18-4,8.31-3.4,15.68.8,9.3,7,14.85,16.46,14.85s23.05-11.84,23.05-22.9a16.28,16.28,0,0,0-.23-2.81c2.57-1.34,4.74-1.28,6.71.16a16.44,16.44,0,0,0-.21,2.65c0,11.05,13.53,22.9,23.05,22.9s15.67-5.55,16.46-14.85c.63-7.37-.48-12.5-3.4-15.68C86.08,32,79.79,32,73.7,32ZM24.54,63.77c-3.74,0-12.54-1.18-13.47-12.1-.56-6.49.3-10.87,2.62-13.4C16.68,35,22.06,35,27.75,35c11.45,0,16.84.88,16.84,8.88C44.59,53.1,32.45,63.77,24.54,63.77ZM55,38.21c-2.58-1.5-5.43-1.52-8.53-.06A8.68,8.68,0,0,0,43.89,35H57.56A8.68,8.68,0,0,0,55,38.21ZM90.38,51.67c-.94,10.92-9.73,12.1-13.47,12.1-7.92,0-20.05-10.67-20.05-19.9,0-8,5.39-8.88,16.84-8.88,5.69,0,11.06,0,14.06,3.27C90.08,40.79,90.94,45.18,90.38,51.67Z"/><path d="M25.35,38.08c-3.11,0-6.32,0-8.44,2.3-1.56,1.7-2.17,4.38-1.84,8.17a1.5,1.5,0,0,0,1.49,1.37h.13a1.5,1.5,0,0,0,1.37-1.62c-.25-2.87.11-4.85,1.06-5.88,1.22-1.33,3.65-1.33,6.23-1.33a1.5,1.5,0,0,0,0-3Z"/><path d="M73.7,37.08c-6.07,0-13.62,0-13.62,8.35a1.5,1.5,0,0,0,3,0c0-4.85,3.24-5.35,10.62-5.35a1.5,1.5,0,0,0,0-3Z"/></svg>