<?xml version="1.0" ?><svg viewBox="0 0 25 25" xmlns="http://www.w3.org/2000/svg"><title/><g id="sneakers"><path d="M21.5,18H19.628L16.8,16.456l.619-.929a.5.5,0,1,0-.832-.555l-.668,1-1.808-.986.308-.462a.5.5,0,1,0-.832-.555l-.357.536L8.739,12.062A.5.5,0,0,0,8,12.5,3.54,3.54,0,0,1,4.605,16C2.494,16,.952,13.284.937,13.257A.5.5,0,0,0,0,13.5v9A2.5,2.5,0,0,0,2.5,25h19a3.5,3.5,0,0,0,0-7ZM8.93,13.3l3.74,2.04-.586.879a.5.5,0,1,0,.832.555l.635-.953,1.808.986-.275.412a.5.5,0,1,0,.832.555l.324-.486,3.021,1.647A.488.488,0,0,0,19.5,19h2a2.5,2.5,0,0,1,2.449,2H10.492a.485.485,0,0,0-.056-.243L7.629,15.708A4.407,4.407,0,0,0,8.93,13.3ZM7.437,20.757,5.314,16.934a4.463,4.463,0,0,0,1.52-.6L9.428,21H7.493A.489.489,0,0,0,7.437,20.757ZM4.186,16.966,6.427,21H1V15.045A5.283,5.283,0,0,0,4.186,16.966ZM21.5,24H2.5A1.5,1.5,0,0,1,1,22.5V22H23.949A2.5,2.5,0,0,1,21.5,24Z"/></g></svg>