<?xml version="1.0" ?><svg id="Ebene_1" style="enable-background:new 0 0 24 24;" version="1.1" viewBox="0 0 24 24" xml:space="preserve" xmlns="http://www.w3.org/2000/svg" xmlns:xlink="http://www.w3.org/1999/xlink"><style type="text/css">
	.st0{fill:#424955;}
</style><path class="st0" d="M21.7568359,6.0712891l-3.3378906-2.0024414C17.2539062,3.3696289,15.9199219,3,14.5615234,3h-0.1123047  c-0.2382812,0-0.4423828,0.1674805-0.4902344,0.4003906C13.7714844,4.3271484,12.9472656,5,12,5  s-1.7714844-0.6728516-1.9599609-1.5996094C9.9931641,3.1674805,9.7880859,3,9.550293,3H9.4389648  c-1.359375,0-2.6938477,0.3696289-3.8588867,1.0688477L2.2426758,6.0712891  c-0.2241211,0.1342773-0.3066406,0.418457-0.1899414,0.6523438l2,4c0.1245117,0.246582,0.4238281,0.3457031,0.6708984,0.2236328  L6,10.309082V20c0,0.5517578,0.4487305,1,1,1h10c0.5517578,0,1-0.4482422,1-1v-9.690918l1.2763672,0.6381836  c0.2480469,0.1235352,0.5478516,0.0239258,0.6708984-0.2236328l2-4C22.0644531,6.4897461,21.9814453,6.2055664,21.7568359,6.0712891  z M19.2763672,9.8291016L18,9.190918V8.5C18,8.2236328,17.7763672,8,17.5,8S17,8.2236328,17,8.5V20H7V8.5  C7,8.2236328,6.7763672,8,6.5,8S6,8.2236328,6,8.5v0.690918L4.7236328,9.8291016L3.1542969,6.6904297l2.9404297-1.7641602  c0.9335938-0.5605469,1.9926758-0.8764648,3.0786133-0.9208984C9.5922852,5.1826172,10.7216797,6,12,6  s2.4072266-0.8173828,2.8261719-1.9946289c1.0859375,0.0444336,2.1445312,0.3603516,3.0791016,0.9208984l2.9404297,1.7641602  L19.2763672,9.8291016z"/></svg>